<svg width="24" height="24" viewBox="0 0 24 24" fill="none" xmlns="http://www.w3.org/2000/svg">
<path d="M20.301 3.69856C18.0356 1.43381 14.3627 1.43381 12.0974 3.69856C10.2849 5.51051 9.92287 8.22313 11.0106 10.3953L2.00536 19.3983L2 21.9943L7.03572 22V19.5514H9.48495V17.1029H11.9342V14.6543L13.6025 12.9865C15.7752 14.0739 18.4885 13.7119 20.301 11.9C22.5664 9.63522 22.5664 5.96331 20.301 3.69856ZM18.4569 8.02203C17.7719 8.70682 16.6613 8.70682 15.9763 8.02203C15.2913 7.33724 15.2913 6.22695 15.9763 5.54212C16.6613 4.85728 17.7719 4.85733 18.4569 5.54212C19.1419 6.22695 19.1419 7.33724 18.4569 8.02203Z" stroke="currentColor" stroke-width="1.6" stroke-linejoin="round"/>
</svg>
