<svg width="67" height="70" viewBox="0 0 67 70" fill="none" xmlns="http://www.w3.org/2000/svg">
<path d="M64.8001 7.13339H59.4223C58.4445 7.13339 57.9556 7.62228 57.4667 8.60005L51.1112 26.6889H34.4889L22.7556 5.17783C23.2445 5.17783 23.7334 5.17783 24.2223 4.68894C25.2001 4.68894 26.1778 3.22228 25.6889 2.2445C25.6889 1.26672 24.7112 0.777832 23.2445 0.777832C10.5334 3.22228 0.755615 14.9556 0.755615 28.1556V29.1334C0.755615 42.8223 13.4667 55.5334 27.1556 55.5334C37.9112 55.5334 47.6889 47.7112 52.0889 37.9334C52.0889 37.4445 52.5778 36.4667 52.5778 35.9778L60.889 12.0223H64.8001C65.7778 12.0223 66.7556 11.0445 66.7556 10.0667C66.7556 9.08894 66.2667 7.13339 64.8001 7.13339ZM18.8445 6.6445L29.6001 26.6889H5.15562C5.6445 17.8889 11.0223 10.0667 18.8445 6.6445ZM49.1556 34.5112L48.6667 35.4889C45.2445 43.8001 36.4445 51.1334 27.6445 51.1334C16.8889 51.1334 6.62228 41.3556 5.15562 30.6001H49.6445C49.6445 32.0667 49.1556 33.0445 49.1556 34.5112ZM48.1778 55.0445C44.2667 55.0445 40.8445 58.4667 40.8445 62.3778C40.8445 66.2889 44.2667 69.7112 48.1778 69.7112C52.0889 69.7112 55.5112 66.2889 55.5112 62.3778C55.5112 57.9778 52.0889 55.0445 48.1778 55.0445ZM48.1778 65.3112C46.7112 65.3112 45.2445 63.8445 45.2445 62.3778C45.2445 60.9112 46.7112 59.4445 48.1778 59.4445C49.6445 59.4445 51.1112 60.9112 51.1112 62.3778C51.1112 63.8445 49.6445 65.3112 48.1778 65.3112ZM12.489 55.0445C8.57784 55.0445 5.15562 58.4667 5.15562 62.3778C5.15562 66.2889 8.57784 69.7112 12.489 69.7112C16.4001 69.2223 19.3334 65.8001 19.3334 61.8889C19.3334 57.9778 16.4001 55.0445 12.489 55.0445ZM12.489 65.3112C11.0223 65.3112 9.55562 63.8445 9.55562 62.3778C9.55562 60.9112 11.0223 59.4445 12.489 59.4445C13.9556 59.4445 15.4223 60.9112 15.4223 62.3778C15.4223 63.8445 13.9556 65.3112 12.489 65.3112Z" fill="#284C67"/>
</svg>
