<svg width="18" height="18" viewBox="0 0 18 18" fill="none" xmlns="http://www.w3.org/2000/svg">
<path d="M15.1885 5.0625H2.81348C2.50282 5.0625 2.25098 5.31434 2.25098 5.625V14.625C2.25098 14.9357 2.50282 15.1875 2.81348 15.1875H15.1885C15.4991 15.1875 15.751 14.9357 15.751 14.625V5.625C15.751 5.31434 15.4991 5.0625 15.1885 5.0625Z" stroke="currentColor" stroke-width="1.2" stroke-linecap="round" stroke-linejoin="round"/>
<path d="M11.8125 5.0625V3.9375C11.8125 3.63913 11.694 3.35298 11.483 3.142C11.272 2.93103 10.9859 2.8125 10.6875 2.8125H7.3125C7.01413 2.8125 6.72798 2.93103 6.51701 3.142C6.30603 3.35298 6.1875 3.63913 6.1875 3.9375V5.0625" stroke="currentColor" stroke-width="1.2" stroke-linecap="round" stroke-linejoin="round"/>
<path d="M15.7511 8.8811C13.6996 10.068 11.3706 10.6912 9.00052 10.6875C6.6308 10.6912 4.30225 10.0682 2.25098 8.8817" stroke="currentColor" stroke-width="1.2" stroke-linecap="round" stroke-linejoin="round"/>
<path d="M8.15625 8.4375H9.84375" stroke="currentColor" stroke-width="1.2" stroke-linecap="round" stroke-linejoin="round"/>
</svg>
