<svg width="22" height="18" viewBox="0 0 22 18" fill="none" xmlns="http://www.w3.org/2000/svg">
<path d="M14.7271 0H7.26904C6.63721 0 6.125 0.523813 6.125 1.16997V4.45702C6.125 5.10318 6.63721 5.62699 7.26904 5.62699H14.7271C15.359 5.62699 15.8712 5.10318 15.8712 4.45702V1.16997C15.8712 0.523813 15.359 0 14.7271 0Z" fill="white"/>
<path d="M18.7 1.76904H3.3C1.47746 1.76904 0 3.27998 0 5.14382V14.6253C0 16.4892 1.47746 18.0001 3.3 18.0001H18.7C20.5225 18.0001 22 16.4892 22 14.6253V5.14382C22 3.27998 20.5225 1.76904 18.7 1.76904Z" fill="white"/>
<ellipse cx="11.0285" cy="9.64203" rx="5.19255" ry="5.143" fill="#32607A" stroke="currentColor" stroke-width="2"/>
<ellipse cx="11.0292" cy="9.64241" rx="3.89441" ry="3.85725" fill="white"/>
</svg>
