<svg width="82" height="82" viewBox="0 0 82 82" fill="none" xmlns="http://www.w3.org/2000/svg">
<path d="M68.4848 46.5904C68.0587 49.4255 66.7671 51.6662 64.61 53.3124C60.3399 56.5708 54.2833 55.772 50.9155 51.6171C46.3493 45.9803 49.2474 37.5713 56.2297 35.7906C59.1237 35.0538 62.2133 35.6983 64.5714 37.4872C66.7698 39.1545 68.0743 41.4003 68.4848 44.2244C68.493 44.2795 68.5252 44.307 68.5812 44.307H72.8568C72.9256 44.307 72.9601 44.2726 72.9601 44.2037V37.8315C72.9601 37.7425 72.9155 37.6979 72.8265 37.6979C71.8613 37.6943 70.8356 37.6952 69.7493 37.7007C69.0633 37.7048 68.5536 37.249 68.5536 36.5453C68.5518 34.7751 68.5518 32.8407 68.5536 30.7418C68.5536 30.6868 68.527 30.6514 68.4737 30.6358C65.0806 29.6626 61.6655 28.6857 58.2283 27.7052C58.0617 27.657 57.8316 27.4559 57.7269 27.2948C54.6644 22.583 51.7052 18.0066 48.8493 13.5657C48.2295 12.6008 47.7382 11.9218 47.3755 11.5289C46.2744 10.3344 44.9259 9.5664 43.3299 9.22486C42.7578 9.10275 42.0507 9.04262 41.2086 9.04445C35.4298 9.05363 29.6276 9.05593 23.8019 9.05134C21.1173 9.04858 18.6709 10.3968 17.2604 12.6306C16.9647 13.1007 16.6341 13.7847 16.2687 14.6826C14.5175 18.9904 12.8195 23.1169 11.1749 27.062C10.9747 27.5413 10.6101 27.7809 10.0812 27.7809C9.05177 27.78 7.99757 27.7805 6.91857 27.7823C6.86807 27.7823 6.84281 27.757 6.84281 27.7065V25.6463C6.84281 25.6004 6.86577 25.5774 6.91169 25.5774H9.29466C9.32977 25.5774 9.36399 25.567 9.39295 25.5476C9.42191 25.5282 9.44428 25.5007 9.4572 25.4686C10.9237 21.8981 12.399 18.3161 13.8829 14.7225C14.4899 13.2526 14.8499 12.4084 14.9628 12.1899C16.4174 9.38462 19.164 7.41939 22.2716 6.97181C22.9483 6.87357 23.8744 6.82766 25.0499 6.83409C30.3356 6.8598 35.4973 6.86025 40.5351 6.83547C41.7445 6.82996 42.6572 6.87724 43.2734 6.97731C45.6132 7.3565 47.5632 8.42427 49.1234 10.1806C49.5321 10.6415 50.0748 11.3976 50.7516 12.4488C53.5441 16.7924 56.3936 21.1994 59.3 25.6697C59.3284 25.7124 59.3708 25.7436 59.4198 25.7578C64.4199 27.1809 69.4035 28.604 74.3706 30.0271C74.8678 30.1703 75.1667 30.6358 75.1667 31.1343C75.1621 35.8883 75.1621 40.5983 75.1667 45.2642C75.1681 46.0161 74.7507 46.5105 73.927 46.5105C71.9527 46.5105 70.1703 46.51 68.5798 46.5091C68.5247 46.5091 68.493 46.5362 68.4848 46.5904ZM72.9601 31.962C72.96 31.948 72.9554 31.9344 72.947 31.9232C72.9385 31.9121 72.9267 31.9039 72.9132 31.9L70.8374 31.3051C70.8278 31.3023 70.8177 31.3018 70.8078 31.3036C70.798 31.3055 70.7887 31.3095 70.7807 31.3155C70.7727 31.3215 70.7662 31.3293 70.7617 31.3383C70.7572 31.3472 70.7548 31.3571 70.7548 31.3671L70.7575 35.4256C70.7575 35.4428 70.7644 35.4592 70.7765 35.4714C70.7887 35.4835 70.8051 35.4903 70.8223 35.4903L72.894 35.4931C72.9111 35.4931 72.9276 35.4863 72.9397 35.4741C72.9519 35.462 72.9587 35.4455 72.9587 35.4284L72.9601 31.962ZM66.3415 45.4088C66.3415 43.3652 65.5295 41.4053 64.0842 39.9603C62.6389 38.5153 60.6786 37.7035 58.6347 37.7035C56.5907 37.7035 54.6304 38.5153 53.1851 39.9603C51.7398 41.4053 50.9279 43.3652 50.9279 45.4088C50.9279 47.4523 51.7398 49.4122 53.1851 50.8572C54.6304 52.3022 56.5907 53.114 58.6347 53.114C60.6786 53.114 62.6389 52.3022 64.0842 50.8572C65.5295 49.4122 66.3415 47.4523 66.3415 45.4088Z" fill="#1A4D6A"/>
<path d="M65.0384 15.0434C64.4737 14.7404 63.8575 14.5839 63.1899 14.5738C61.5301 14.5504 61.5411 12.369 63.161 12.3469C65.2974 12.3166 66.9021 10.788 67.369 8.79381C67.4779 8.33108 67.358 7.78158 67.6197 7.37945C68.2313 6.43746 69.628 6.82996 69.657 7.97714C69.7162 10.4244 71.5771 12.296 74.0414 12.3538C74.7466 12.3703 75.2329 12.9322 75.142 13.6304C75.08 14.1083 74.6378 14.5325 74.1557 14.5463C71.5854 14.6206 69.7575 16.3903 69.6487 18.9725C69.5881 20.4103 67.5247 20.4199 67.46 18.9987C67.3773 17.1845 66.5701 15.8661 65.0384 15.0434ZM70.3567 13.4142C69.6414 12.9249 69.0537 12.3354 68.5936 11.6459C68.5893 11.6393 68.5834 11.6338 68.5764 11.63C68.5695 11.6262 68.5616 11.6242 68.5536 11.6242C68.5455 11.6242 68.5376 11.6262 68.5304 11.63C68.5232 11.6338 68.517 11.6393 68.5123 11.6459C68.0523 12.3318 67.4645 12.9217 66.7492 13.4156C66.7421 13.4206 66.7363 13.4271 66.7323 13.4348C66.7283 13.4425 66.7262 13.451 66.7262 13.4597C66.7262 13.4683 66.7283 13.4769 66.7323 13.4845C66.7363 13.4922 66.7421 13.4988 66.7492 13.5037C67.4462 13.9757 68.0353 14.5655 68.5165 15.2734C68.5205 15.2794 68.5259 15.2843 68.5323 15.2876C68.5387 15.291 68.5457 15.2928 68.553 15.2928C68.5602 15.2928 68.5673 15.291 68.5736 15.2876C68.58 15.2843 68.5854 15.2794 68.5895 15.2734C69.0697 14.5628 69.6588 13.9734 70.3567 13.5051C70.3641 13.5001 70.3701 13.4933 70.3743 13.4854C70.3785 13.4774 70.3807 13.4686 70.3807 13.4597C70.3807 13.4507 70.3785 13.4419 70.3743 13.434C70.3701 13.4261 70.3641 13.4193 70.3567 13.4142Z" fill="#1A4D6A"/>
<path d="M19.7288 13.534C20.5562 12.4571 21.5792 11.7598 22.7977 11.4421C23.3239 11.3053 23.9943 11.2383 24.8088 11.241C29.9246 11.2631 34.9711 11.2645 39.9483 11.2452C40.895 11.2415 41.6104 11.3016 42.0943 11.4256C43.0457 11.6689 43.891 12.1459 44.6302 12.8565C44.9553 13.1696 45.4204 13.8219 46.0256 14.8134C48.3479 18.6181 50.6423 22.3489 52.9086 26.0057C53.4293 26.8472 52.9238 27.7809 51.9031 27.7809C40.362 27.78 28.2832 27.7805 15.6667 27.7823C14.7962 27.7823 14.3678 26.916 14.6626 26.1627C16.0198 22.6987 17.355 19.2296 18.6682 15.7554C19.0869 14.6491 19.4404 13.9086 19.7288 13.534ZM17.3031 25.4714C17.2765 25.5421 17.3008 25.5774 17.3761 25.5774L32.05 25.5788C32.0866 25.5788 32.1216 25.5642 32.1474 25.5381C32.1733 25.512 32.1878 25.4766 32.1878 25.4397V13.5878C32.1878 13.5699 32.1842 13.5522 32.1774 13.5358C32.1705 13.5193 32.1604 13.5044 32.1477 13.4918C32.1351 13.4793 32.12 13.4694 32.1035 13.4627C32.0869 13.456 32.0692 13.4526 32.0514 13.4528C29.6675 13.4675 27.307 13.4647 24.97 13.4445C24.1564 13.4372 23.5259 13.5102 23.0787 13.6635C22.1329 13.9876 21.4547 14.6831 21.0443 15.7499C19.8192 18.9321 18.5722 22.1726 17.3031 25.4714ZM43.0062 14.3603C42.3822 13.7764 41.5475 13.4555 40.6825 13.4569C38.6778 13.4578 36.6039 13.4583 34.4605 13.4583C34.4423 13.4583 34.4248 13.4656 34.4118 13.4785C34.3989 13.4914 34.3917 13.5089 34.3917 13.5272V25.4053C34.3917 25.5201 34.4491 25.5774 34.5639 25.5774H49.9926L50.0109 25.5725L50.0241 25.5589L50.0285 25.5405L50.0229 25.5224C47.9815 22.2254 45.925 18.8821 43.8533 15.4924C43.5301 14.9635 43.2477 14.5862 43.0062 14.3603Z" fill="#1A4D6A"/>
<path d="M18.9643 32.1245C18.9643 32.1413 18.9576 32.1574 18.9458 32.1693C18.9339 32.1812 18.9178 32.1879 18.901 32.1879H14.6199C14.6031 32.1879 14.5869 32.1812 14.5751 32.1693C14.5632 32.1574 14.5565 32.1413 14.5565 32.1245V30.0477C14.5565 30.0394 14.5581 30.0312 14.5613 30.0235C14.5645 30.0158 14.5692 30.0088 14.5751 30.003C14.5809 29.9971 14.5879 29.9924 14.5956 29.9892C14.6033 29.986 14.6115 29.9844 14.6199 29.9844H18.901C18.9093 29.9844 18.9175 29.986 18.9252 29.9892C18.9329 29.9924 18.9399 29.9971 18.9458 30.003C18.9516 30.0088 18.9563 30.0158 18.9595 30.0235C18.9627 30.0312 18.9643 30.0394 18.9643 30.0477V32.1245Z" fill="#1A4D6A"/>
<path d="M36.5956 32.1176C36.5956 32.1363 36.5882 32.1541 36.575 32.1673C36.5618 32.1805 36.544 32.1879 36.5253 32.1879H32.258C32.2394 32.1879 32.2215 32.1805 32.2083 32.1673C32.1952 32.1541 32.1878 32.1363 32.1878 32.1176V30.0546C32.1878 30.036 32.1952 30.0181 32.2083 30.005C32.2215 29.9918 32.2394 29.9844 32.258 29.9844H36.5253C36.544 29.9844 36.5618 29.9918 36.575 30.005C36.5882 30.0181 36.5956 30.036 36.5956 30.0546V32.1176Z" fill="#1A4D6A"/>
<path d="M10.6019 48.6121C9.94987 48.5698 9.33415 48.343 8.7547 47.9317C6.20643 46.1263 6.18577 42.3253 8.85801 40.6148C10.004 39.8812 11.2373 39.715 12.5578 40.1163C12.6194 40.1346 12.6607 40.1135 12.6818 40.0529C13.8609 36.6513 17.2466 34.8252 20.7357 35.741C20.7917 35.7557 20.833 35.7378 20.8597 35.6873C21.272 34.9004 21.8257 34.2284 22.5209 33.6711C25.8033 31.0448 30.5059 32.0157 32.5115 35.6969C32.5221 35.7157 32.5387 35.7305 32.5587 35.7387C32.5787 35.7469 32.6009 35.7482 32.6217 35.7424C35.8242 34.821 39.1108 36.4833 40.4414 39.4566C40.5337 39.6604 40.6067 39.8615 40.6825 40.0694C40.6999 40.1172 40.733 40.1337 40.7816 40.119C43.5544 39.2845 46.3066 41.1505 46.4994 44.0371C46.6247 45.9266 45.5352 47.5971 43.8189 48.3655C43.4736 48.5207 43.1205 48.6047 42.7596 48.6176C42.7495 48.6185 42.7445 48.624 42.7445 48.6341L42.7459 48.6699L42.7541 48.6795C43.5007 48.7236 44.2744 48.731 45.0751 48.7016C45.4241 48.6887 45.7221 48.7452 45.9691 48.871C46.4264 49.1037 46.5132 49.5706 46.5132 50.098C46.5141 50.7416 46.5132 51.3705 46.5104 51.9848C46.4925 57.4356 43.5255 62.2103 38.6948 64.7594C38.6507 64.7824 38.6259 64.8191 38.6204 64.8696C38.2999 68.0949 37.9909 71.1771 37.6934 74.116C37.6484 74.5585 37.4629 74.8596 37.1369 75.0194C36.9542 75.1103 36.6544 75.1557 36.2374 75.1557C29.7561 75.1557 23.2752 75.1557 16.7948 75.1557C16.153 75.1557 15.7135 74.6999 15.6529 74.0939C15.3398 70.9145 15.0322 67.836 14.7301 64.8586C14.7245 64.8063 14.6984 64.7682 14.6515 64.7443C10.4903 62.5973 7.74366 58.726 7.00811 54.1566C6.78772 52.7863 6.83042 51.2673 6.85108 49.8336C6.86348 48.8971 7.60729 48.6727 8.42825 48.703C9.16472 48.7305 9.88329 48.7227 10.5839 48.6795C10.5839 48.6795 10.5954 48.6763 10.5991 48.6699L10.6143 48.6327C10.6207 48.6199 10.6165 48.613 10.6019 48.6121ZM15.5662 44.307H13.5523C13.4982 44.307 13.4683 44.2799 13.4628 44.2258C13.3508 43.1846 12.8136 42.5066 11.8512 42.1917C11.0605 41.9314 10.0894 42.2481 9.57428 42.8871C8.40759 44.3318 9.347 46.5132 11.2603 46.5119C21.1623 46.5082 31.4086 46.5086 41.9993 46.5132C44.2762 46.5132 45.2142 43.6473 43.2349 42.4258C42.5838 42.0227 41.8721 41.9957 41.0998 42.3445C41.0181 42.3822 40.9749 42.446 40.9703 42.536C40.9354 43.264 40.7674 43.987 40.4662 44.705L40.4571 44.7188L40.4431 44.7279L40.4264 44.7308L40.4097 44.727L38.5226 43.9062C38.4666 43.8824 38.4492 43.8415 38.4703 43.7837C38.9974 42.3679 38.8881 41.0426 38.1425 39.8078C36.6713 37.3702 33.2773 36.9818 31.2731 38.9994C30.4632 39.8137 30.0339 40.8172 29.9852 42.0099C29.9825 42.0723 29.9499 42.1035 29.8874 42.1035H27.8516C27.7956 42.1035 27.7685 42.0755 27.7703 42.0195C27.8594 39.8408 28.7653 38.0918 30.488 36.7725C30.5076 36.7576 30.5211 36.7361 30.5259 36.712C30.5307 36.6879 30.5266 36.6629 30.5142 36.6417C28.1725 32.6561 22.2564 34.339 22.2784 38.8809C22.2821 39.7706 22.5562 40.5974 23.1008 41.3612C23.1375 41.4136 23.1302 41.459 23.0787 41.4976L21.4465 42.7219C21.4033 42.7549 21.3666 42.749 21.3363 42.704C20.3069 41.2175 19.9051 39.6347 20.131 37.9555C20.1341 37.933 20.1287 37.9102 20.116 37.8914C20.1033 37.8726 20.0841 37.8591 20.0621 37.8536C17.5276 37.198 15.259 38.7487 14.657 41.2428C14.6405 41.3135 14.6332 41.386 14.635 41.4604C14.6359 41.5024 14.6504 41.543 14.6763 41.5761C15.3017 42.3657 15.6281 43.2452 15.6557 44.2147C15.6575 44.2762 15.6277 44.307 15.5662 44.307ZM39.9014 48.7938C39.9014 48.7727 39.893 48.7523 39.878 48.7374C39.8631 48.7224 39.8427 48.714 39.8216 48.714H13.5344C13.5132 48.714 13.4929 48.7224 13.4779 48.7374C13.463 48.7523 13.4545 48.7727 13.4545 48.7938V50.8376C13.4545 50.8588 13.463 50.8791 13.4779 50.8941C13.4929 50.909 13.5132 50.9174 13.5344 50.9174H39.8216C39.8427 50.9174 39.8631 50.909 39.878 50.8941C39.893 50.8791 39.9014 50.8588 39.9014 50.8376V48.7938ZM13.5661 53.1815C13.5645 53.167 13.5578 53.1535 13.5472 53.1434C13.5367 53.1333 13.5229 53.1273 13.5083 53.1264C13.2199 53.1136 12.9118 53.1136 12.584 53.1264C11.8471 53.1567 11.2699 52.7697 11.2534 51.9916C11.247 51.6685 11.2474 51.3439 11.2548 51.018C11.2566 50.951 11.224 50.9174 11.157 50.9174H9.14452C9.09126 50.9174 9.06325 50.9441 9.0605 50.9973C8.87316 54.6156 9.954 57.7046 12.303 60.2643C12.9375 60.9557 13.6387 61.5538 14.4064 62.0588L14.4217 62.0632L14.437 62.0588L14.4477 62.0469L14.4504 62.0312L13.5661 53.1815ZM42.0916 52.1404C42.0585 52.7959 41.4194 53.1457 40.834 53.1278C40.5117 53.1177 40.1893 53.1154 39.867 53.1209C39.8193 53.1218 39.7931 53.1462 39.7885 53.1939L38.9083 61.9996C38.9019 62.0629 38.9253 62.0767 38.9786 62.0409C39.5764 61.6433 40.1195 61.2031 40.6081 60.7202C43.2519 58.1081 44.4819 54.8686 44.2982 51.0015C44.2955 50.9454 44.2661 50.9174 44.2101 50.9174H42.1784C42.1242 50.9174 42.098 50.9445 42.0998 50.9987C42.1136 51.3816 42.1109 51.7621 42.0916 52.1404ZM32.2621 61.939C32.8503 61.939 33.2691 62.505 33.2856 63.0338C33.2948 63.3322 33.2943 63.648 33.2842 63.9813C33.2824 64.0465 33.3136 64.0759 33.3779 64.0695C34.4422 63.9621 35.4808 63.7174 36.4937 63.3354C36.5396 63.318 36.5648 63.2849 36.5694 63.2363L37.5763 53.1664L37.5749 53.1494L37.5664 53.1346L37.5522 53.1245L37.535 53.1209H15.8623C15.8035 53.1209 15.7769 53.1498 15.7824 53.2077L16.7852 63.2363C16.7898 63.2776 16.8114 63.3056 16.8499 63.3203C17.8784 63.7151 18.9221 63.9648 19.9809 64.0695C20.035 64.075 20.0626 64.0502 20.0635 63.9951C20.0699 63.7444 20.0686 63.4911 20.0594 63.2349C20.0332 62.483 20.4657 61.9348 21.2467 61.9348C24.9686 61.9339 28.6404 61.9353 32.2621 61.939ZM31.0858 64.1989C31.0858 64.1828 31.0794 64.1674 31.0681 64.1561C31.0567 64.1447 31.0413 64.1383 31.0252 64.1383H22.3308C22.3147 64.1383 22.2993 64.1447 22.2879 64.1561C22.2766 64.1674 22.2702 64.1828 22.2702 64.1989V66.2812C22.2702 66.2973 22.2766 66.3127 22.2879 66.3241C22.2993 66.3354 22.3147 66.3418 22.3308 66.3418H31.0252C31.0413 66.3418 31.0567 66.3354 31.0681 66.3241C31.0794 66.3127 31.0858 66.2973 31.0858 66.2812V64.1989ZM33.2911 67.3912C33.2939 68.0523 32.8021 68.5453 32.1451 68.5453C28.6014 68.5462 24.9847 68.5457 21.2949 68.5439C20.5621 68.5439 20.069 68.1266 20.0663 67.3485C20.0644 67.0474 20.0649 66.7205 20.0676 66.368C20.0676 66.3083 20.0383 66.2762 19.9795 66.2716C19.0125 66.1986 18.0648 66.0223 17.1364 65.7496C17.0685 65.7294 17.0377 65.7547 17.0442 65.8254L17.7535 72.9164C17.7563 72.9403 17.7692 72.9522 17.7921 72.9522H35.5281C35.5472 72.9524 35.5656 72.9454 35.5799 72.9327C35.5941 72.9199 35.6032 72.9024 35.6052 72.8834L36.3146 65.7923C36.3154 65.7849 36.3143 65.7775 36.3115 65.7706C36.3086 65.7637 36.3041 65.7577 36.2982 65.7529C36.2924 65.7481 36.2854 65.7449 36.2779 65.7433C36.2705 65.7418 36.2627 65.7421 36.2554 65.7441C35.3178 66.0241 34.3568 66.1995 33.3724 66.2702C33.3173 66.2748 33.2897 66.3042 33.2897 66.3583C33.2888 66.7237 33.2893 67.068 33.2911 67.3912Z" fill="#1A4D6A"/>
<path d="M64.1389 45.4074C64.1389 46.8669 63.559 48.2667 62.5268 49.2987C61.4945 50.3308 60.0945 50.9106 58.6347 50.9106C57.1748 50.9106 55.7748 50.3308 54.7426 49.2987C53.7103 48.2667 53.1304 46.8669 53.1304 45.4074C53.1304 43.9478 53.7103 42.5481 54.7426 41.516C55.7748 40.484 57.1748 39.9042 58.6347 39.9042C60.0945 39.9042 61.4945 40.484 62.5268 41.516C63.559 42.5481 64.1389 43.9478 64.1389 45.4074ZM61.9378 45.4074C61.9378 44.5315 61.5898 43.6915 60.9703 43.0722C60.3509 42.4528 59.5107 42.1049 58.6347 42.1049C57.7586 42.1049 56.9185 42.4528 56.299 43.0722C55.6796 43.6915 55.3316 44.5315 55.3316 45.4074C55.3316 45.8411 55.417 46.2705 55.583 46.6712C55.749 47.0718 55.9923 47.4359 56.299 47.7426C56.6057 48.0492 56.9699 48.2925 57.3706 48.4585C57.7714 48.6244 58.2009 48.7098 58.6347 48.7098C59.0684 48.7098 59.498 48.6244 59.8987 48.4585C60.2995 48.2925 60.6636 48.0492 60.9703 47.7426C61.277 47.4359 61.5203 47.0718 61.6863 46.6712C61.8523 46.2705 61.9378 45.8411 61.9378 45.4074Z" fill="#1A4D6A"/>
<path d="M67.4613 65.2938C67.3649 62.7584 65.6156 60.9323 63.0742 60.8359C61.548 60.778 61.5645 58.6517 63.1637 58.6186C65.296 58.5732 66.8842 57.0899 67.3621 55.093C67.4613 54.6813 67.3635 54.0726 67.5881 53.7021C68.2175 52.6596 69.6322 53.1044 69.6652 54.3149C69.7272 56.6506 71.5275 58.5043 73.8816 58.6172C74.2048 58.6328 74.4495 58.6902 74.6158 58.7894C75.5359 59.3403 75.215 60.7987 74.102 60.8262C71.5551 60.8882 69.7438 62.7281 69.6501 65.247C69.5964 66.682 67.5137 66.6778 67.4613 65.2938ZM70.3581 59.6859C69.6565 59.2122 69.0679 58.6232 68.5922 57.919C68.588 57.9126 68.5823 57.9074 68.5756 57.9038C68.5689 57.9002 68.5613 57.8983 68.5536 57.8983C68.5458 57.8983 68.5381 57.9002 68.5312 57.9038C68.5242 57.9074 68.5182 57.9126 68.5137 57.919C68.0343 58.6223 67.4462 59.2113 66.7492 59.6859C66.7418 59.691 66.7358 59.6978 66.7316 59.7057C66.7274 59.7136 66.7252 59.7224 66.7252 59.7314C66.7252 59.7403 66.7274 59.7491 66.7316 59.7571C66.7358 59.765 66.7418 59.7718 66.7492 59.7768C67.4462 60.2487 68.0348 60.8386 68.5151 61.5465C68.5195 61.5526 68.5253 61.5576 68.532 61.561C68.5387 61.5645 68.5461 61.5663 68.5535 61.5663C68.561 61.5663 68.5683 61.5645 68.5748 61.561C68.5812 61.5576 68.5868 61.5526 68.5908 61.5465C69.0693 60.8359 69.6583 60.2464 70.3581 59.7782C70.3656 59.7733 70.3718 59.7665 70.376 59.7586C70.3803 59.7507 70.3825 59.7418 70.3825 59.7327C70.3825 59.7236 70.3803 59.7145 70.376 59.7064C70.3718 59.6982 70.3656 59.6912 70.3581 59.6859Z" fill="#1A4D6A"/>
<path d="M52.4637 70.8465C52.3425 70.7887 52.1786 70.7515 52.045 70.7515C50.0238 70.7433 48.0206 70.7451 46.0352 70.757C45.2565 70.7616 44.6853 70.6969 44.3217 70.5629C41.3712 69.4707 41.3726 65.3613 44.3589 64.3146C44.7069 64.1925 45.1743 64.1314 45.7611 64.1314C50.9127 64.1388 55.934 64.1406 60.8248 64.1369C62.6499 64.1342 64.0797 65.5692 64.1376 67.3871C64.1582 68.033 64.5921 68.537 65.2671 68.5425C67.3231 68.5554 69.3406 68.5526 71.3195 68.5343C72.0193 68.5278 72.5671 68.5967 72.9628 68.7408C75.0455 69.5024 75.8789 72.0722 74.4643 73.8736C74.0418 74.4098 73.5225 74.7788 72.9064 74.9808C72.5188 75.1075 71.9596 75.1695 71.2286 75.1667C66.549 75.1456 61.7803 75.1456 56.9225 75.1667C56.2632 75.1695 55.7494 75.1066 55.3812 74.9781C54.3003 74.5989 53.5868 73.846 53.2406 72.7195C53.0188 71.9992 53.3274 71.2597 52.4637 70.8465ZM51.9403 68.5453C53.9059 68.5467 55.242 69.9583 55.3398 71.9028C55.3715 72.5363 55.8798 72.9605 56.5107 72.9591C61.6586 72.9472 66.7322 72.9472 71.7314 72.9591C73.3499 72.9633 73.3637 70.746 71.7479 70.746C69.7736 70.746 67.7111 70.7492 65.5605 70.7556C64.6169 70.7584 63.8111 70.5684 63.099 69.9486C62.3625 69.3059 61.9782 68.493 61.9461 67.5096C61.924 66.8156 61.4695 66.3377 60.7628 66.3391C55.4422 66.3436 50.353 66.3436 45.4952 66.3391C43.9222 66.3377 43.9442 68.5508 45.4746 68.548C47.5977 68.5444 49.7529 68.5435 51.9403 68.5453Z" fill="#1A4D6A"/>
</svg>