<svg width="30" height="43" viewBox="0 0 30 43" fill="none" xmlns="http://www.w3.org/2000/svg">
<path d="M15.0577 38.5739H6.96247C6.29616 38.5739 5.74021 38.0323 5.7308 37.366L5.53923 26.2997C5.53455 26.2088 5.45298 23.7355 7.37497 23.1748C9.19136 22.6476 10.5239 23.8745 10.5814 23.9273C10.6102 23.9561 10.639 23.9848 10.658 24.0233L15.4893 31.4666C15.5421 31.5482 15.5708 31.6488 15.5708 31.7495V38.0618C15.5752 38.3443 15.3452 38.5743 15.0576 38.5743L15.0577 38.5739ZM8.29008 24.0756C8.09349 24.0756 7.88254 24.0997 7.66691 24.1665C6.52622 24.5022 6.57398 26.2513 6.57398 26.2707L6.76554 37.3516C6.76554 37.4569 6.85648 37.5431 6.96213 37.5431H14.5395L14.5402 31.8971L9.83361 24.6407C9.68015 24.5116 9.09074 24.0753 8.29006 24.0753L8.29008 24.0756Z" fill="currentColor" stroke="currentColor" stroke-width="0.5"/>
<path d="M19.9092 1.19031C19.5786 0.859661 11.2728 1.05624 10.3236 1.07529C8.44003 1.11842 3.85818 1.63595 1.96494 5.44155C1.91211 5.54687 0.713924 7.98637 1.06397 8.7005C1.13585 8.84426 1.34179 9.00238 1.50962 9.03114C2.3772 9.19897 3.55598 9.30896 5.02763 9.39555C5.88546 9.43868 6.07238 9.65431 6.10114 9.67337C6.07238 9.74525 6.05801 9.81713 6.05801 9.889V11.461C5.20018 11.5425 4.53851 12.266 4.53851 13.1479V14.7487C4.53851 15.0265 4.61039 15.2949 4.74445 15.5347C4.68227 15.5778 4.62944 15.6256 4.60069 15.7025C4.36098 16.1481 4.12629 16.5938 3.88658 17.0254C3.68064 17.3992 3.48406 17.7585 3.28748 18.1229C3.07184 18.5352 2.80339 18.9186 2.52055 19.3211C2.14678 19.8387 1.77769 20.3756 1.50927 20.9844C1.02517 22.0723 1.06362 23.1893 1.10675 24.2628L1.11644 24.5647C1.1355 25.1735 1.12614 25.7963 1.11644 26.4148C1.11644 26.7551 1.10675 27.1098 1.10675 27.4595V41.1097C1.10675 41.6897 1.58115 42.1544 2.1515 42.1544H17.6563C18.2363 42.1544 18.701 41.6894 18.701 41.1097L18.7013 31.7448C18.7013 31.5914 18.6916 31.4332 18.6823 31.2895C18.577 30.216 18.2988 29.7079 17.906 29.0034L17.6569 28.5481C17.4603 28.1837 16.9525 27.3883 16.3103 26.3863C14.9349 24.2246 12.8641 20.9656 12.5242 19.8203C12.2751 19.0055 12.3373 18.1138 12.3901 17.1748C12.4188 16.7626 12.4429 16.3457 12.4429 15.9431C12.4429 15.7753 12.371 15.6315 12.2463 15.5406C12.371 15.3009 12.4429 15.0324 12.4429 14.7546V13.1539C12.4429 12.3776 11.9157 11.716 11.2016 11.5194C11.1825 11.1262 11.1585 10.484 11.12 9.7605C11.1009 9.31485 11.5419 8.97451 12.1744 8.53824C12.2894 8.45667 12.3998 8.37042 12.5148 8.28917C12.6298 8.2076 12.7401 8.12134 12.8551 8.04946C12.812 9.17577 13.0229 10.8628 14.3649 12.3104C14.4702 12.4254 14.614 12.4782 14.7484 12.4782C14.8731 12.4782 14.9975 12.4351 15.0984 12.3441C15.3044 12.1475 15.3141 11.8169 15.1272 11.611C13.584 9.95744 13.8571 7.88694 13.9768 7.25908C14.1303 7.14407 14.2981 7.03375 14.4609 6.91874L14.9353 6.5881C15.1125 6.4634 15.2853 6.38216 15.4722 6.32934C15.9373 6.17588 16.4451 6.19527 17.0349 6.21432C17.2408 6.21432 17.4374 6.22402 17.6437 6.22402H19.5369C19.8244 6.22402 20.0544 5.98431 20.0544 5.70649L20.0531 1.55454C20.0628 1.42048 20.01 1.28608 19.9093 1.19047L19.9092 1.19031ZM15.4424 26.932C16.0415 27.8859 16.5687 28.7102 16.7459 29.0312L16.995 29.5056C17.3784 30.1766 17.5653 30.5169 17.6469 31.3795C17.666 31.5042 17.666 31.6192 17.666 31.7533V40.3273L17.6563 41.123L2.14208 41.1133L2.14275 27.4589C2.14275 27.1185 2.15244 26.7638 2.15244 26.4234C2.16214 25.7909 2.1715 25.1534 2.15244 24.5302L2.14275 24.2186C2.09962 23.217 2.07087 22.2729 2.45433 21.3956C2.69404 20.8781 3.02469 20.4131 3.36505 19.9146C3.66694 19.5024 3.96416 19.0664 4.21323 18.6013C4.40011 18.2369 4.5967 17.8775 4.79327 17.5135C4.98985 17.1634 5.18644 16.809 5.37331 16.4493H11.4028C11.3931 16.6649 11.3837 16.8856 11.3596 17.0915C11.2975 18.0838 11.2349 19.1091 11.5368 20.1111C11.9153 21.4009 13.952 24.607 15.4427 26.9315L15.4424 26.932ZM11.4069 13.1484V14.7491C11.4069 15.1229 11.105 15.4201 10.7262 15.4201H6.25938C5.87591 15.4201 5.5787 15.1182 5.5787 14.7491V13.1484C5.5787 12.7746 5.88059 12.4774 6.25938 12.4774H10.7072H10.7263C11.105 12.4727 11.4069 12.7746 11.4069 13.1484ZM14.8387 5.46071C14.6709 5.53258 14.5174 5.61416 14.3546 5.72916L13.8802 6.05044C13.6646 6.2039 13.4346 6.36203 13.2189 6.51548C12.7733 6.82707 12.3276 7.13365 11.896 7.45496C11.8051 7.52684 11.6901 7.59872 11.5844 7.68029C10.9231 8.13564 10.0315 8.7538 10.0844 9.81327C10.1131 10.4652 10.1465 11.0449 10.1659 11.438L7.09357 11.4374V9.97068C7.14639 9.74535 7.14639 9.43376 6.96887 9.13187C6.68135 8.66683 6.05815 8.40806 5.08529 8.35557C3.87742 8.29339 2.84234 8.20212 2.05632 8.07775C2.19038 7.5074 2.66512 6.33796 2.88543 5.90669C4.52928 2.60932 8.65616 2.15392 10.3525 2.11078C10.7262 2.10109 12.7729 2.08203 14.8434 2.08203V5.46071L14.8387 5.46071ZM19.0274 5.18289H17.652C17.4554 5.18289 17.2685 5.17319 17.0816 5.17319C16.6791 5.16349 16.2766 5.14444 15.8738 5.19225V2.07204C17.187 2.06234 18.3852 2.06234 19.0274 2.06234L19.0274 5.18289Z" fill="currentColor" stroke="currentColor" stroke-width="0.5"/>
<path d="M22.4908 3.03506C22.2033 3.03506 21.9492 2.80505 21.9492 2.51753C21.9492 2.23001 22.1552 2 22.438 2H22.4908C22.7783 2 23.0083 2.23001 23.0083 2.51753C23.0083 2.80505 22.7737 3.03506 22.4908 3.03506Z" fill="currentColor" stroke="currentColor" stroke-width="0.5"/>
<path d="M25.4436 3.03506C25.1561 3.03506 24.8779 2.80505 24.8779 2.51753C24.8779 2.23001 25.0601 2 25.3477 2H25.4436C25.7311 2 25.9611 2.23001 25.9611 2.51753C25.9611 2.80505 25.7311 3.03506 25.4436 3.03506Z" fill="currentColor" stroke="currentColor" stroke-width="0.5"/>
<path d="M28.3526 3.03506C28.0651 3.03506 27.811 2.80505 27.811 2.51753C27.811 2.23001 28.017 2 28.3048 2H28.3576C28.6452 2 28.8752 2.23001 28.8752 2.51753C28.8702 2.80505 28.6401 3.03506 28.3526 3.03506Z" fill="currentColor" stroke="currentColor" stroke-width="0.5"/>
<path d="M22.3574 6.03976C22.3333 6.03976 22.3096 6.03976 22.2855 6.03508C22.0027 5.99663 21.7774 5.73319 21.8158 5.45036C21.8543 5.16752 22.0936 4.96626 22.3718 5.00471L22.4246 5.00939C22.7074 5.04784 22.904 5.3066 22.8656 5.59411C22.8318 5.85287 22.6112 6.03976 22.3574 6.03976Z" fill="currentColor" stroke="currentColor" stroke-width="0.5"/>
<path d="M25.4435 6.04369C25.4194 6.04369 25.4004 6.04369 25.3763 6.03901C25.0935 6.00057 24.8444 5.73713 24.8825 5.45429C24.921 5.17145 25.1316 4.9702 25.4144 5.00363L25.5151 5.018C25.7979 5.05645 25.9992 5.31522 25.9607 5.59805C25.9229 5.85681 25.7023 6.04369 25.4435 6.04369Z" fill="currentColor" stroke="currentColor" stroke-width="0.5"/>
<path d="M28.487 6.03976C28.463 6.03976 28.4392 6.03976 28.4152 6.03508C28.1323 5.99663 27.907 5.73319 27.9454 5.45036C27.9839 5.16752 28.2233 4.96626 28.5014 5.00471L28.5542 5.00939C28.8371 5.04784 29.0337 5.3066 28.9952 5.59411C28.9618 5.8482 28.7411 6.03976 28.487 6.03976Z" fill="currentColor" stroke="currentColor" stroke-width="0.5"/>
</svg>
