<svg width="29" height="29" viewBox="0 0 29 29" fill="none" xmlns="http://www.w3.org/2000/svg">
<path d="M27.9982 13.9261C28.0468 12.6191 27.0829 11.4994 25.8107 11.3364L25.7899 11.3156H24.7568C24.573 10.7297 24.3338 10.1541 24.0494 9.59604L24.6525 8.99292C25.5746 7.97727 25.5122 6.38941 24.5278 5.46711L23.5745 4.5068C22.6421 3.50155 21.0576 3.44255 20.0349 4.38904L19.4559 4.97135C18.9048 4.68358 18.336 4.4478 17.7537 4.26065V3.41475C17.6984 2.03855 16.5194 0.949844 15.1848 1.00178H13.8362C12.46 0.953177 11.3055 2.0349 11.2499 3.43549V4.264C10.6639 4.45117 10.092 4.69033 9.54767 4.97469L8.95133 4.37496C8.4626 3.92082 7.82467 3.68841 7.15892 3.71286C6.49317 3.73705 5.87626 4.02144 5.43592 4.49977L4.47226 5.47048C3.97314 5.96961 3.69211 6.63198 3.68536 7.34243C3.68197 7.96999 3.93154 8.58009 4.36492 9.01684L4.94723 9.60279C4.65946 10.1609 4.42368 10.7364 4.23988 11.3224H3.40097C2.03152 11.3778 0.956865 12.5463 1.00181 13.9087V15.2608C0.949817 16.637 2.02452 17.8055 3.42177 17.8679H4.23988C4.42367 18.4572 4.66283 19.0327 4.94723 19.5875L4.3683 20.1734C3.88996 20.6554 3.64379 21.3209 3.69214 21.997C3.73374 22.6454 4.01111 23.2589 4.47564 23.72L5.42889 24.6733C5.88304 25.1656 6.49655 25.4498 7.1623 25.4742C7.8244 25.502 8.46576 25.2663 8.97186 24.7947L9.55079 24.2124C10.0847 24.4931 10.7019 24.7289 11.2808 24.9161V27.6688H12.3209V19.4524L12.0227 19.3102C10.9759 18.8111 10.1022 17.972 9.56116 16.9425C8.18831 14.325 9.17642 11.0835 11.7313 9.68634V15.1569H17.2747V9.69674C18.2558 10.2375 19.0567 11.0904 19.5384 12.1063C20.1589 13.4098 20.2354 14.8762 19.7498 16.2389C19.2678 17.5979 18.2833 18.69 16.9799 19.3105L16.6817 19.4527V27.6691H17.7218V24.913C18.3008 24.7258 18.9283 24.4934 19.4552 24.216L20.048 24.8157C20.5367 25.2699 21.1713 25.5023 21.8404 25.4778C22.5061 25.45 23.1196 25.1659 23.5634 24.6909L24.5133 23.7306C25.5118 22.7911 25.5705 21.2033 24.6347 20.1702L24.0524 19.5879C24.3401 19.0331 24.5759 18.4576 24.7597 17.8683H25.5986C26.9681 17.8129 28.0427 16.6444 27.9978 15.282V13.9299L27.9982 13.9261ZM25.5783 16.8244H23.9767L23.8727 17.2091C23.6647 17.9685 23.3595 18.7138 22.961 19.4245L22.7668 19.7677L23.883 20.8839C24.4274 21.4803 24.3892 22.4164 23.7895 22.9813L22.8154 23.9657C22.5518 24.2535 22.1915 24.4165 21.8031 24.4337C21.4184 24.4474 21.0437 24.3123 20.7734 24.0627L19.6363 22.9152L19.2896 23.1162C18.8146 23.3902 18.2668 23.6223 17.7192 23.8095V20.0965C19.1266 19.3371 20.1875 18.1031 20.7248 16.5847C21.3004 14.9622 21.2102 13.2114 20.4716 11.6584C19.8789 10.407 18.8768 9.36353 17.6461 8.71858C17.4137 8.60081 17.1504 8.57638 16.9042 8.65619C16.6547 8.73599 16.4535 8.90575 16.3323 9.14491C16.2629 9.28348 16.2283 9.42931 16.2283 9.57827V14.1127H12.7649V9.56787C12.7545 9.03391 12.3178 8.60756 11.7976 8.60756C11.6346 8.60756 11.4924 8.63875 11.3364 8.71856C8.19563 10.3722 6.98212 14.2793 8.63232 17.424C9.22503 18.5506 10.1544 19.4901 11.2706 20.0969V23.8133C10.7263 23.6227 10.1889 23.3903 9.70697 23.113L9.36019 22.9154L8.24029 24.042C7.95252 24.309 7.58153 24.4442 7.19343 24.4304C6.80506 24.4166 6.44813 24.2502 6.17072 23.9485L5.20342 22.9777C4.91903 22.6933 4.74927 22.319 4.72146 21.9205C4.69365 21.5391 4.83246 21.1682 5.09943 20.8978L6.22609 19.7571L6.0319 19.4139C5.63676 18.7136 5.3282 17.9683 5.12019 17.2022L5.0162 16.8174H3.4354C2.6311 16.7828 2.00354 16.0963 2.03134 15.2711V13.8809C2.00353 13.0696 2.63107 12.3833 3.41119 12.3521H5.0128L5.11678 11.9673C5.32476 11.208 5.62994 10.4627 6.0285 9.75199L6.21905 9.40884L5.0854 8.26813C4.84261 8.02534 4.70743 7.68582 4.70743 7.33903C4.71081 6.90567 4.8842 6.50012 5.19277 6.19157L6.17388 5.20347C6.43747 4.91908 6.79778 4.75271 7.18619 4.73892C7.57794 4.72514 7.94554 4.86031 8.21589 5.10988L9.34954 6.25059L9.69632 6.05302C10.3896 5.65787 11.1282 5.34931 11.8943 5.13431L12.2756 5.02694V3.43914C12.3068 2.63143 12.9967 2.00053 13.8044 2.02468H15.1877C15.9783 2.00049 16.6679 2.63142 16.6991 3.41834V5.02694L17.0805 5.13092C17.8398 5.34228 18.5781 5.65085 19.2784 6.04963L19.6252 6.2472L20.7451 5.12055C21.3345 4.5762 22.2565 4.61102 22.8149 5.21075L23.796 6.19885C24.382 6.74997 24.4199 7.68271 23.893 8.26161L22.756 9.39866L22.9501 9.74181C23.3489 10.4492 23.6539 11.1945 23.8619 11.9572L23.9658 12.3419H25.5503C26.3546 12.3765 26.9822 13.063 26.951 13.8915V15.2818C26.9788 16.0931 26.3512 16.7794 25.5711 16.8106L25.5783 16.8244Z" fill="currentColor" stroke="currentColor"/>
</svg>
