<svg width="24" height="24" viewBox="0 0 24 24" fill="none" xmlns="http://www.w3.org/2000/svg">
<path d="M16 2H6L5 14L1 15V22H16V8.66667V2Z" stroke="currentColor" stroke-width="1.6"/>
<path d="M23 15H16V22H23V17.3333V15Z" stroke="currentColor" stroke-width="1.6"/>
<path d="M20 17V19" stroke="currentColor" stroke-width="1.6"/>
<path d="M10 5V7" stroke="currentColor" stroke-width="1.6"/>
<path d="M10 9V11" stroke="currentColor" stroke-width="1.6"/>
<path d="M10 13V15" stroke="currentColor" stroke-width="1.6"/>
<path d="M10 17V19" stroke="currentColor" stroke-width="1.6"/>
<path d="M5 17V19" stroke="currentColor" stroke-width="1.6"/>
<path d="M23 10C23 11.1046 22.1046 12 21 12C19.8954 12 19 11.1046 19 10C19 8.89543 19.8954 8 21 8C22.1046 8 23 8.89543 23 10Z" stroke="currentColor" stroke-width="1.6"/>
<path d="M21 12L21 15" stroke="currentColor" stroke-width="1.6"/>
</svg>
