<svg width="27" height="27" viewBox="0 0 27 27" fill="none" xmlns="http://www.w3.org/2000/svg">
<path d="M25.1996 4.19986H22.4997L20.5797 1.49999C19.9197 0.570049 18.8098 0 17.6398 0H9.35987C8.18988 0 7.10989 0.570049 6.41995 1.49999L4.49996 4.19986H1.80009C0.810101 4.19986 0 5.00991 0 5.99995V25.1998C0 26.1898 0.810047 26.9999 1.80009 26.9999H25.1999C26.1899 26.9999 27 26.1898 27 25.1998L26.9998 5.99995C26.9998 5.00996 26.1897 4.19986 25.1997 4.19986H25.1996ZM7.37973 2.18988C7.82964 1.55977 8.54972 1.19988 9.3296 1.19988H17.6395C18.4195 1.19988 19.1395 1.55982 19.5894 2.18988L21.0294 4.19986H5.96947L7.37973 2.18988ZM1.19978 5.9999C1.19978 5.66989 1.46973 5.39996 1.79972 5.39996H12.8996V22.1998L1.19972 22.1996L1.19978 5.9999ZM25.7996 25.1997C25.7996 25.5298 25.5296 25.7997 25.1996 25.7997L1.79983 25.7999C1.46982 25.7999 1.19988 25.5299 1.19988 25.2V23.3999H25.7997L25.7996 25.1997ZM25.7996 22.1998H14.0997V5.3999H25.1996C25.5296 5.3999 25.7995 5.66985 25.7995 5.99984L25.7996 22.1998Z" fill="currentColor"/>
<path d="M5.09968 8.3998H10.4996C10.8296 8.3998 11.0996 8.12985 11.0996 7.79986C11.0996 7.46985 10.8296 7.19992 10.4996 7.19992L5.09968 7.19971C3.92969 7.19971 2.99976 8.12965 2.99976 9.29964C2.99976 10.4696 3.92969 11.3996 5.09968 11.3996H8.99971C9.50968 11.3996 9.89975 11.7896 9.89975 12.2996C9.89975 12.7797 9.50969 13.1997 8.99971 13.1997H5.09968C3.92969 13.1997 2.99976 14.1296 2.99976 15.2996C2.99976 16.4696 3.92969 17.3995 5.09968 17.3995H8.99971C9.50968 17.3995 9.89975 17.7896 9.89975 18.2996C9.89975 18.7796 9.50969 19.1996 8.99971 19.1996H3.59975C3.26974 19.1996 2.99981 19.4696 2.99981 19.7996C2.99981 20.1295 3.26976 20.3995 3.59975 20.3995H8.99971C10.1697 20.3995 11.0996 19.4696 11.0996 18.2996C11.0996 17.1296 10.1697 16.1996 8.99971 16.1996H5.09968C4.58972 16.1996 4.19964 15.7797 4.19964 15.2996C4.19964 14.7896 4.5897 14.3995 5.09968 14.3995H8.99971C10.1697 14.3995 11.0996 13.4696 11.0996 12.2996C11.0996 11.1296 10.1697 10.1997 8.99971 10.1997H5.09968C4.58972 10.1997 4.19964 9.7797 4.19964 9.29964C4.19964 8.78967 4.5897 8.3998 5.09968 8.3998Z" fill="currentColor"/>
<path d="M17.9996 11.3998H21.8996C23.0696 11.3998 23.9995 10.4698 23.9995 9.29985C23.9995 8.12986 23.0696 7.19992 21.8996 7.19992L16.4997 7.19971C16.1696 7.19971 15.8997 7.46966 15.8997 7.79965C15.8997 8.12964 16.1697 8.39959 16.4997 8.39959H21.8996C22.4096 8.39959 22.7997 8.78965 22.7997 9.29964C22.7997 9.77968 22.4096 10.1997 21.8996 10.1997H17.9996C16.8296 10.1997 15.8997 11.1296 15.8997 12.2996C15.8997 13.4696 16.8296 14.3995 17.9996 14.3995H21.8996C22.4096 14.3995 22.7997 14.7896 22.7997 15.2996C22.7997 15.7796 22.4096 16.1996 21.8996 16.1996H17.9996C16.8296 16.1996 15.8997 17.1296 15.8997 18.2996C15.8997 19.4696 16.8296 20.3995 17.9996 20.3995H23.3995C23.7296 20.3995 23.9995 20.1295 23.9995 19.7996C23.9995 19.4696 23.7295 19.1996 23.3995 19.1996H17.9996C17.4896 19.1996 17.0995 18.7796 17.0995 18.2996C17.0995 17.7896 17.4896 17.3995 17.9996 17.3995H21.8996C23.0696 17.3995 23.9995 16.4696 23.9995 15.2996C23.9995 14.1296 23.0696 13.1997 21.8996 13.1997H17.9996C17.4896 13.1997 17.0995 12.7797 17.0995 12.2996C17.0995 11.7896 17.4896 11.3998 17.9996 11.3998Z" fill="currentColor"/>
</svg>
