<svg width="56" height="56" viewBox="0 0 56 56" fill="none" xmlns="http://www.w3.org/2000/svg">
<path d="M52.657 26.6404L47.25 29.3439L40.25 15.9385L45.712 13.2075C46.1224 13.0023 46.5969 12.9665 47.0334 13.1077C47.47 13.249 47.8335 13.556 48.0459 13.9627L53.4256 24.2652C53.5332 24.4712 53.5986 24.6965 53.6182 24.9281C53.6377 25.1597 53.6109 25.3928 53.5394 25.614C53.4678 25.8351 53.3529 26.0397 53.2014 26.216C53.0499 26.3922 52.8649 26.5365 52.657 26.6404V26.6404Z" stroke="currentColor" stroke-width="1.3" stroke-linecap="round" stroke-linejoin="round"/>
<path d="M8.75034 29.1094L3.34335 26.4059C3.13549 26.302 2.9504 26.1577 2.7989 25.9815C2.64741 25.8052 2.53253 25.6006 2.46098 25.3795C2.38943 25.1584 2.36264 24.9252 2.38217 24.6936C2.4017 24.462 2.46716 24.2367 2.57473 24.0307L7.95443 13.7282C8.1668 13.3215 8.53038 13.0145 8.9669 12.8732C9.40341 12.732 9.87794 12.7678 10.2883 12.973L15.7503 15.704L8.75034 29.1094Z" stroke="currentColor" stroke-width="1.3" stroke-linecap="round" stroke-linejoin="round"/>
<path d="M47.25 29.344L43.75 33.4385L35.7006 41.4879C35.4869 41.7016 35.2216 41.8563 34.9303 41.9369C34.6391 42.0176 34.3319 42.0215 34.0387 41.9482L21.3607 38.7787C21.1229 38.7192 20.9002 38.6105 20.7071 38.4595L8.75 29.1095" stroke="currentColor" stroke-width="1.3" stroke-linecap="round" stroke-linejoin="round"/>
<path d="M43.7498 33.4385L34.1248 26.4385L31.3248 28.5385C30.1132 29.4472 28.6394 29.9385 27.1248 29.9385C25.6103 29.9385 24.1365 29.4472 22.9249 28.5385L21.7391 27.6491C21.5385 27.4987 21.3726 27.3069 21.2526 27.0868C21.1325 26.8666 21.0612 26.6233 21.0435 26.3732C21.0257 26.1231 21.0619 25.8721 21.1495 25.6372C21.2372 25.4023 21.3743 25.189 21.5516 25.0117L30.1123 16.451C30.2748 16.2885 30.4677 16.1596 30.68 16.0717C30.8923 15.9837 31.1199 15.9385 31.3497 15.9385H40.2498" stroke="currentColor" stroke-width="1.3" stroke-linecap="round" stroke-linejoin="round"/>
<path d="M15.876 15.704L27.1022 12.4311C27.5033 12.3142 27.9329 12.3446 28.3134 12.5168L35.8753 15.9384" stroke="currentColor" stroke-width="1.3" stroke-linecap="round" stroke-linejoin="round"/>
<path d="M24.5 46.5635L17.907 44.9152C17.6395 44.8483 17.3915 44.7192 17.1834 44.5382L12.25 40.25" stroke="currentColor" stroke-width="1.3" stroke-linecap="round" stroke-linejoin="round"/>
</svg>
