<svg xmlns="http://www.w3.org/2000/svg" width="16" height="19" viewBox="0 0 16 19" fill="none">
  <path fill-rule="evenodd" clip-rule="evenodd" d="M14.667 7.91634V15.833C14.667 16.7452 14.1018 17.4163 13.3337 17.4163H6.66699C5.8988 17.4163 5.33366 16.7452 5.33366 15.833V12.6663H2.66699C1.8988 12.6663 1.33366 11.9952 1.33366 11.083V3.16634C1.33366 2.25412 1.8988 1.58301 2.66699 1.58301H9.33366C10.1018 1.58301 10.667 2.25412 10.667 3.16634V6.33301H13.3337C14.1018 6.33301 14.667 7.00412 14.667 7.91634ZM9.33366 6.33301V3.16634H2.66699V11.083H5.33366V7.91634C5.33366 7.00412 5.8988 6.33301 6.66699 6.33301H9.33366ZM13.3337 7.91634H6.66699V15.833H13.3337V7.91634Z" fill="#1A4D6A"/>
</svg>