<svg width="34" height="24" viewBox="0 0 34 24" fill="none" xmlns="http://www.w3.org/2000/svg">
<rect width="34" height="24" rx="2.4" fill="#FFA200"/>
<path fill-rule="evenodd" clip-rule="evenodd" d="M29.7151 11.8927H29.4513V10.5001H29.7151C30.2957 10.5001 30.5595 10.758 30.5595 11.1707C30.5595 11.6349 30.2957 11.8927 29.7151 11.8927ZM31.5096 11.119C31.5096 10.2422 30.9291 9.77798 29.8736 9.77798H28.5542V14.3684H29.4514V12.5116H29.5569L30.7708 14.3684H31.879L30.4541 12.46C31.0874 12.3569 31.5624 11.7895 31.5096 11.119ZM25.4402 14.3684H27.9734V13.5947H26.3374V12.3569H27.9207V11.5832H26.3374V10.5516H27.9734V9.77798H25.4402V14.3684ZM22.8014 12.8727L21.5876 9.77798H20.6376L22.5903 14.4716H23.0653L25.018 9.77798H24.068L22.8014 12.8727ZM12.0881 12.0991C12.0881 13.3885 13.1436 14.4716 14.463 14.4716C14.8852 14.4716 15.2546 14.3685 15.6241 14.2137V13.1822C15.3602 13.4917 14.9908 13.698 14.5686 13.698C13.7241 13.698 13.0381 13.079 13.0381 12.2538V12.1506C12.9853 11.3254 13.6714 10.6033 14.5158 10.5517C14.938 10.5517 15.3602 10.758 15.6241 11.0675V10.0359C15.3074 9.82962 14.8852 9.77805 14.5158 9.77805C13.1436 9.67489 12.0881 10.758 12.0881 12.0991ZM10.4522 11.5317C9.92442 11.3254 9.76609 11.2222 9.76609 10.9643C9.81886 10.6549 10.0827 10.397 10.3994 10.4486C10.6633 10.4486 10.9272 10.6033 11.1383 10.8096L11.6132 10.1907C11.2438 9.8812 10.7688 9.67489 10.2938 9.67489C9.55499 9.62331 8.92168 10.1907 8.8689 10.9128V10.9643C8.8689 11.5833 9.13278 11.9443 9.97719 12.2022C10.1883 12.2538 10.3994 12.3569 10.6105 12.4601C10.7688 12.5632 10.8744 12.718 10.8744 12.9243C10.8744 13.2853 10.5577 13.5948 10.2411 13.5948H10.1883C9.76609 13.5948 9.39666 13.3369 9.23833 12.9759L8.6578 13.5432C8.97445 14.1106 9.60776 14.4201 10.2411 14.4201C11.0855 14.4716 11.7716 13.8527 11.8243 13.0275V12.8727C11.7716 12.2538 11.5077 11.9443 10.4522 11.5317ZM7.39075 14.3684H8.28793V9.77798H7.39075V14.3684ZM5.59647 13.2338C5.27982 13.4916 4.80484 13.6464 4.38263 13.5948H4.11876V10.5517H4.38263C4.80484 10.5001 5.27982 10.6549 5.59647 10.9127C5.91313 11.2222 6.07145 11.6348 6.07145 12.0475C6.07145 12.5117 5.91313 12.9243 5.59647 13.2338ZM4.54107 9.77798H3.22168V14.3684H4.54107C5.1216 14.42 5.70213 14.2137 6.17711 13.8526C6.70487 13.3884 7.02152 12.7695 7.02152 12.099C7.0743 10.8611 6.07156 9.82956 4.80495 9.77798H4.54107ZM18.3155 9.67163C16.9961 9.67163 15.8878 10.7032 15.8878 12.0442C15.8878 13.3337 16.9433 14.4168 18.3155 14.4684C19.6876 14.52 20.7431 13.4368 20.7959 12.0958C20.7431 10.7548 19.6876 9.67163 18.3155 9.67163Z" fill="white"/>
</svg>
