<svg width="48" height="28" viewBox="0 0 48 28" fill="none" xmlns="http://www.w3.org/2000/svg">
<g clip-path="url(#clip0_18078_9122)">
<path fill-rule="evenodd" clip-rule="evenodd" d="M14.9648 22.1576C15.0718 22.1568 15.1765 22.188 15.2658 22.2471C15.355 22.3063 15.4247 22.3908 15.466 22.4898C15.5073 22.5888 15.5183 22.698 15.4976 22.8033C15.477 22.9086 15.4255 23.0054 15.3499 23.0813C15.2743 23.1572 15.1779 23.2088 15.0729 23.2296C14.968 23.2503 14.8593 23.2393 14.7606 23.1978C14.662 23.1564 14.5778 23.0864 14.5189 22.9969C14.46 22.9073 14.4289 22.8021 14.4297 22.6948C14.4297 22.5523 14.4861 22.4157 14.5864 22.3149C14.6868 22.2142 14.8229 22.1576 14.9648 22.1576ZM30.9805 9.14765C32.3418 9.00695 33.6541 8.5607 34.8203 7.84195C35.3047 7.55691 35.7272 7.17718 36.0627 6.72524C36.3981 6.27331 36.6398 5.75837 36.7734 5.21095C36.7827 5.16425 36.8012 5.11988 36.8277 5.08037C36.8541 5.04086 36.8882 5.00701 36.9277 4.98077C36.9673 4.95452 37.0117 4.9364 37.0583 4.92745C37.1049 4.91851 37.1528 4.91891 37.1992 4.92863C37.2604 4.94158 37.3172 4.96998 37.3644 5.01115C37.4116 5.05232 37.4475 5.10489 37.4688 5.16389C37.7805 6.20737 38.3287 7.16424 39.0703 7.95958C39.6963 8.58729 40.5047 8.99919 41.3789 9.13589C41.4315 8.79749 41.4498 8.45461 41.4336 8.1125C41.4123 7.68743 41.3308 7.26758 41.1914 6.86562C40.8315 5.81728 40.1472 4.91189 39.2383 4.28166C38.3205 3.64721 37.2274 3.31805 36.1133 3.34062C35.0938 3.33567 34.0948 3.62858 33.2383 4.18364C32.4237 4.74713 31.8006 5.54767 31.4531 6.47744C31.2681 6.93767 31.137 7.41796 31.0625 7.90861C30.9993 8.31597 30.9666 8.72753 30.9648 9.13981L30.9805 9.14765ZM38.5391 9.71228C38.6737 9.7115 38.8054 9.75085 38.9177 9.82535C39.03 9.89984 39.1177 10.0061 39.1698 10.1307C39.2218 10.2553 39.2359 10.3926 39.2101 10.5252C39.1843 10.6578 39.1199 10.7798 39.025 10.8756C38.9301 10.9714 38.809 11.0367 38.677 11.0634C38.5451 11.09 38.4082 11.0767 38.2838 11.0252C38.1594 10.9737 38.053 10.8863 37.9781 10.774C37.9032 10.6617 37.8633 10.5296 37.8633 10.3945C37.8628 10.3051 37.8799 10.2165 37.9136 10.1337C37.9473 10.051 37.997 9.97575 38.0598 9.91234C38.1226 9.84894 38.1973 9.79862 38.2795 9.76428C38.3618 9.72995 38.45 9.71227 38.5391 9.71228ZM33.9844 9.71228C34.119 9.7115 34.2508 9.75085 34.363 9.82535C34.4753 9.89984 34.5631 10.0061 34.6151 10.1307C34.6671 10.2553 34.6812 10.3926 34.6554 10.5252C34.6296 10.6578 34.5652 10.7798 34.4703 10.8756C34.3754 10.9714 34.2543 11.0367 34.1223 11.0634C33.9904 11.09 33.8535 11.0767 33.7291 11.0252C33.6047 10.9737 33.4983 10.8863 33.4234 10.774C33.3486 10.6617 33.3086 10.5296 33.3086 10.3945C33.3086 10.2143 33.3797 10.0413 33.5063 9.91349C33.6329 9.78565 33.8048 9.71331 33.9844 9.71228ZM29.6055 13.7235C29.8359 13.6137 30.0664 13.5117 30.3008 13.4137C30.6914 13.253 31.082 13.1079 31.4727 12.9667C31.4336 12.7667 31.4023 12.5746 31.3789 12.3472C30.9758 12.0941 30.67 11.7112 30.5117 11.2611C30.3302 10.7383 30.2429 10.1873 30.2539 9.63386C30.2517 9.60514 30.2517 9.57631 30.2539 9.54759C30.2355 8.96149 30.2695 8.3749 30.3555 7.7949C30.4411 7.2583 30.5838 6.73249 30.7813 6.22649C31.1497 5.23542 31.7887 4.36849 32.625 3.72488C32.4719 3.39841 32.3906 3.04269 32.3867 2.68189C32.3869 2.27068 32.5386 1.87406 32.8125 1.56832C33.5237 0.871003 34.4609 0.45352 35.4531 0.392013C36.564 0.252053 37.6919 0.424445 38.7109 0.889983C39.3711 1.23895 39.8047 1.63106 39.9609 2.14863C40.0266 2.41498 40.0359 2.69221 39.9881 2.96238C39.9403 3.23255 39.8366 3.48965 39.6836 3.71704C40.703 4.43757 41.4721 5.46046 41.8828 6.64212C42.0447 7.10734 42.1406 7.59305 42.168 8.08505C42.1897 8.55015 42.1557 9.01618 42.0664 9.47309C42.0682 9.50051 42.0682 9.52802 42.0664 9.55544C42.1528 10.1042 42.1168 10.6653 41.9609 11.1983C41.7882 11.7517 41.4946 12.2594 41.1016 12.6844C41.0742 12.7981 41.043 12.9079 41.0156 13.0216C41.293 13.0961 41.5742 13.1863 41.8594 13.2882C41.8992 13.2887 41.9387 13.2954 41.9766 13.3078C42.0216 13.3241 42.0628 13.3494 42.0977 13.3823C42.3633 13.4882 42.6289 13.6058 42.8789 13.7392C44.4961 14.543 45.6367 15.4291 46.4414 16.5858C47.2461 17.7425 47.6992 19.1423 47.9414 20.9774V21.0244V27.3255C47.9414 27.4222 47.9031 27.515 47.835 27.5833C47.7669 27.6517 47.6745 27.6902 47.5781 27.6902C47.4818 27.6902 47.3894 27.6517 47.3212 27.5833C47.2531 27.515 47.2148 27.4222 47.2148 27.3255V21.0519C46.9883 19.3501 46.5703 18.0601 45.8477 17.0171C45.125 15.9741 44.0625 15.1507 42.5547 14.4057C42.3828 14.3195 42.2109 14.2411 42.0391 14.1666C41.332 16.1035 40.5273 17.5269 39.625 18.4797C39.2143 18.9602 38.7091 19.3503 38.1411 19.6256C37.5731 19.9009 36.9545 20.0554 36.3242 20.0794H36.3281C34.9594 20.0064 33.6687 19.4167 32.7148 18.4287C32.1946 17.8908 31.7539 17.2807 31.4062 16.6172C31.3359 16.4447 31.2656 16.2761 31.1875 16.1114C31.1094 15.9467 31 15.7193 30.8984 15.5389C30.7227 15.1154 30.5586 14.6567 30.4102 14.1666L30.0898 14.3077C29.9297 14.1038 29.7695 13.9156 29.6055 13.7313V13.7235ZM32.2578 13.1745C32.2697 13.2034 32.2776 13.2337 32.2812 13.2647C32.3801 13.6603 32.5438 14.0366 32.7656 14.3783C33.1112 14.9057 33.6503 15.2749 34.2656 15.4056C34.3171 15.4165 34.3652 15.4393 34.4062 15.4723C34.9091 15.8743 35.5292 16.1001 36.1719 16.1153C36.8194 16.0841 37.442 15.8557 37.957 15.4605C38.0156 15.4198 38.085 15.3979 38.1562 15.3978C38.4202 15.3768 38.6766 15.2994 38.9083 15.171C39.14 15.0425 39.3418 14.8658 39.5 14.6528C39.9753 13.9891 40.2957 13.2266 40.4375 12.4217C40.4531 12.3589 40.484 12.301 40.5273 12.2531C40.884 11.8975 41.1518 11.4621 41.3086 10.9827C41.4107 10.625 41.4438 10.251 41.4062 9.88088C40.3382 9.74318 39.3454 9.25523 38.582 8.49284C37.9808 7.8748 37.501 7.14848 37.168 6.35196C36.7221 7.22272 36.0465 7.95379 35.2148 8.46539C33.9309 9.25546 32.4837 9.73969 30.9844 9.88088C30.992 10.2657 31.0606 10.6469 31.1875 11.0101C31.245 11.1804 31.3358 11.3375 31.4545 11.4721C31.5733 11.6068 31.7175 11.7163 31.8789 11.7943C31.9356 11.822 31.9842 11.8641 32.0198 11.9163C32.0554 11.9686 32.0769 12.0292 32.082 12.0923C32.113 12.4558 32.1718 12.8162 32.2578 13.1706V13.1745ZM31.6406 13.6803C31.457 13.7431 31.25 13.8137 31.0781 13.8882C31.6328 15.7075 32.3555 17.025 33.2305 17.919C34.0546 18.7764 35.1705 19.2902 36.3555 19.358C36.8896 19.3352 37.4132 19.2014 37.8933 18.9652C38.3734 18.729 38.7994 18.3955 39.1445 17.9856C39.9805 17.0916 40.7344 15.7428 41.4102 13.8921C41.207 13.8215 41.0195 13.7588 40.8008 13.7078C40.6266 14.2155 40.3706 14.691 40.043 15.1154C39.8331 15.3943 39.5685 15.6269 39.2655 15.7989C38.9624 15.9709 38.6274 16.0786 38.2812 16.1153C37.6686 16.5679 36.9357 16.8272 36.1758 16.8603C35.3988 16.8518 34.6454 16.5919 34.0273 16.1192C33.2628 15.9343 32.5968 15.4648 32.1641 14.8057C31.9355 14.4584 31.7591 14.0792 31.6406 13.6803ZM43.6055 20.7813C43.5942 20.7339 43.5925 20.6847 43.6005 20.6366C43.6085 20.5885 43.626 20.5425 43.6521 20.5013C43.6781 20.4601 43.7121 20.4246 43.752 20.3969C43.7919 20.3691 43.837 20.3497 43.8846 20.3397C43.9321 20.3297 43.9812 20.3294 44.0289 20.3388C44.0765 20.3482 44.1218 20.3671 44.1621 20.3944C44.2023 20.4217 44.2367 20.4568 44.2633 20.4977C44.2898 20.5385 44.3078 20.5843 44.3164 20.6323C44.6204 21.9185 44.7945 23.2321 44.8359 24.5533C44.8359 25.7296 44.6172 26.6746 44.0547 27.298C42.9414 28.5292 41.3438 27.9489 40.0781 27.4902L39.75 27.3765C39.7049 27.3611 39.6634 27.3368 39.6279 27.3051C39.5923 27.2733 39.5635 27.2347 39.5431 27.1916C39.5227 27.1484 39.5112 27.1016 39.5091 27.0539C39.5071 27.0062 39.5146 26.9585 39.5312 26.9138C39.5466 26.8685 39.5708 26.8268 39.6023 26.791C39.6339 26.7552 39.6722 26.726 39.7151 26.7052C39.758 26.6844 39.8046 26.6724 39.8522 26.6698C39.8997 26.6673 39.9473 26.6742 39.9922 26.6903L40.3203 26.8118C41.3867 27.2039 42.7305 27.6823 43.5195 26.8118C43.9336 26.3492 44.1016 25.5689 44.0977 24.569C44.0514 23.3019 43.8813 22.0425 43.5898 20.8088L43.6055 20.7813ZM39.0625 3.3367C39.161 3.19492 39.2304 3.03488 39.2666 2.86591C39.3028 2.69693 39.3051 2.52241 39.2734 2.35252C39.1797 2.04668 38.8828 1.78398 38.375 1.52519C37.4821 1.13575 36.4997 1.00012 35.5352 1.13309C34.7231 1.17416 33.952 1.50351 33.3594 2.06237C33.204 2.23756 33.1166 2.46304 33.1133 2.69757C33.1148 2.91609 33.16 3.13208 33.2461 3.33278C34.1245 2.86929 35.1014 2.62581 36.0938 2.62307C37.1278 2.60305 38.1497 2.8487 39.0625 3.3367ZM34.6172 13.9705C34.5773 13.944 34.5431 13.9099 34.5165 13.87C34.49 13.8301 34.4716 13.7853 34.4625 13.7382C34.4534 13.6911 34.4538 13.6426 34.4636 13.5957C34.4734 13.5487 34.4924 13.5042 34.5195 13.4647C34.5748 13.3851 34.6591 13.3305 34.7542 13.3129C34.8492 13.2953 34.9474 13.316 35.0273 13.3706C35.38 13.6411 35.8066 13.797 36.25 13.8176C36.6507 13.8072 37.035 13.6559 37.3359 13.3902C37.4105 13.3299 37.5059 13.3018 37.6012 13.3121C37.6964 13.3224 37.7837 13.3702 37.8438 13.4451C37.9038 13.52 37.9318 13.6157 37.9216 13.7113C37.9113 13.8069 37.8637 13.8945 37.7891 13.9548C37.3601 14.3282 36.8138 14.5378 36.2461 14.5469C35.6571 14.5271 35.0884 14.3259 34.6172 13.9705ZM13.0938 12.7667C13.0442 12.7347 13.0015 12.693 12.9682 12.6443C12.9348 12.5955 12.9114 12.5405 12.8993 12.4826C12.8873 12.4247 12.8868 12.365 12.8979 12.3069C12.909 12.2488 12.9315 12.1935 12.9641 12.1441C12.9967 12.0948 13.0387 12.0525 13.0877 12.0196C13.1367 11.9867 13.1917 11.9639 13.2496 11.9525C13.3074 11.9412 13.3669 11.9414 13.4247 11.9533C13.4824 11.9652 13.5372 11.9884 13.5859 12.0218C13.996 12.3273 14.4932 12.4923 15.0039 12.4923C15.5146 12.4923 16.0118 12.3273 16.4219 12.0218C16.4704 11.9891 16.5249 11.9665 16.5822 11.9553C16.6396 11.9441 16.6985 11.9446 16.7557 11.9566C16.8129 11.9687 16.867 11.9921 16.915 12.0255C16.963 12.0589 17.0039 12.1016 17.0352 12.1511C17.0673 12.2003 17.0894 12.2553 17.1004 12.3131C17.1113 12.3709 17.1107 12.4302 17.0987 12.4878C17.0868 12.5453 17.0636 12.5999 17.0306 12.6485C16.9975 12.697 16.9553 12.7385 16.9062 12.7707C16.3544 13.1801 15.6862 13.4011 15 13.4011C14.3138 13.4011 13.6456 13.1801 13.0938 12.7707V12.7667ZM11.5312 8.77515C11.4277 8.83443 11.3048 8.84997 11.1898 8.81835C11.0748 8.78673 10.977 8.71054 10.918 8.60655C10.8589 8.50256 10.8434 8.37928 10.8749 8.26383C10.9064 8.14838 10.9823 8.05022 11.0859 7.99095C11.4492 7.7731 11.866 7.66172 12.2891 7.66943C12.6975 7.68218 13.098 7.78669 13.4609 7.97526C13.5671 8.02726 13.6484 8.11947 13.6869 8.23161C13.7253 8.34375 13.7178 8.46663 13.666 8.57322C13.6142 8.67981 13.5224 8.76138 13.4106 8.79999C13.2989 8.83859 13.1765 8.83107 13.0703 8.77907C12.8298 8.64803 12.5625 8.57425 12.2891 8.56342C12.0296 8.56253 11.7746 8.63159 11.5508 8.76339L11.5312 8.77515ZM17.1094 8.77515C17.0581 8.8045 17.0015 8.82342 16.9429 8.83083C16.8844 8.83825 16.8249 8.834 16.7679 8.81835C16.711 8.80269 16.6577 8.77593 16.611 8.73959C16.5644 8.70325 16.5253 8.65804 16.4961 8.60655C16.4669 8.55506 16.448 8.49829 16.4406 8.43948C16.4332 8.38068 16.4375 8.32099 16.4531 8.26383C16.4687 8.20667 16.4953 8.15315 16.5315 8.10632C16.5677 8.0595 16.6128 8.0203 16.6641 7.99095C17.0257 7.77263 17.4414 7.66119 17.8633 7.66943C18.2718 7.68218 18.6722 7.78669 19.0352 7.97526C19.1413 8.02726 19.2226 8.11947 19.2611 8.23161C19.2995 8.34375 19.292 8.46663 19.2402 8.57322C19.1884 8.67981 19.0966 8.76138 18.9849 8.79999C18.8731 8.83859 18.7507 8.83107 18.6445 8.77907C18.4038 8.64855 18.1366 8.5748 17.8633 8.56342C17.6037 8.56214 17.3487 8.63123 17.125 8.76339L17.1094 8.77515ZM4.78516 22.6948C4.78516 22.5762 4.83207 22.4625 4.91559 22.3787C4.9991 22.2949 5.11236 22.2478 5.23047 22.2478C5.34857 22.2478 5.46184 22.2949 5.54535 22.3787C5.62886 22.4625 5.67578 22.5762 5.67578 22.6948V27.5529C5.67578 27.6715 5.62886 27.7852 5.54535 27.869C5.46184 27.9528 5.34857 27.9999 5.23047 27.9999C5.11236 27.9999 4.9991 27.9528 4.91559 27.869C4.83207 27.7852 4.78516 27.6715 4.78516 27.5529V22.6948ZM24.2578 22.6948C24.2578 22.6361 24.2693 22.5779 24.2917 22.5237C24.3141 22.4695 24.3469 22.4202 24.3882 22.3787C24.4296 22.3372 24.4787 22.3043 24.5327 22.2818C24.5867 22.2593 24.6446 22.2478 24.7031 22.2478C24.7616 22.2478 24.8195 22.2593 24.8735 22.2818C24.9276 22.3043 24.9767 22.3372 25.018 22.3787C25.0594 22.4202 25.0922 22.4695 25.1145 22.5237C25.1369 22.5779 25.1484 22.6361 25.1484 22.6948V27.5529C25.1484 27.6715 25.1015 27.7852 25.018 27.869C24.9345 27.9528 24.8212 27.9999 24.7031 27.9999C24.585 27.9999 24.4718 27.9528 24.3882 27.869C24.3047 27.7852 24.2578 27.6715 24.2578 27.5529V22.6948ZM20.8555 10.8415C21.9844 11.4101 23.0391 11.9904 24.0547 12.606C25.0703 13.2216 26.1172 13.9117 27.1484 14.6449C27.1683 14.6586 27.1866 14.6744 27.2031 14.692C27.9924 15.3481 28.6251 16.1734 29.0547 17.1073C29.5816 18.3115 29.8784 19.6043 29.9297 20.9185V20.9421V27.2706C29.9297 27.3892 29.8828 27.5028 29.7993 27.5867C29.7157 27.6705 29.6025 27.7176 29.4844 27.7176C29.3663 27.7176 29.253 27.6705 29.1695 27.5867C29.086 27.5028 29.0391 27.3892 29.0391 27.2706V20.9421C28.9955 19.7518 28.7305 18.5802 28.2578 17.4877C27.8817 16.6714 27.3293 15.9495 26.6406 15.3742C25.6289 14.6567 24.6328 13.9979 23.6016 13.3745C23.332 13.2137 23.0625 13.053 22.7891 12.8961C21.9375 16.778 20.4453 19.6481 18.2891 21.5224C17.0991 20.7827 16.0093 19.8918 15.0469 18.8718C14.0989 19.8703 13.0122 20.7261 11.8203 21.4126C9.57812 19.605 8.15234 16.6446 7.37109 12.7354C7.03906 12.9275 6.71094 13.1275 6.38672 13.3196C5.33203 13.9705 4.3125 14.6528 3.29687 15.3742C2.60906 15.9503 2.0568 16.672 1.67969 17.4877C1.20697 18.5802 0.942002 19.7518 0.898438 20.9421V27.2706C0.898438 27.3892 0.851521 27.5028 0.768009 27.5867C0.684496 27.6705 0.571229 27.7176 0.453125 27.7176C0.335021 27.7176 0.221754 27.6705 0.138241 27.5867C0.0547292 27.5028 0.0078125 27.3892 0.0078125 27.2706V20.9421H0V20.9185C0.0513086 19.6043 0.348123 18.3115 0.875 17.1073C1.30557 16.1719 1.9412 15.3462 2.73438 14.692C2.74937 14.6743 2.76642 14.6585 2.78516 14.6449C3.80859 13.9195 4.84375 13.2216 5.92188 12.5472C7 11.8728 8.00781 11.316 9.11719 10.7592L9.09766 10.4965C8.84256 10.3326 8.62524 10.116 8.4602 9.86105C8.29516 9.60613 8.18621 9.31881 8.14062 9.01826C8.04874 8.34344 8.17324 7.65679 8.49609 7.05775L8.51562 7.02638C8.12529 6.04591 8.10999 4.95518 8.47266 3.96406C8.93581 2.86628 9.71352 1.93141 10.707 1.27816H10.7383C12.0258 0.465405 13.5142 0.0307546 15.0352 0.0234375C16.5505 0.0610436 18.0305 0.490517 19.332 1.27032C20.2819 1.76272 21.0569 2.53789 21.5508 3.48962C22.0002 4.52636 22.0667 5.68999 21.7383 6.77151C21.9291 7.45487 21.9757 8.17071 21.875 8.87318C21.8265 9.19817 21.7129 9.50993 21.5411 9.78961C21.3692 10.0693 21.1426 10.3111 20.875 10.5004L20.8398 10.8415H20.8555ZM11.0898 14.7351C11.6289 16.5505 12.875 17.9778 15.0352 18.8404C16.8867 18.2993 18.3594 16.6642 19.1641 14.6135L19.0859 14.5351C18.6813 14.8552 18.2439 15.1312 17.7812 15.3585C16.9526 15.7409 16.0561 15.9529 15.1445 15.982C14.2296 16.0232 13.3164 15.8695 12.4648 15.5311C11.97 15.3402 11.5065 15.0759 11.0898 14.7469V14.7351ZM11.7188 1.70948C11.7206 2.75721 11.5312 3.79642 11.1602 4.77571C10.7821 5.76544 10.1881 6.6577 9.42188 7.38711C9.37524 7.42979 9.32087 7.46307 9.26172 7.48514C9.02954 7.91092 8.93791 8.39965 9 8.88102C9.03198 9.0727 9.10606 9.25483 9.21686 9.41421C9.32767 9.57359 9.47242 9.70621 9.64062 9.80246L9.72266 9.84167C9.79057 9.87636 9.84828 9.92825 9.89008 9.99221C9.93187 10.0562 9.9563 10.13 9.96094 10.2063L10.0156 10.9905C10.085 11.8105 10.3816 12.5946 10.8717 13.2542C11.3618 13.9139 12.0259 14.4227 12.7891 14.7233C13.5268 15.0148 14.3172 15.1484 15.1094 15.1154C15.9045 15.09 16.6865 14.906 17.4102 14.5743C18.1178 14.2809 18.73 13.7952 19.1778 13.1719C19.6256 12.5485 19.8914 11.8121 19.9453 11.0454C19.9434 11.0324 19.9434 11.0192 19.9453 11.0062L20.0312 10.222C20.0391 10.1556 20.0617 10.0918 20.0976 10.0355C20.1334 9.9791 20.1815 9.93161 20.2383 9.89656C20.4452 9.77514 20.6226 9.60908 20.7577 9.41039C20.8928 9.2117 20.9823 8.98534 21.0195 8.74771C21.0876 8.24494 21.0584 7.73371 20.9336 7.24203C20.8741 7.24228 20.8153 7.22887 20.7617 7.20282C19.8773 6.74023 19.1902 5.97114 18.8281 5.03842C18.3679 3.9673 18.1299 2.81325 18.1289 1.64674C17.1646 1.17489 16.1114 0.914255 15.0391 0.882141C13.8815 0.881092 12.7414 1.16518 11.7188 1.70948ZM9.21875 6.32059C9.70203 5.77036 10.0843 5.13843 10.3477 4.45419C10.6081 3.76357 10.7661 3.03827 10.8164 2.30155C10.1471 2.80975 9.62305 3.48593 9.29688 4.26206C9.05677 4.9231 9.02944 5.64313 9.21875 6.32059ZM20.9375 6.26962C21.1382 5.46742 21.0696 4.62115 20.7422 3.86212C20.356 3.11511 19.7579 2.49975 19.0234 2.09374C19.0779 2.97358 19.2841 3.83725 19.6328 4.64632C19.8942 5.31304 20.3556 5.8817 20.9531 6.27354L20.9375 6.26962ZM14.9648 26.4197C15.0716 26.419 15.1762 26.45 15.2654 26.509C15.3545 26.568 15.4242 26.6522 15.4656 26.751C15.507 26.8498 15.5183 26.9588 15.4979 27.064C15.4776 27.1692 15.4265 27.266 15.3513 27.342C15.2761 27.4181 15.18 27.47 15.0754 27.4912C14.9707 27.5124 14.8621 27.502 14.7634 27.4611C14.6646 27.4203 14.5802 27.3509 14.5208 27.2619C14.4614 27.1728 14.4297 27.068 14.4297 26.9608C14.4292 26.89 14.4426 26.8197 14.4693 26.7541C14.496 26.6884 14.5353 26.6288 14.585 26.5785C14.6348 26.5282 14.694 26.4882 14.7591 26.461C14.8243 26.4338 14.8942 26.4197 14.9648 26.4197ZM14.9648 24.2867C15.0716 24.2859 15.1762 24.317 15.2654 24.376C15.3545 24.435 15.4242 24.5192 15.4656 24.618C15.507 24.7168 15.5183 24.8257 15.4979 24.9309C15.4776 25.0362 15.4265 25.1329 15.3513 25.209C15.2761 25.2851 15.18 25.337 15.0754 25.3582C14.9707 25.3794 14.8621 25.3689 14.7634 25.3281C14.6646 25.2872 14.5802 25.2179 14.5208 25.1288C14.4614 25.0398 14.4297 24.935 14.4297 24.8278C14.4297 24.685 14.4859 24.5479 14.5862 24.4466C14.6864 24.3452 14.8226 24.2877 14.9648 24.2867Z" fill="#1A4D6A"/>
</g>
<defs>
<clipPath id="clip0_18078_9122">
<rect width="48" height="28" fill="white"/>
</clipPath>
</defs>
</svg>
