<svg width="25" height="24" viewBox="0 0 25 24" fill="none" xmlns="http://www.w3.org/2000/svg">
<path fill-rule="evenodd" clip-rule="evenodd" d="M5.99704 7C5.66883 6.46338 5.5 5.80285 5.5 5C5.5 3.41709 6.69035 2 8.5 2C10.312 2 11.7733 3.21363 12.5 5.11383C13.2267 3.21363 14.688 2 16.5 2C18.3096 2 19.5 3.41709 19.5 5C19.5 5.80285 19.3312 6.46338 19.003 7H20.5C21.6046 7 22.5 7.89543 22.5 9V11C22.5 12.1046 21.6046 13 20.5 13V20C20.5 21.1046 19.6046 22 18.5 22H6.5C5.39543 22 4.5 21.1046 4.5 20V13C3.39543 13 2.5 12.1046 2.5 11V9C2.5 7.89543 3.39543 7 4.5 7H5.99704ZM11.5 9H4.5V11H11.5V9ZM20.5 11H13.5V9H20.5V11ZM11.5 20V13H6.5V20H11.5ZM18.5 20H13.5V13H18.5V20ZM8.5 4C7.87965 4 7.5 4.45196 7.5 5C7.5 6.25323 8.517 6.84912 10.9294 6.97449C10.6613 5.1116 9.66218 4 8.5 4ZM14 6.97449C14.2681 5.1116 15.2672 4 16.4294 4C17.0498 4 17.4294 4.45196 17.4294 5C17.4294 6.25323 16.4124 6.84912 14 6.97449Z" fill="currentColor"/>
</svg>
