<svg width="69" height="69" viewBox="0 0 69 69" fill="none" xmlns="http://www.w3.org/2000/svg">
<path d="M15.8571 49.6011C15.8569 49.6078 15.8589 49.6144 15.863 49.62C15.8671 49.6255 15.873 49.6299 15.88 49.6324C15.887 49.635 15.8947 49.6356 15.9023 49.6343C15.9098 49.6329 15.9168 49.6297 15.9224 49.6249C16.8891 48.751 18.0205 48.121 19.3167 47.7348C20.1518 47.4849 20.9547 47.2662 21.7256 47.0787C23.659 46.6058 25.0997 45.5678 25.6296 43.7882C25.9078 42.8508 25.7773 41.726 25.8006 40.7383C25.8027 40.6488 25.7617 40.5779 25.6778 40.5257C25.6395 40.5014 25.6032 40.4758 25.569 40.4487C23.0254 38.4285 21.4982 35.9401 20.9874 32.9835C20.8589 32.242 20.8019 31.3303 20.8164 30.2484C20.832 29.0676 20.8325 27.898 20.818 26.7397C20.818 26.6874 20.7884 26.6604 20.7294 26.6585C20.4797 26.6538 20.2336 26.6552 19.9912 26.6627C18.7033 26.7028 17.6687 26.3517 16.8875 25.6092C15.753 24.5306 15.7638 23.2491 15.8804 21.8291C15.9037 21.5493 15.9845 21.2177 16.1073 20.9645C16.7414 19.6457 17.8723 18.9294 19.5 18.8156C19.555 18.8118 19.5824 18.7853 19.5824 18.7358C19.5866 17.6754 19.584 16.5888 19.5746 15.4761C19.5653 14.4072 19.6094 13.4927 19.7067 12.7326C20.3812 7.46527 24.5293 3.05274 30.0668 1.5292C39.7072 -1.12476 49.2777 5.21563 49.4144 14.2589C49.4352 15.5955 49.4336 17.0845 49.4098 18.726C49.4088 18.7857 49.4409 18.8174 49.5061 18.8212C51.4986 18.9275 53.0481 20.2398 53.1382 22.0305C53.16 22.4782 53.1615 22.946 53.1429 23.4338C53.0698 25.3518 51.2499 26.7201 49.1813 26.6627C48.8798 26.6543 48.5752 26.6529 48.2675 26.6585C48.2105 26.6594 48.1815 26.686 48.1805 26.7383C48.1773 27.8827 48.1789 29.0107 48.1851 30.1225C48.1924 31.362 48.1416 32.2929 48.0328 32.915C47.5023 35.9686 45.9197 38.5195 43.2849 40.5676C43.2618 40.5857 43.2431 40.6078 43.23 40.6326C43.2169 40.6574 43.2097 40.6844 43.2087 40.7117C43.1735 41.8524 43.1823 42.6363 43.2351 43.0635C43.4133 44.4896 44.1277 45.5803 45.3783 46.3358C45.8901 46.6455 46.5859 46.9108 47.4655 47.1319C48.5006 47.3921 49.6103 47.6579 50.5645 48.0468C51.5105 48.432 52.3456 48.9562 53.0698 49.6193C53.0754 49.6241 53.0823 49.6274 53.0899 49.6288C53.0974 49.6302 53.1053 49.6296 53.1125 49.6271C53.1196 49.6246 53.1259 49.6203 53.1305 49.6147C53.135 49.6091 53.1377 49.6025 53.1382 49.5956C53.161 49.1786 53.1631 48.7678 53.1444 48.363C53.1056 47.5656 53.3527 46.8996 54.31 46.8115C54.366 46.8068 54.394 46.7793 54.394 46.7289V38.3796C54.394 38.3574 54.389 38.3355 54.3794 38.3151C54.3698 38.2947 54.3557 38.2761 54.338 38.2606C53.7537 37.7444 53.017 37.3107 53.1771 36.4587C53.6019 34.1801 54.0116 31.9767 54.4064 29.8483C54.5199 29.2313 55.0871 28.8816 55.7616 28.8872C57.3085 28.9002 58.856 28.9016 60.4039 28.8914C61.2587 28.8872 61.7405 29.2509 61.8679 29.9504C62.3093 32.3726 62.7134 34.5593 63.0802 36.5105C63.2247 37.2757 62.4834 37.778 61.9192 38.2439C61.8986 38.2606 61.8822 38.2812 61.871 38.3043C61.8597 38.3275 61.8539 38.3526 61.8539 38.3782V46.7359C61.8538 46.7529 61.8607 46.7694 61.8732 46.7822C61.8858 46.7951 61.9033 46.8035 61.9223 46.8059C62.8579 46.9066 63.1128 47.4928 63.1066 48.2693C63.0941 49.6739 63.0931 51.0244 63.1035 52.3209C63.1039 52.3408 63.1128 52.3598 63.1285 52.3739C63.1441 52.388 63.1653 52.396 63.1874 52.3964C63.8557 52.409 64.5224 52.3544 65.1689 52.4887C66.4589 52.7588 67.5173 53.6331 67.9043 54.7719C68.0234 55.1226 68.0819 55.582 68.0799 56.15C68.0695 59.7688 68.0674 63.3233 68.0737 66.8134C68.0752 67.6724 67.4815 68.0837 66.5972 68.0795C64.1251 68.0664 61.769 68.0636 59.5289 68.0711C58.0939 68.0758 56.8319 67.7125 55.743 66.9813C55.6808 66.9393 55.6451 66.9533 55.6357 67.0232C55.558 67.6024 55.0654 68.0683 54.408 68.0683C40.4951 68.0702 27.2164 68.0706 14.5718 68.0697C13.9097 68.0683 13.4264 67.5702 13.3627 66.9966C13.3618 66.9884 13.3585 66.9806 13.3531 66.9739C13.3477 66.9672 13.3404 66.962 13.332 66.9587C13.3236 66.9554 13.3144 66.9542 13.3053 66.9552C13.2962 66.9562 13.2876 66.9594 13.2803 66.9645C11.9546 67.8892 10.5357 68.0907 8.74838 68.0795C6.67099 68.0655 4.53921 68.0622 2.35303 68.0697C1.47959 68.0725 0.921649 67.6192 0.924757 66.8763C0.942371 63.1661 0.940817 59.5972 0.920095 56.1696C0.91595 55.5652 0.986405 55.0676 1.13146 54.6768C1.61325 53.3771 2.98246 52.465 4.50398 52.4076C4.92153 52.3927 5.35359 52.3922 5.80015 52.4062C5.86749 52.4081 5.90117 52.3787 5.90117 52.3181C5.90738 49.922 5.90738 47.386 5.90117 44.7102C5.90013 43.8381 5.89599 43.3689 5.88873 43.3027C5.80015 42.5221 5.42093 41.7904 4.80549 41.2252C3.16274 39.7184 2.22869 37.8969 2.17119 35.8054C2.08105 32.4491 4.28174 29.5895 7.69 28.3164C8.66446 27.9526 9.63736 28.3387 9.63581 29.3474C9.6327 31.2445 9.63218 33.0754 9.63425 34.84C9.63425 34.8923 9.66067 34.93 9.71351 34.9533L10.7999 35.443C10.8527 35.4673 10.905 35.4673 10.9568 35.443L12.0448 34.9519C12.0924 34.9305 12.1162 34.8955 12.1162 34.847C12.1245 33.0311 12.1235 31.2375 12.1131 29.4664C12.1069 28.5024 12.9135 27.9148 13.9517 28.2898C16.4337 29.1866 18.2785 30.8626 19.127 33.1332C20.1699 35.9299 19.3586 39.1238 16.9839 41.1916C16.3342 41.7568 15.8649 42.6228 15.8587 43.3825C15.8441 45.4092 15.8436 47.4821 15.8571 49.6011ZM41.9219 12.1142C42.371 12.1142 42.758 12.3003 43.0036 12.6291C44.2914 14.3583 45.5633 16.0758 46.819 17.7817C46.8988 17.8899 46.9382 17.8792 46.9371 17.7495C46.9262 15.9825 47.0599 14.0827 46.746 12.4402C45.7529 7.23443 40.7096 3.21642 34.7556 3.15906C28.396 3.09751 23.2331 7.07074 22.2105 12.6738C21.9556 14.0659 22.0784 15.7433 22.0675 17.2011C22.0654 17.3652 22.1053 17.3741 22.1872 17.2277C23.0098 15.74 23.8584 14.2361 24.7329 12.7158C24.965 12.312 25.268 12.11 25.6421 12.11C31.0692 12.1082 36.4958 12.1096 41.9219 12.1142ZM44.5095 18.824C44.5193 18.8239 44.5288 18.8214 44.5371 18.8169C44.5454 18.8123 44.5522 18.8059 44.5568 18.7982C44.5615 18.7905 44.5637 18.7818 44.5633 18.773C44.5629 18.7643 44.5599 18.7558 44.5546 18.7484L41.3049 14.3681C41.3 14.3613 41.2933 14.3557 41.2855 14.3518C41.2776 14.3479 41.2688 14.3458 41.2598 14.3457L26.6041 14.3471C26.5939 14.3469 26.5838 14.3492 26.575 14.3539C26.5662 14.3586 26.559 14.3655 26.5544 14.3737L24.1205 18.7526C24.1162 18.7602 24.1142 18.7686 24.1146 18.7771C24.115 18.7856 24.1178 18.7938 24.1228 18.801C24.1279 18.8082 24.1349 18.8141 24.1432 18.8182C24.1515 18.8222 24.1608 18.8242 24.1703 18.824H44.5095ZM20.8242 24.3473V21.1352C20.8242 21.1254 20.8221 21.1158 20.8179 21.1068C20.8138 21.0978 20.8077 21.0896 20.8001 21.0827C20.7924 21.0758 20.7833 21.0704 20.7733 21.0667C20.7633 21.0629 20.7526 21.061 20.7418 21.061H19.6104C19.272 21.061 18.9474 21.1823 18.7081 21.3982C18.4689 21.6142 18.3344 21.907 18.3344 22.2124V23.2701C18.3344 23.5754 18.4689 23.8683 18.7081 24.0842C18.9474 24.3002 19.272 24.4215 19.6104 24.4215H20.7418C20.7526 24.4215 20.7633 24.4195 20.7733 24.4158C20.7833 24.4121 20.7924 24.4066 20.8001 24.3997C20.8077 24.3929 20.8138 24.3847 20.8179 24.3757C20.8221 24.3667 20.8242 24.3571 20.8242 24.3473ZM45.5477 21.0764L23.4631 21.0428C23.4405 21.0426 23.418 21.0465 23.397 21.0541C23.376 21.0617 23.3569 21.073 23.3407 21.0873C23.3245 21.1016 23.3117 21.1186 23.3028 21.1374C23.2939 21.1562 23.2893 21.1763 23.2891 21.1967L23.2704 30.9899C23.2677 32.3294 23.555 33.6563 24.1158 34.8948C24.6766 36.1333 25.5 37.2591 26.539 38.208C27.5779 39.1569 28.8121 39.9102 30.1709 40.425C31.5298 40.9398 32.9868 41.206 34.4588 41.2084H34.4712C37.4439 41.2132 40.2969 40.1431 42.4027 38.2336C44.5085 36.3241 45.6946 33.7315 45.7 31.0263L45.7187 21.2331C45.7189 21.2127 45.7146 21.1925 45.7061 21.1736C45.6977 21.1546 45.6851 21.1374 45.6692 21.1229C45.6534 21.1083 45.6345 21.0967 45.6136 21.0888C45.5928 21.0808 45.5704 21.0766 45.5477 21.0764ZM48.1773 21.1338V24.3459C48.1773 24.3656 48.186 24.3844 48.2015 24.3984C48.2169 24.4123 48.2379 24.4201 48.2597 24.4201H49.3896C49.7284 24.4201 50.0533 24.2985 50.2929 24.082C50.5325 23.8656 50.6671 23.572 50.6671 23.2659V22.2138C50.6671 21.9077 50.5325 21.6141 50.2929 21.3977C50.0533 21.1812 49.7284 21.0596 49.3896 21.0596H48.2597C48.2379 21.0596 48.2169 21.0674 48.2015 21.0813C48.186 21.0952 48.1773 21.1141 48.1773 21.1338ZM59.3626 37.8955C59.3611 37.2128 59.9827 36.8364 60.463 36.4055C60.5034 36.3692 60.5189 36.3258 60.5096 36.2754L59.5693 31.2179C59.5589 31.1629 59.5227 31.1354 59.4605 31.1354H56.7687C56.719 31.1354 56.69 31.1573 56.6817 31.2012L55.7383 36.274C55.728 36.33 55.7461 36.3775 55.7927 36.4167C56.2683 36.8098 56.8837 37.2421 56.8837 37.8815C56.8817 40.77 56.8806 43.6991 56.8806 46.6688C56.8806 46.7048 56.8967 46.7393 56.9252 46.7647C56.9538 46.7902 56.9925 46.8045 57.0329 46.8045H59.2429C59.2756 46.8041 59.3069 46.7923 59.3298 46.7716C59.3528 46.7509 59.3657 46.723 59.3657 46.694C59.3699 43.811 59.3688 40.8782 59.3626 37.8955ZM8.49505 52.4118C9.19287 52.437 9.63425 52.9994 9.63425 53.5926C9.63529 54.6661 9.63425 55.7345 9.63114 56.7977C9.63114 56.8574 9.66482 56.8873 9.73216 56.8873C10.9423 56.8845 12.1188 57.2412 13.2617 57.9575C13.33 58.0004 13.3642 57.9846 13.3642 57.91C13.3663 53.2409 13.3658 48.5108 13.3627 43.7196C13.3611 42.0716 14.0014 40.6991 15.2494 39.5771C17.9195 37.1778 17.6335 33.2969 14.6806 31.1872C14.6742 31.1827 14.6665 31.18 14.6585 31.1793C14.6504 31.1786 14.6423 31.1799 14.6351 31.1831C14.6278 31.1863 14.6217 31.1912 14.6174 31.1974C14.6131 31.2036 14.6107 31.2107 14.6107 31.2179C14.6044 32.6207 14.605 34.064 14.6122 35.5479C14.6138 36.011 14.376 36.4055 13.9128 36.6126C13.0777 36.9866 12.2706 37.3513 11.4915 37.7066C11.134 37.8703 10.7191 37.9039 10.3523 37.7402C9.56483 37.3876 8.7344 37.0155 7.86096 36.6238C7.43357 36.4307 7.15071 36.0684 7.14916 35.6291C7.14708 34.3588 7.14656 32.8879 7.1476 31.2165C7.14784 31.2085 7.1455 31.2006 7.14088 31.1937C7.13625 31.1868 7.12952 31.1813 7.1215 31.1777C7.11348 31.1742 7.1045 31.1728 7.09562 31.1737C7.08675 31.1747 7.07836 31.1779 7.07145 31.183C5.93484 32.0103 5.1961 33.0231 4.85522 34.2216C4.31748 36.1047 4.91272 38.1417 6.44046 39.5226C7.72419 40.6824 8.39559 42.0912 8.39248 43.7826C8.38937 46.5489 8.38885 49.3932 8.39093 52.3153C8.39091 52.3404 8.40179 52.3645 8.42123 52.3825C8.44067 52.4006 8.46716 52.4111 8.49505 52.4118ZM28.2779 42.1835C28.3618 44.2303 27.6019 46.0966 25.9715 47.4802C25.9431 47.5042 25.9211 47.5338 25.9071 47.5666C25.8932 47.5994 25.8876 47.6346 25.8909 47.6697C25.8942 47.7048 25.9062 47.7388 25.9261 47.7692C25.946 47.7996 25.9732 47.8256 26.0057 47.8454C31.136 50.9372 37.8562 50.9358 42.9958 47.8468C43.0274 47.8276 43.0539 47.8023 43.0733 47.7728C43.0927 47.7433 43.1045 47.7102 43.1079 47.676C43.1114 47.6419 43.1063 47.6074 43.0931 47.5753C43.0798 47.5431 43.0588 47.514 43.0315 47.49C41.4048 46.0611 40.635 44.2965 40.7221 42.1961C40.7252 42.1196 40.6884 42.0982 40.6117 42.1317C36.7698 43.854 32.2022 43.9071 28.3774 42.1276C28.308 42.0949 28.2748 42.1136 28.2779 42.1835ZM44.4209 57.0747C44.3479 57.6553 43.7216 57.9981 43.1186 57.9981C37.4531 57.9944 31.7266 57.9948 25.9389 57.9995C25.1137 58.0009 24.6334 57.5966 24.5433 56.8621C24.219 54.1825 23.8947 51.5672 23.5704 49.0164C23.5684 49.0017 23.5629 48.9876 23.5542 48.9751C23.5455 48.9626 23.5337 48.9521 23.5199 48.9442C23.5061 48.9362 23.4904 48.9312 23.4742 48.9294C23.4579 48.9276 23.4414 48.9291 23.4258 48.9338C22.4913 49.2108 21.4956 49.486 20.4388 49.7592C20.2626 49.804 20.0015 49.8921 19.6555 50.0237C19.6057 50.0423 19.5809 50.0759 19.5809 50.1244V65.6914C19.5809 65.7285 19.5972 65.764 19.6264 65.7903C19.6555 65.8165 19.6951 65.8313 19.7363 65.8313H21.9432C21.9751 65.8313 22.0057 65.8199 22.0283 65.7998C22.051 65.7796 22.064 65.7522 22.0644 65.7235C22.0737 64.8692 22.0722 63.8656 22.0597 62.7128C22.052 61.9867 22.4498 61.353 23.3093 61.353C30.8107 61.352 38.2328 61.353 45.5757 61.3558C46.404 61.3558 46.9216 61.7909 46.9262 62.5883C46.9335 63.6031 46.9356 64.6337 46.9325 65.6802C46.9325 65.7809 46.9884 65.8313 47.1003 65.8313L49.3041 65.8299C49.335 65.8299 49.3647 65.8189 49.3865 65.7995C49.4084 65.7801 49.4207 65.7538 49.4207 65.7263V50.2265C49.4207 50.0801 49.343 49.9854 49.1875 49.9425L45.5679 48.9408C45.5523 48.9366 45.536 48.9356 45.5199 48.9377C45.5038 48.9398 45.4884 48.945 45.4748 48.953C45.4612 48.961 45.4497 48.9715 45.4411 48.9839C45.4325 48.9963 45.427 49.0102 45.4249 49.0247C45.1027 51.6437 44.768 54.3271 44.4209 57.0747ZM55.7041 57.9925C56.7563 57.279 57.9561 56.9153 59.2771 56.8789C59.3383 56.8779 59.3688 56.8495 59.3688 56.7935C59.3657 55.72 59.3657 54.6661 59.3688 53.6317C59.3709 52.9201 59.7605 52.5102 60.5376 52.402C60.5862 52.3955 60.6106 52.3703 60.6106 52.3265V49.1479C60.6106 49.12 60.5983 49.0933 60.5765 49.0737C60.5546 49.054 60.5249 49.0429 60.494 49.0429H55.715C55.6632 49.0429 55.6373 49.0663 55.6373 49.1129V57.9617C55.6372 57.9687 55.6393 57.9756 55.6434 57.9816C55.6474 57.9876 55.6532 57.9925 55.6601 57.9957C55.6671 57.9989 55.6749 58.0003 55.6826 57.9997C55.6904 57.9992 55.6978 57.9967 55.7041 57.9925ZM28.0432 51.315C27.4485 51.1191 26.8947 50.8897 26.3818 50.6266C26.371 50.6211 26.3587 50.6183 26.3462 50.6187C26.3338 50.6191 26.3217 50.6226 26.3114 50.6289C26.301 50.6352 26.2928 50.6439 26.2877 50.6541C26.2826 50.6644 26.2807 50.6757 26.2824 50.6868L26.9103 55.7135C26.9134 55.7433 26.9315 55.7583 26.9647 55.7583H42.0338C42.0482 55.7583 42.0622 55.7536 42.0729 55.7451C42.0835 55.7365 42.0901 55.7247 42.0913 55.7121L42.7207 50.6854C42.7269 50.6332 42.7036 50.6187 42.6508 50.642C37.895 52.7387 33.0259 52.963 28.0432 51.315ZM16.9745 51.9417C16.1073 53.0665 15.8555 54.1578 15.854 55.5792C15.8488 58.9415 15.8483 62.3467 15.8524 65.7949C15.8524 65.803 15.856 65.8109 15.8624 65.8166C15.8689 65.8224 15.8776 65.8257 15.8866 65.8257C16.6088 65.8387 17.0072 65.8341 17.0818 65.8117C17.0901 65.8089 17.0942 65.8033 17.0942 65.7949V51.9753C17.0942 51.8494 17.0543 51.8382 16.9745 51.9417ZM51.9073 52.0103V65.6564C51.9073 65.773 51.9721 65.8313 52.1016 65.8313H52.989C53.0968 65.8313 53.1506 65.7828 53.1506 65.6858C53.1517 62.0893 53.1512 58.5838 53.1491 55.1693C53.1481 53.9353 52.7611 52.8739 51.9881 51.9851C51.9343 51.9226 51.9073 51.931 51.9073 52.0103ZM4.55216 54.6474C3.89475 54.6572 3.43783 55.221 3.42229 55.7639C3.41193 56.1136 3.41296 56.4615 3.4254 56.8075C3.4258 56.8262 3.43433 56.844 3.44915 56.8571C3.46397 56.8702 3.4839 56.8775 3.50466 56.8775H7.06989C7.0905 56.8775 7.11027 56.8701 7.12484 56.857C7.13941 56.8439 7.1476 56.8261 7.1476 56.8075V54.7174C7.1476 54.697 7.13876 54.6774 7.12302 54.663C7.10728 54.6485 7.08593 54.6404 7.06368 54.6404C6.16019 54.6339 5.32302 54.6362 4.55216 54.6474ZM65.5559 55.5974C65.4953 55.0699 64.9591 54.6376 64.3344 54.639C63.5334 54.64 62.7346 54.6395 61.9379 54.6376C61.8819 54.6376 61.8539 54.6628 61.8539 54.7132V56.7726C61.8539 56.8425 61.8928 56.8775 61.9705 56.8775H65.4751C65.5393 56.8775 65.573 56.849 65.5761 56.7921C65.602 56.337 65.5953 55.9387 65.5559 55.5974ZM3.41762 59.2348V65.7123C3.41762 65.7454 3.4322 65.777 3.45814 65.8004C3.48408 65.8237 3.51926 65.8369 3.55594 65.8369H9.58763C10.5884 65.8369 11.5482 65.4837 12.2559 64.855C12.9636 64.2264 13.3611 63.3738 13.3611 62.4848V62.4624C13.3611 61.5734 12.9636 60.7208 12.2559 60.0921C11.5482 59.4635 10.5884 59.1103 9.58763 59.1103H3.55594C3.51926 59.1103 3.48408 59.1234 3.45814 59.1468C3.4322 59.1701 3.41762 59.2018 3.41762 59.2348ZM65.5855 65.6983V59.246C65.5855 59.2097 65.5694 59.1748 65.5408 59.1491C65.5123 59.1234 65.4735 59.1089 65.4331 59.1089H59.4154C58.4138 59.1089 57.4532 59.463 56.745 60.0932C56.0367 60.7234 55.6389 61.5781 55.6389 62.4694V62.475C55.6389 63.3662 56.0367 64.221 56.745 64.8512C57.4532 65.4814 58.4138 65.8354 59.4154 65.8354H65.4331C65.4735 65.8354 65.5123 65.821 65.5408 65.7953C65.5694 65.7696 65.5855 65.7347 65.5855 65.6983ZM44.4474 63.6935C44.4474 63.6803 44.4445 63.6672 44.4388 63.655C44.4332 63.6428 44.425 63.6317 44.4146 63.6223C44.4042 63.613 44.3919 63.6055 44.3783 63.6005C44.3647 63.5954 44.3502 63.5928 44.3355 63.5928H24.6661C24.6364 63.5928 24.6079 63.6034 24.5869 63.6223C24.5659 63.6412 24.5542 63.6668 24.5542 63.6935V65.7305C24.5542 65.7572 24.5659 65.7829 24.5869 65.8018C24.6079 65.8206 24.6364 65.8313 24.6661 65.8313H44.3355C44.3502 65.8313 44.3647 65.8287 44.3783 65.8236C44.3919 65.8185 44.4042 65.8111 44.4146 65.8018C44.425 65.7924 44.4332 65.7813 44.4388 65.7691C44.4445 65.7569 44.4474 65.7438 44.4474 65.7305V63.6935Z" fill="#1A4D6A"/>
<path d="M30.7552 26.7215C30.7552 26.8576 30.7255 26.9924 30.6676 27.1182C30.6097 27.244 30.5249 27.3582 30.4179 27.4545C30.311 27.5508 30.184 27.6271 30.0443 27.6792C29.9046 27.7313 29.7548 27.7581 29.6036 27.7581H29.4513C29.3001 27.7581 29.1503 27.7313 29.0106 27.6792C28.8709 27.6271 28.7439 27.5508 28.637 27.4545C28.53 27.3582 28.4452 27.244 28.3873 27.1182C28.3295 26.9924 28.2997 26.8576 28.2997 26.7215V25.4763C28.2997 25.3402 28.3295 25.2054 28.3873 25.0796C28.4452 24.9538 28.53 24.8396 28.637 24.7433C28.7439 24.647 28.8709 24.5707 29.0106 24.5186C29.1503 24.4665 29.3001 24.4397 29.4513 24.4397H29.6036C29.7548 24.4397 29.9046 24.4665 30.0443 24.5186C30.184 24.5707 30.311 24.647 30.4179 24.7433C30.5249 24.8396 30.6097 24.9538 30.6676 25.0796C30.7255 25.2054 30.7552 25.3402 30.7552 25.4763V26.7215Z" fill="#1A4D6A"/>
<path d="M40.7018 26.7215C40.7018 26.8576 40.6721 26.9924 40.6142 27.1182C40.5563 27.244 40.4715 27.3582 40.3645 27.4545C40.2576 27.5508 40.1306 27.6271 39.9909 27.6792C39.8512 27.7313 39.7015 27.7581 39.5502 27.7581H39.3979C39.2467 27.7581 39.0969 27.7313 38.9572 27.6792C38.8175 27.6271 38.6905 27.5508 38.5836 27.4545C38.4766 27.3582 38.3918 27.244 38.3339 27.1182C38.2761 26.9924 38.2463 26.8576 38.2463 26.7215V25.4763C38.2463 25.3402 38.2761 25.2054 38.3339 25.0796C38.3918 24.9538 38.4766 24.8396 38.5836 24.7433C38.6905 24.647 38.8175 24.5707 38.9572 24.5186C39.0969 24.4665 39.2467 24.4397 39.3979 24.4397H39.5502C39.7015 24.4397 39.8512 24.4665 39.9909 24.5186C40.1306 24.5707 40.2576 24.647 40.3645 24.7433C40.4715 24.8396 40.5563 24.9538 40.6142 25.0796C40.6721 25.2054 40.7018 25.3402 40.7018 25.4763V26.7215Z" fill="#1A4D6A"/>
<path d="M32.0188 33.448C32.4959 34.5322 34.5396 34.6036 35.5809 34.3643C36.0938 34.2468 36.8165 33.9502 36.9688 33.4452C36.9822 33.3976 37.0164 33.3738 37.0713 33.3738H39.3917C39.4497 33.3738 39.4767 33.4 39.4725 33.4522C39.3668 35.1408 37.7536 36.2195 36.0114 36.5748C33.489 37.0897 29.7917 36.2474 29.5212 33.462C29.5161 33.4032 29.5461 33.3738 29.6114 33.3738H31.8976C31.9566 33.3738 31.997 33.3986 32.0188 33.448Z" fill="#1A4D6A"/>
</svg>
