<svg width="73" height="73" viewBox="0 0 73 73" fill="none" xmlns="http://www.w3.org/2000/svg">
<path d="M17.8571 51.6011C17.8569 51.6078 17.8589 51.6144 17.863 51.62C17.8671 51.6255 17.873 51.6299 17.88 51.6324C17.887 51.635 17.8947 51.6356 17.9023 51.6343C17.9098 51.6329 17.9168 51.6297 17.9224 51.6249C18.8891 50.751 20.0205 50.121 21.3167 49.7348C22.1518 49.4849 22.9547 49.2662 23.7256 49.0787C25.659 48.6058 27.0997 47.5678 27.6296 45.7882C27.9078 44.8508 27.7773 43.726 27.8006 42.7383C27.8027 42.6488 27.7617 42.5779 27.6778 42.5257C27.6395 42.5014 27.6032 42.4758 27.569 42.4487C25.0254 40.4285 23.4982 37.9401 22.9874 34.9835C22.8589 34.242 22.8019 33.3303 22.8164 32.2484C22.832 31.0676 22.8325 29.898 22.818 28.7397C22.818 28.6874 22.7884 28.6604 22.7294 28.6585C22.4797 28.6538 22.2336 28.6552 21.9912 28.6627C20.7033 28.7028 19.6687 28.3517 18.8875 27.6092C17.753 26.5306 17.7638 25.2491 17.8804 23.8291C17.9037 23.5493 17.9845 23.2177 18.1073 22.9645C18.7414 21.6457 19.8723 20.9294 21.5 20.8156C21.555 20.8118 21.5824 20.7853 21.5824 20.7358C21.5866 19.6754 21.584 18.5888 21.5746 17.4761C21.5653 16.4072 21.6094 15.4927 21.7067 14.7326C22.3812 9.46527 26.5293 5.05274 32.0668 3.5292C41.7072 0.875245 51.2777 7.21563 51.4144 16.2589C51.4352 17.5955 51.4336 19.0845 51.4098 20.726C51.4088 20.7857 51.4409 20.8174 51.5061 20.8212C53.4986 20.9275 55.0481 22.2398 55.1382 24.0305C55.16 24.4782 55.1615 24.946 55.1429 25.4338C55.0698 27.3518 53.2499 28.7201 51.1813 28.6627C50.8798 28.6543 50.5752 28.6529 50.2675 28.6585C50.2105 28.6594 50.1815 28.686 50.1805 28.7383C50.1773 29.8827 50.1789 31.0107 50.1851 32.1225C50.1924 33.362 50.1416 34.2929 50.0328 34.915C49.5023 37.9686 47.9197 40.5195 45.2849 42.5676C45.2618 42.5857 45.2431 42.6078 45.23 42.6326C45.2169 42.6574 45.2097 42.6844 45.2087 42.7117C45.1735 43.8524 45.1823 44.6363 45.2351 45.0635C45.4133 46.4896 46.1277 47.5803 47.3783 48.3358C47.8901 48.6455 48.5859 48.9108 49.4655 49.1319C50.5006 49.3921 51.6103 49.6579 52.5645 50.0468C53.5105 50.432 54.3456 50.9562 55.0698 51.6193C55.0754 51.6241 55.0823 51.6274 55.0899 51.6288C55.0974 51.6302 55.1053 51.6296 55.1125 51.6271C55.1196 51.6246 55.1259 51.6203 55.1305 51.6147C55.135 51.6091 55.1377 51.6025 55.1382 51.5956C55.161 51.1786 55.1631 50.7678 55.1444 50.363C55.1056 49.5656 55.3527 48.8996 56.31 48.8115C56.366 48.8068 56.394 48.7793 56.394 48.7289V40.3796C56.394 40.3574 56.389 40.3355 56.3794 40.3151C56.3698 40.2947 56.3557 40.2761 56.338 40.2606C55.7537 39.7444 55.017 39.3107 55.1771 38.4587C55.6019 36.1801 56.0116 33.9767 56.4064 31.8483C56.5199 31.2313 57.0871 30.8816 57.7616 30.8872C59.3085 30.9002 60.856 30.9016 62.4039 30.8914C63.2587 30.8872 63.7405 31.2509 63.8679 31.9504C64.3093 34.3726 64.7134 36.5593 65.0802 38.5105C65.2247 39.2757 64.4834 39.778 63.9192 40.2439C63.8986 40.2606 63.8822 40.2812 63.871 40.3043C63.8597 40.3275 63.8539 40.3526 63.8539 40.3782V48.7359C63.8538 48.7529 63.8607 48.7694 63.8732 48.7822C63.8858 48.7951 63.9033 48.8035 63.9223 48.8059C64.8579 48.9066 65.1128 49.4928 65.1066 50.2693C65.0941 51.6739 65.0931 53.0244 65.1035 54.3209C65.1039 54.3408 65.1128 54.3598 65.1285 54.3739C65.1441 54.388 65.1653 54.396 65.1874 54.3964C65.8557 54.409 66.5224 54.3544 67.1689 54.4887C68.4589 54.7588 69.5173 55.6331 69.9043 56.7719C70.0234 57.1226 70.0819 57.582 70.0799 58.15C70.0695 61.7688 70.0674 65.3233 70.0737 68.8134C70.0752 69.6724 69.4815 70.0837 68.5972 70.0795C66.1251 70.0664 63.769 70.0636 61.5289 70.0711C60.0939 70.0758 58.8319 69.7125 57.743 68.9813C57.6808 68.9393 57.6451 68.9533 57.6357 69.0232C57.558 69.6024 57.0654 70.0683 56.408 70.0683C42.4951 70.0702 29.2164 70.0706 16.5718 70.0697C15.9097 70.0683 15.4264 69.5702 15.3627 68.9966C15.3618 68.9884 15.3585 68.9806 15.3531 68.9739C15.3477 68.9672 15.3404 68.962 15.332 68.9587C15.3236 68.9554 15.3144 68.9542 15.3053 68.9552C15.2962 68.9562 15.2876 68.9594 15.2803 68.9645C13.9546 69.8892 12.5357 70.0907 10.7484 70.0795C8.67099 70.0655 6.53921 70.0622 4.35303 70.0697C3.47959 70.0725 2.92165 69.6192 2.92476 68.8763C2.94237 65.1661 2.94082 61.5972 2.92009 58.1696C2.91595 57.5652 2.98641 57.0676 3.13146 56.6768C3.61325 55.3771 4.98246 54.465 6.50398 54.4076C6.92153 54.3927 7.35359 54.3922 7.80015 54.4062C7.86749 54.4081 7.90117 54.3787 7.90117 54.3181C7.90738 51.922 7.90738 49.386 7.90117 46.7102C7.90013 45.8381 7.89599 45.3689 7.88873 45.3027C7.80015 44.5221 7.42093 43.7904 6.80549 43.2252C5.16274 41.7184 4.22869 39.8969 4.17119 37.8054C4.08105 34.4491 6.28174 31.5895 9.69 30.3164C10.6645 29.9526 11.6374 30.3387 11.6358 31.3474C11.6327 33.2445 11.6322 35.0754 11.6343 36.84C11.6343 36.8923 11.6607 36.93 11.7135 36.9533L12.7999 37.443C12.8527 37.4673 12.905 37.4673 12.9568 37.443L14.0448 36.9519C14.0924 36.9305 14.1162 36.8955 14.1162 36.847C14.1245 35.0311 14.1235 33.2375 14.1131 31.4664C14.1069 30.5024 14.9135 29.9148 15.9517 30.2898C18.4337 31.1866 20.2785 32.8626 21.127 35.1332C22.1699 37.9299 21.3586 41.1238 18.9839 43.1916C18.3342 43.7568 17.8649 44.6228 17.8587 45.3825C17.8441 47.4092 17.8436 49.4821 17.8571 51.6011ZM43.9219 14.1142C44.371 14.1142 44.758 14.3003 45.0036 14.6291C46.2914 16.3583 47.5633 18.0758 48.819 19.7817C48.8988 19.8899 48.9382 19.8792 48.9371 19.7495C48.9262 17.9825 49.0599 16.0827 48.746 14.4402C47.7529 9.23443 42.7096 5.21642 36.7556 5.15906C30.396 5.09751 25.2331 9.07074 24.2105 14.6738C23.9556 16.0659 24.0784 17.7433 24.0675 19.2011C24.0654 19.3652 24.1053 19.3741 24.1872 19.2277C25.0098 17.74 25.8584 16.2361 26.7329 14.7158C26.965 14.312 27.268 14.11 27.6421 14.11C33.0692 14.1082 38.4958 14.1096 43.9219 14.1142ZM46.5095 20.824C46.5193 20.8239 46.5288 20.8214 46.5371 20.8169C46.5454 20.8123 46.5522 20.8059 46.5568 20.7982C46.5615 20.7905 46.5637 20.7818 46.5633 20.773C46.5629 20.7643 46.5599 20.7558 46.5546 20.7484L43.3049 16.3681C43.3 16.3613 43.2933 16.3557 43.2855 16.3518C43.2776 16.3479 43.2688 16.3458 43.2598 16.3457L28.6041 16.3471C28.5939 16.3469 28.5838 16.3492 28.575 16.3539C28.5662 16.3586 28.559 16.3655 28.5544 16.3737L26.1205 20.7526C26.1162 20.7602 26.1142 20.7686 26.1146 20.7771C26.115 20.7856 26.1178 20.7938 26.1228 20.801C26.1279 20.8082 26.1349 20.8141 26.1432 20.8182C26.1515 20.8222 26.1608 20.8242 26.1703 20.824H46.5095ZM22.8242 26.3473V23.1352C22.8242 23.1254 22.8221 23.1158 22.8179 23.1068C22.8138 23.0978 22.8077 23.0896 22.8001 23.0827C22.7924 23.0758 22.7833 23.0704 22.7733 23.0667C22.7633 23.0629 22.7526 23.061 22.7418 23.061H21.6104C21.272 23.061 20.9474 23.1823 20.7081 23.3982C20.4689 23.6142 20.3344 23.907 20.3344 24.2124V25.2701C20.3344 25.5754 20.4689 25.8683 20.7081 26.0842C20.9474 26.3002 21.272 26.4215 21.6104 26.4215H22.7418C22.7526 26.4215 22.7633 26.4195 22.7733 26.4158C22.7833 26.4121 22.7924 26.4066 22.8001 26.3997C22.8077 26.3929 22.8138 26.3847 22.8179 26.3757C22.8221 26.3667 22.8242 26.3571 22.8242 26.3473ZM47.5477 23.0764L25.4631 23.0428C25.4405 23.0426 25.418 23.0465 25.397 23.0541C25.376 23.0617 25.3569 23.073 25.3407 23.0873C25.3245 23.1016 25.3117 23.1186 25.3028 23.1374C25.2939 23.1562 25.2893 23.1763 25.2891 23.1967L25.2704 32.9899C25.2677 34.3294 25.555 35.6563 26.1158 36.8948C26.6766 38.1333 27.5 39.2591 28.539 40.208C29.5779 41.1569 30.8121 41.9102 32.1709 42.425C33.5298 42.9398 34.9868 43.206 36.4588 43.2084H36.4712C39.4439 43.2132 42.2969 42.1431 44.4027 40.2336C46.5085 38.3241 47.6946 35.7315 47.7 33.0263L47.7187 23.2331C47.7189 23.2127 47.7146 23.1925 47.7061 23.1736C47.6977 23.1546 47.6851 23.1374 47.6692 23.1229C47.6534 23.1083 47.6345 23.0967 47.6136 23.0888C47.5928 23.0808 47.5704 23.0766 47.5477 23.0764ZM50.1773 23.1338V26.3459C50.1773 26.3656 50.186 26.3844 50.2015 26.3984C50.2169 26.4123 50.2379 26.4201 50.2597 26.4201H51.3896C51.7284 26.4201 52.0533 26.2985 52.2929 26.082C52.5325 25.8656 52.6671 25.572 52.6671 25.2659V24.2138C52.6671 23.9077 52.5325 23.6141 52.2929 23.3977C52.0533 23.1812 51.7284 23.0596 51.3896 23.0596H50.2597C50.2379 23.0596 50.2169 23.0674 50.2015 23.0813C50.186 23.0952 50.1773 23.1141 50.1773 23.1338ZM61.3626 39.8955C61.3611 39.2128 61.9827 38.8364 62.463 38.4055C62.5034 38.3692 62.5189 38.3258 62.5096 38.2754L61.5693 33.2179C61.5589 33.1629 61.5227 33.1354 61.4605 33.1354H58.7687C58.719 33.1354 58.69 33.1573 58.6817 33.2012L57.7383 38.274C57.728 38.33 57.7461 38.3775 57.7927 38.4167C58.2683 38.8098 58.8837 39.2421 58.8837 39.8815C58.8817 42.77 58.8806 45.6991 58.8806 48.6688C58.8806 48.7048 58.8967 48.7393 58.9252 48.7647C58.9538 48.7902 58.9925 48.8045 59.0329 48.8045H61.2429C61.2756 48.8041 61.3069 48.7923 61.3298 48.7716C61.3528 48.7509 61.3657 48.723 61.3657 48.694C61.3699 45.811 61.3688 42.8782 61.3626 39.8955ZM10.4951 54.4118C11.1929 54.437 11.6343 54.9994 11.6343 55.5926C11.6353 56.6661 11.6343 57.7345 11.6311 58.7977C11.6311 58.8574 11.6648 58.8873 11.7322 58.8873C12.9423 58.8845 14.1188 59.2412 15.2617 59.9575C15.33 60.0004 15.3642 59.9846 15.3642 59.91C15.3663 55.2409 15.3658 50.5108 15.3627 45.7196C15.3611 44.0716 16.0014 42.6991 17.2494 41.5771C19.9195 39.1778 19.6335 35.2969 16.6806 33.1872C16.6742 33.1827 16.6665 33.18 16.6585 33.1793C16.6504 33.1786 16.6423 33.1799 16.6351 33.1831C16.6278 33.1863 16.6217 33.1912 16.6174 33.1974C16.6131 33.2036 16.6107 33.2107 16.6107 33.2179C16.6044 34.6207 16.605 36.064 16.6122 37.5479C16.6138 38.011 16.376 38.4055 15.9128 38.6126C15.0777 38.9866 14.2706 39.3513 13.4915 39.7066C13.134 39.8703 12.7191 39.9039 12.3523 39.7402C11.5648 39.3876 10.7344 39.0155 9.86096 38.6238C9.43357 38.4307 9.15071 38.0684 9.14916 37.6291C9.14708 36.3588 9.14656 34.8879 9.1476 33.2165C9.14784 33.2085 9.1455 33.2006 9.14088 33.1937C9.13625 33.1868 9.12952 33.1813 9.1215 33.1777C9.11348 33.1742 9.1045 33.1728 9.09562 33.1737C9.08675 33.1747 9.07836 33.1779 9.07145 33.183C7.93484 34.0103 7.1961 35.0231 6.85522 36.2216C6.31748 38.1047 6.91272 40.1417 8.44046 41.5226C9.72419 42.6824 10.3956 44.0912 10.3925 45.7826C10.3894 48.5489 10.3889 51.3932 10.3909 54.3153C10.3909 54.3404 10.4018 54.3645 10.4212 54.3825C10.4407 54.4006 10.4672 54.4111 10.4951 54.4118ZM30.2779 44.1835C30.3618 46.2303 29.6019 48.0966 27.9715 49.4802C27.9431 49.5042 27.9211 49.5338 27.9071 49.5666C27.8932 49.5994 27.8876 49.6346 27.8909 49.6697C27.8942 49.7048 27.9062 49.7388 27.9261 49.7692C27.946 49.7996 27.9732 49.8256 28.0057 49.8454C33.136 52.9372 39.8562 52.9358 44.9958 49.8468C45.0274 49.8276 45.0539 49.8023 45.0733 49.7728C45.0927 49.7433 45.1045 49.7102 45.1079 49.676C45.1114 49.6419 45.1063 49.6074 45.0931 49.5753C45.0798 49.5431 45.0588 49.514 45.0315 49.49C43.4048 48.0611 42.635 46.2965 42.7221 44.1961C42.7252 44.1196 42.6884 44.0982 42.6117 44.1317C38.7698 45.854 34.2022 45.9071 30.3774 44.1276C30.308 44.0949 30.2748 44.1136 30.2779 44.1835ZM46.4209 59.0747C46.3479 59.6553 45.7216 59.9981 45.1186 59.9981C39.4531 59.9944 33.7266 59.9948 27.9389 59.9995C27.1137 60.0009 26.6334 59.5966 26.5433 58.8621C26.219 56.1825 25.8947 53.5672 25.5704 51.0164C25.5684 51.0017 25.5629 50.9876 25.5542 50.9751C25.5455 50.9626 25.5337 50.9521 25.5199 50.9442C25.5061 50.9362 25.4904 50.9312 25.4742 50.9294C25.4579 50.9276 25.4414 50.9291 25.4258 50.9338C24.4913 51.2108 23.4956 51.486 22.4388 51.7592C22.2626 51.804 22.0015 51.8921 21.6555 52.0237C21.6057 52.0423 21.5809 52.0759 21.5809 52.1244V67.6914C21.5809 67.7285 21.5972 67.764 21.6264 67.7903C21.6555 67.8165 21.6951 67.8313 21.7363 67.8313H23.9432C23.9751 67.8313 24.0057 67.8199 24.0283 67.7998C24.051 67.7796 24.064 67.7522 24.0644 67.7235C24.0737 66.8692 24.0722 65.8656 24.0597 64.7128C24.052 63.9867 24.4498 63.353 25.3093 63.353C32.8107 63.352 40.2328 63.353 47.5757 63.3558C48.404 63.3558 48.9216 63.7909 48.9262 64.5883C48.9335 65.6031 48.9356 66.6337 48.9325 67.6802C48.9325 67.7809 48.9884 67.8313 49.1003 67.8313L51.3041 67.8299C51.335 67.8299 51.3647 67.8189 51.3865 67.7995C51.4084 67.7801 51.4207 67.7538 51.4207 67.7263V52.2265C51.4207 52.0801 51.343 51.9854 51.1875 51.9425L47.5679 50.9408C47.5523 50.9366 47.536 50.9356 47.5199 50.9377C47.5038 50.9398 47.4884 50.945 47.4748 50.953C47.4612 50.961 47.4497 50.9715 47.4411 50.9839C47.4325 50.9963 47.427 51.0102 47.4249 51.0247C47.1027 53.6437 46.768 56.3271 46.4209 59.0747ZM57.7041 59.9925C58.7563 59.279 59.9561 58.9153 61.2771 58.8789C61.3383 58.8779 61.3688 58.8495 61.3688 58.7935C61.3657 57.72 61.3657 56.6661 61.3688 55.6317C61.3709 54.9201 61.7605 54.5102 62.5376 54.402C62.5862 54.3955 62.6106 54.3703 62.6106 54.3265V51.1479C62.6106 51.12 62.5983 51.0933 62.5765 51.0737C62.5546 51.054 62.5249 51.0429 62.494 51.0429H57.715C57.6632 51.0429 57.6373 51.0663 57.6373 51.1129V59.9617C57.6372 59.9687 57.6393 59.9756 57.6434 59.9816C57.6474 59.9876 57.6532 59.9925 57.6601 59.9957C57.6671 59.9989 57.6749 60.0003 57.6826 59.9997C57.6904 59.9992 57.6978 59.9967 57.7041 59.9925ZM30.0432 53.315C29.4485 53.1191 28.8947 52.8897 28.3818 52.6266C28.371 52.6211 28.3587 52.6183 28.3462 52.6187C28.3338 52.6191 28.3217 52.6226 28.3114 52.6289C28.301 52.6352 28.2928 52.6439 28.2877 52.6541C28.2826 52.6644 28.2807 52.6757 28.2824 52.6868L28.9103 57.7135C28.9134 57.7433 28.9315 57.7583 28.9647 57.7583H44.0338C44.0482 57.7583 44.0622 57.7536 44.0729 57.7451C44.0835 57.7365 44.0901 57.7247 44.0913 57.7121L44.7207 52.6854C44.7269 52.6332 44.7036 52.6187 44.6508 52.642C39.895 54.7387 35.0259 54.963 30.0432 53.315ZM18.9745 53.9417C18.1073 55.0665 17.8555 56.1578 17.854 57.5792C17.8488 60.9415 17.8483 64.3467 17.8524 67.7949C17.8524 67.803 17.856 67.8109 17.8624 67.8166C17.8689 67.8224 17.8776 67.8257 17.8866 67.8257C18.6088 67.8387 19.0072 67.8341 19.0818 67.8117C19.0901 67.8089 19.0942 67.8033 19.0942 67.7949V53.9753C19.0942 53.8494 19.0543 53.8382 18.9745 53.9417ZM53.9073 54.0103V67.6564C53.9073 67.773 53.9721 67.8313 54.1016 67.8313H54.989C55.0968 67.8313 55.1506 67.7828 55.1506 67.6858C55.1517 64.0893 55.1512 60.5838 55.1491 57.1693C55.1481 55.9353 54.7611 54.8739 53.9881 53.9851C53.9343 53.9226 53.9073 53.931 53.9073 54.0103ZM6.55216 56.6474C5.89475 56.6572 5.43783 57.221 5.42229 57.7639C5.41193 58.1136 5.41296 58.4615 5.4254 58.8075C5.4258 58.8262 5.43433 58.844 5.44915 58.8571C5.46397 58.8702 5.4839 58.8775 5.50466 58.8775H9.06989C9.0905 58.8775 9.11027 58.8701 9.12484 58.857C9.13941 58.8439 9.1476 58.8261 9.1476 58.8075V56.7174C9.1476 56.697 9.13876 56.6774 9.12302 56.663C9.10728 56.6485 9.08593 56.6404 9.06368 56.6404C8.16019 56.6339 7.32302 56.6362 6.55216 56.6474ZM67.5559 57.5974C67.4953 57.0699 66.9591 56.6376 66.3344 56.639C65.5334 56.64 64.7346 56.6395 63.9379 56.6376C63.8819 56.6376 63.8539 56.6628 63.8539 56.7132V58.7726C63.8539 58.8425 63.8928 58.8775 63.9705 58.8775H67.4751C67.5393 58.8775 67.573 58.849 67.5761 58.7921C67.602 58.337 67.5953 57.9387 67.5559 57.5974ZM5.41762 61.2348V67.7123C5.41762 67.7454 5.4322 67.777 5.45814 67.8004C5.48408 67.8237 5.51926 67.8369 5.55594 67.8369H11.5876C12.5884 67.8369 13.5482 67.4837 14.2559 66.855C14.9636 66.2264 15.3611 65.3738 15.3611 64.4848V64.4624C15.3611 63.5734 14.9636 62.7208 14.2559 62.0921C13.5482 61.4635 12.5884 61.1103 11.5876 61.1103H5.55594C5.51926 61.1103 5.48408 61.1234 5.45814 61.1468C5.4322 61.1701 5.41762 61.2018 5.41762 61.2348ZM67.5855 67.6983V61.246C67.5855 61.2097 67.5694 61.1748 67.5408 61.1491C67.5123 61.1234 67.4735 61.1089 67.4331 61.1089H61.4154C60.4138 61.1089 59.4532 61.463 58.745 62.0932C58.0367 62.7234 57.6389 63.5781 57.6389 64.4694V64.475C57.6389 65.3662 58.0367 66.221 58.745 66.8512C59.4532 67.4814 60.4138 67.8354 61.4154 67.8354H67.4331C67.4735 67.8354 67.5123 67.821 67.5408 67.7953C67.5694 67.7696 67.5855 67.7347 67.5855 67.6983ZM46.4474 65.6935C46.4474 65.6803 46.4445 65.6672 46.4388 65.655C46.4332 65.6428 46.425 65.6317 46.4146 65.6223C46.4042 65.613 46.3919 65.6055 46.3783 65.6005C46.3647 65.5954 46.3502 65.5928 46.3355 65.5928H26.6661C26.6364 65.5928 26.6079 65.6034 26.5869 65.6223C26.5659 65.6412 26.5542 65.6668 26.5542 65.6935V67.7305C26.5542 67.7572 26.5659 67.7829 26.5869 67.8018C26.6079 67.8206 26.6364 67.8313 26.6661 67.8313H46.3355C46.3502 67.8313 46.3647 67.8287 46.3783 67.8236C46.3919 67.8185 46.4042 67.8111 46.4146 67.8018C46.425 67.7924 46.4332 67.7813 46.4388 67.7691C46.4445 67.7569 46.4474 67.7438 46.4474 67.7305V65.6935Z" fill="#1A4D6A"/>
<path d="M32.7552 28.7215C32.7552 28.8576 32.7255 28.9924 32.6676 29.1182C32.6097 29.244 32.5249 29.3582 32.4179 29.4545C32.311 29.5508 32.184 29.6271 32.0443 29.6792C31.9046 29.7313 31.7548 29.7581 31.6036 29.7581H31.4513C31.3001 29.7581 31.1503 29.7313 31.0106 29.6792C30.8709 29.6271 30.7439 29.5508 30.637 29.4545C30.53 29.3582 30.4452 29.244 30.3873 29.1182C30.3295 28.9924 30.2997 28.8576 30.2997 28.7215V27.4763C30.2997 27.3402 30.3295 27.2054 30.3873 27.0796C30.4452 26.9538 30.53 26.8396 30.637 26.7433C30.7439 26.647 30.8709 26.5707 31.0106 26.5186C31.1503 26.4665 31.3001 26.4397 31.4513 26.4397H31.6036C31.7548 26.4397 31.9046 26.4665 32.0443 26.5186C32.184 26.5707 32.311 26.647 32.4179 26.7433C32.5249 26.8396 32.6097 26.9538 32.6676 27.0796C32.7255 27.2054 32.7552 27.3402 32.7552 27.4763V28.7215Z" fill="#1A4D6A"/>
<path d="M42.7018 28.7215C42.7018 28.8576 42.6721 28.9924 42.6142 29.1182C42.5563 29.244 42.4715 29.3582 42.3645 29.4545C42.2576 29.5508 42.1306 29.6271 41.9909 29.6792C41.8512 29.7313 41.7015 29.7581 41.5502 29.7581H41.3979C41.2467 29.7581 41.0969 29.7313 40.9572 29.6792C40.8175 29.6271 40.6905 29.5508 40.5836 29.4545C40.4766 29.3582 40.3918 29.244 40.3339 29.1182C40.2761 28.9924 40.2463 28.8576 40.2463 28.7215V27.4763C40.2463 27.3402 40.2761 27.2054 40.3339 27.0796C40.3918 26.9538 40.4766 26.8396 40.5836 26.7433C40.6905 26.647 40.8175 26.5707 40.9572 26.5186C41.0969 26.4665 41.2467 26.4397 41.3979 26.4397H41.5502C41.7015 26.4397 41.8512 26.4665 41.9909 26.5186C42.1306 26.5707 42.2576 26.647 42.3645 26.7433C42.4715 26.8396 42.5563 26.9538 42.6142 27.0796C42.6721 27.2054 42.7018 27.3402 42.7018 27.4763V28.7215Z" fill="#1A4D6A"/>
<path d="M34.0188 35.448C34.4959 36.5322 36.5396 36.6036 37.5809 36.3643C38.0938 36.2468 38.8165 35.9502 38.9688 35.4452C38.9822 35.3976 39.0164 35.3738 39.0713 35.3738H41.3917C41.4497 35.3738 41.4767 35.4 41.4725 35.4522C41.3668 37.1408 39.7536 38.2195 38.0114 38.5748C35.489 39.0897 31.7917 38.2474 31.5212 35.462C31.5161 35.4032 31.5461 35.3738 31.6114 35.3738H33.8976C33.9566 35.3738 33.997 35.3986 34.0188 35.448Z" fill="#1A4D6A"/>
</svg>