<svg width="24" height="24" viewBox="0 0 24 24" fill="none" xmlns="http://www.w3.org/2000/svg">
<circle cx="12" cy="12" r="9" stroke="currentColor" stroke-width="1.6" stroke-linejoin="round"/>
<path d="M11.186 13.6344C11.186 13.1577 11.25 12.7778 11.3779 12.4946C11.5058 12.2115 11.7578 11.9014 12.1337 11.5645C12.5136 11.224 12.7539 10.9821 12.8547 10.8387C13.0097 10.6201 13.0872 10.3835 13.0872 10.129C13.0872 9.79211 12.9961 9.53584 12.814 9.36022C12.6357 9.181 12.3721 9.0914 12.0233 9.0914C11.6899 9.0914 11.4205 9.17921 11.2151 9.35484C11.0136 9.52688 10.9128 9.76165 10.9128 10.0591H9.5C9.50775 9.42473 9.74031 8.92294 10.1977 8.55376C10.6589 8.18459 11.2674 8 12.0233 8C12.8023 8 13.4089 8.1828 13.843 8.54839C14.281 8.91398 14.5 9.42473 14.5 10.0806C14.5 10.6649 14.2054 11.2401 13.6163 11.8065L12.9012 12.457C12.6453 12.7258 12.5136 13.1183 12.5058 13.6344H11.186ZM11.0872 15.3065C11.0872 15.095 11.1589 14.9247 11.3023 14.7957C11.4457 14.6631 11.6395 14.5968 11.8837 14.5968C12.1318 14.5968 12.3275 14.6649 12.4709 14.8011C12.6143 14.9337 12.686 15.1022 12.686 15.3065C12.686 15.5036 12.6163 15.6685 12.4767 15.8011C12.3372 15.9337 12.1395 16 11.8837 16C11.6279 16 11.4302 15.9337 11.2907 15.8011C11.155 15.6685 11.0872 15.5036 11.0872 15.3065Z" fill="currentColor"/>
</svg>
