<svg width="84" height="84" viewBox="0 0 84 84" fill="none" xmlns="http://www.w3.org/2000/svg">
<path d="M27.9821 43.0537C27.99 38.5207 27.9912 34.1854 27.9855 30.0478C27.9821 27.4018 30.4279 25.6532 32.8396 25.4208C33.4287 25.3638 34.2793 25.459 35.3914 25.7062C36.2711 25.9034 37.1952 26.0891 38.1637 26.2635C38.991 26.4122 39.5191 25.5866 39.731 24.9268C39.7365 24.9098 39.7386 24.8918 39.7369 24.8739C39.7353 24.8561 39.7302 24.8387 39.7217 24.8229C39.7132 24.8072 39.7017 24.7932 39.6877 24.782C39.6738 24.7708 39.6577 24.7625 39.6405 24.7576C38.8012 24.5166 37.9244 24.3781 37.1279 23.9901C34.2992 22.609 32.3542 19.9836 31.7098 16.9034C31.54 16.0921 31.4631 14.9634 31.4791 13.5174C31.4973 11.7443 31.4984 9.97972 31.4825 8.22372C31.4671 6.60162 33.8565 6.55889 33.836 8.3109C33.8087 10.5797 33.8115 12.8445 33.8446 15.1053C33.856 15.8517 33.9995 16.622 34.2753 17.4162C34.2935 17.4675 34.33 17.4937 34.3847 17.4949C36.9815 17.5074 39.6558 17.5057 42.4076 17.4897C43.7761 17.4817 44.9036 17.5581 45.7901 17.7188C47.5939 18.0435 49.2672 18.6509 50.81 19.5409C50.8818 19.5819 50.9416 19.5694 50.9895 19.5033C51.9637 18.1803 52.485 16.4881 52.4953 14.8848C52.5113 12.5932 52.5135 10.3563 52.5021 8.17416C52.4936 6.61529 54.8642 6.58111 54.842 8.27329C54.8192 9.96776 54.8198 11.7682 54.8437 13.6746C54.8608 15.0477 54.7742 16.1667 54.5839 17.0316C53.9242 20.0519 52.0013 22.5988 49.2222 23.9782C48.4343 24.3696 47.5318 24.5285 46.6875 24.7661C46.6031 24.7889 46.5741 24.8425 46.6003 24.9268C46.7883 25.5216 47.3352 26.4019 48.0565 26.2788C48.9932 26.117 49.9691 25.9233 50.9844 25.6977C52.0179 25.4664 52.8366 25.3758 53.4405 25.4259C55.9256 25.6293 58.3459 27.407 58.339 30.1145C58.3276 34.4754 58.3282 38.7834 58.3407 43.0383C58.3409 43.0499 58.3437 43.0613 58.3488 43.0716C58.354 43.082 58.3614 43.091 58.3705 43.0979C58.3796 43.1049 58.3901 43.1096 58.4013 43.1117C58.4124 43.1138 58.4239 43.1133 58.4347 43.1101C58.7168 43.0298 58.8603 42.8127 58.9167 42.5409C59.8841 37.9304 60.8498 33.3251 61.8138 28.7248C61.8754 28.4297 61.8885 28.1289 61.8531 27.8223C61.5113 24.8505 61.1695 21.882 60.8276 18.917C60.7091 17.8903 60.6533 16.904 60.6601 15.9582C60.6784 13.3875 60.6801 10.8207 60.6652 8.25791C60.6601 7.50754 61.2156 6.90074 61.9882 7.01356C62.6582 7.11041 62.9954 7.55825 63 8.35705C63.0125 10.766 63.0091 13.216 62.9897 15.7069C62.9818 16.7211 63.0353 17.7182 63.1504 18.6982C63.5207 21.8512 63.8837 25.0225 64.2392 28.212C64.254 28.3476 64.2471 28.4827 64.2187 28.6171C63.2057 33.451 62.2024 38.2455 61.2088 43.0007C60.9136 44.4183 59.9907 45.245 58.4399 45.4809C58.3852 45.49 58.3567 45.5225 58.3544 45.5783C58.1812 49.8128 56.4601 53.0758 53.1909 55.3674C52.1871 56.0716 50.8248 56.7348 49.1043 57.357C49.037 57.3809 49.0034 57.4282 49.0034 57.4988L49.0051 59.6457C49.0051 59.7129 49.0376 59.7551 49.1025 59.7722C51.402 60.3636 53.7236 60.9407 56.0675 61.5037C57.518 61.8524 58.5675 62.1868 59.2158 62.507C61.0299 63.4004 62.3784 64.7729 63.2615 66.6247C63.6056 67.346 63.8985 68.3636 64.14 69.6774C64.4659 71.446 64.8374 73.2977 65.2544 75.2326C65.3433 75.6451 65.3444 75.9796 65.2579 76.236C65.1023 76.6906 64.6442 77 64.1571 77C50.2375 76.9977 36.2466 76.9972 22.1845 76.9983C21.253 76.9983 20.8906 76.1898 21.0598 75.3813C21.5042 73.2413 21.9161 71.1696 22.2956 69.1664C22.4779 68.2046 22.7257 67.3847 23.0391 66.7067C24.2275 64.136 26.2808 62.4928 29.199 61.7772C31.9417 61.1048 34.6206 60.4394 37.2356 59.7807C37.304 59.7625 37.3382 59.718 37.3382 59.6474L37.3365 57.3843C37.3365 57.3034 37.2989 57.2493 37.2237 57.2219C35.323 56.5451 33.3301 55.5673 31.8414 54.1794C29.3813 51.8856 28.1 49.0254 27.9974 45.5988C27.9952 45.5191 27.9541 45.4758 27.8744 45.4689C26.8637 45.38 26.0797 44.9106 25.5225 44.0605C25.3277 43.7631 25.1249 43.1033 24.9141 42.0811C23.9603 37.4558 23.0277 32.9849 22.1161 28.6684C22.0808 28.502 22.0728 28.3345 22.0922 28.1659C22.4522 24.9228 22.8066 21.8336 23.1553 18.8982C23.2772 17.8794 23.3359 16.8989 23.3313 15.9565C23.3199 13.2205 23.3177 10.6304 23.3245 8.18612C23.3279 6.60333 25.661 6.61017 25.6576 8.20663C25.6519 10.7751 25.653 13.429 25.661 16.1685C25.6632 17.0618 25.6068 18.0014 25.4918 18.9871C25.1522 21.9019 24.8161 24.802 24.4833 27.6873C24.4389 28.077 24.4531 28.4456 24.5261 28.7932C25.4638 33.2521 26.4255 37.8461 27.4112 42.5751C27.4642 42.8315 27.6334 43.0298 27.8778 43.1255C27.8894 43.1299 27.902 43.1315 27.9143 43.13C27.9267 43.1285 27.9385 43.124 27.9488 43.117C27.959 43.1099 27.9674 43.1005 27.9732 43.0894C27.979 43.0784 27.982 43.0662 27.9821 43.0537ZM41.7838 26.1028C41.2488 27.3095 40.2831 28.3351 38.9653 28.5761C38.5152 28.6582 37.8834 28.6137 37.0698 28.4428C36.148 28.2491 35.1869 28.0491 34.1864 27.8428C33.1831 27.6343 32.3969 27.7369 31.532 28.236C30.9862 28.5493 30.6022 28.9898 30.3801 29.5572C30.3623 29.6023 30.3616 29.6523 30.3779 29.6982C30.3942 29.744 30.4265 29.7825 30.4689 29.8068C34.9966 32.3912 40.7959 32.0032 44.7561 28.5915C45.4004 28.036 46.1166 28.1505 46.6225 28.7983C47.4361 29.8421 48.5089 30.5908 49.8409 31.0443C51.8521 31.728 53.8712 31.6272 55.8983 30.7418C55.953 30.7178 55.9843 30.6762 55.9923 30.617C56.055 30.1156 56.014 29.6991 55.8693 29.3675C55.3821 28.2531 53.7601 27.5591 52.603 27.771C51.5683 27.9591 50.434 28.1864 49.2 28.453C48.0326 28.706 46.9832 28.7197 46.0345 28.0069C44.7099 27.0138 43.5853 24.8926 44.7065 23.3662C45.005 22.9594 45.3839 22.6956 45.8431 22.5748C46.3878 22.4313 46.9564 22.2803 47.5489 22.1219C48.1146 21.9697 48.6342 21.6587 49.1128 21.3305C49.1185 21.3266 49.1231 21.3212 49.1262 21.3151C49.1293 21.3089 49.1307 21.3021 49.1304 21.2953C49.13 21.2885 49.1279 21.2821 49.1242 21.2765C49.1205 21.271 49.1154 21.2666 49.1094 21.2638C47.1216 20.2485 45.0757 19.8143 42.7802 19.8178C40.3464 19.82 37.9865 19.82 35.7008 19.8178C35.6039 19.8178 35.5868 19.8548 35.6495 19.9289C36.4785 20.9168 37.6492 21.8347 38.9021 22.1543C39.6746 22.3509 40.6403 22.4962 41.2215 22.956C42.1906 23.7235 42.2641 25.0191 41.7838 26.1028ZM45.368 31.0853C41.659 33.8202 36.7673 34.456 32.4721 33.2014C31.9035 33.035 31.2221 32.7849 30.4279 32.451C30.3641 32.4237 30.3328 32.4448 30.3339 32.5143C30.3419 36.4057 30.339 40.5063 30.3254 44.816C30.3219 45.9179 30.4051 46.8363 30.5749 47.5713C31.2403 50.4327 32.9558 52.5875 35.7213 54.0358C39.8461 56.1941 44.0639 56.5582 48.3744 55.1281C52.2355 53.8461 55.1702 51.2753 55.8607 47.1594C55.9781 46.4529 56.031 45.3339 56.0197 43.8024C55.9946 40.4294 55.9929 36.9419 56.0145 33.3399C56.0146 33.3238 56.0109 33.308 56.0035 33.2937C55.9962 33.2794 55.9854 33.267 55.9722 33.2577C55.959 33.2483 55.9437 33.2422 55.9276 33.2399C55.9115 33.2375 55.895 33.239 55.8795 33.2442C52.1808 34.5073 48.3214 33.6663 45.5303 31.0939C45.4779 31.0472 45.4238 31.0443 45.368 31.0853ZM42.7153 62.989C43.4024 63.0403 43.979 62.9862 44.445 62.8266C45.9337 62.3156 46.7028 61.0234 46.6704 59.4765C46.6601 59.0172 46.6601 58.5478 46.6704 58.068C46.6705 58.0586 46.6686 58.0493 46.6647 58.0407C46.6608 58.0321 46.655 58.0245 46.6478 58.0185C46.6406 58.0124 46.6322 58.008 46.6231 58.0057C46.6139 58.0033 46.6044 58.003 46.5952 58.0048C44.3231 58.4298 42.0516 58.4047 39.7806 57.9296C39.7145 57.9159 39.6798 57.9427 39.6764 58.0099C39.6205 59.0776 39.6467 59.8878 39.755 60.4405C40.037 61.8677 41.2539 62.8813 42.7153 62.989ZM44.0416 65.2897C41.3838 65.6128 39.0747 64.5342 37.868 62.1173C37.8395 62.0603 37.794 62.0398 37.7313 62.0558C35.1926 62.7042 32.6533 63.3366 30.1134 63.9531C29.0742 64.206 28.2834 64.4915 27.7411 64.8094C26.695 65.4236 25.8854 66.2686 25.3123 67.3443C25.0035 67.9254 24.7494 68.7436 24.55 69.7988C24.256 71.3565 23.9387 72.9593 23.598 74.607C23.5965 74.6142 23.5965 74.6216 23.5982 74.6287C23.5999 74.6358 23.6032 74.6425 23.6078 74.6482C23.6123 74.654 23.6181 74.6586 23.6247 74.6618C23.6313 74.665 23.6385 74.6667 23.6458 74.6668H62.6855C62.6943 74.6668 62.703 74.6648 62.711 74.6609C62.719 74.657 62.726 74.6513 62.7315 74.6443C62.7371 74.6373 62.741 74.629 62.7431 74.6202C62.7452 74.6114 62.7454 74.6022 62.7436 74.5933C62.4724 73.3626 62.2018 72.0095 61.9318 70.5338C61.6549 69.0239 61.3518 67.9585 61.0225 67.3374C60.038 65.4829 58.4775 64.5035 56.3957 63.9975C53.6769 63.3343 51.0829 62.6876 48.6137 62.0575C48.5556 62.0427 48.5123 62.0615 48.4838 62.1139C47.4902 63.9907 46.0095 65.0493 44.0416 65.2897Z" fill="#1A4D6A"/>
<path d="M77 19.2417C77 20.3238 76.5702 21.3616 75.805 22.1268C75.0399 22.8919 74.0022 23.3218 72.9202 23.3218C71.8381 23.3218 70.8004 22.8919 70.0353 22.1268C69.2702 21.3616 68.8403 20.3238 68.8403 19.2417C68.8403 18.1596 69.2702 17.1219 70.0353 16.3567C70.8004 15.5915 71.8381 15.1617 72.9202 15.1617C74.0022 15.1617 75.0399 15.5915 75.805 16.3567C76.5702 17.1219 77 18.1596 77 19.2417ZM74.6635 19.2417C74.6635 19.0128 74.6184 18.7861 74.5308 18.5745C74.4432 18.363 74.3148 18.1708 74.1529 18.0089C73.991 17.847 73.7988 17.7186 73.5873 17.631C73.3758 17.5434 73.1491 17.4983 72.9202 17.4983C72.4578 17.4983 72.0143 17.682 71.6874 18.0089C71.3605 18.3359 71.1768 18.7793 71.1768 19.2417C71.1768 19.4707 71.2219 19.6974 71.3095 19.9089C71.3971 20.1205 71.5255 20.3127 71.6874 20.4746C71.8493 20.6365 72.0415 20.7649 72.253 20.8525C72.4645 20.9401 72.6912 20.9852 72.9202 20.9852C73.1491 20.9852 73.3758 20.9401 73.5873 20.8525C73.7988 20.7649 73.991 20.6365 74.1529 20.4746C74.3148 20.3127 74.4432 20.1205 74.5308 19.9089C74.6184 19.6974 74.6635 19.4707 74.6635 19.2417Z" fill="#1A4D6A"/>
<path d="M9.3245 31.4921C9.3245 31.8004 9.20205 32.096 8.98409 32.314C8.76612 32.532 8.4705 32.6545 8.16225 32.6545C7.854 32.6545 7.55838 32.532 7.34042 32.314C7.12245 32.096 7 31.8004 7 31.4921C7 31.3395 7.03006 31.1884 7.08847 31.0473C7.14688 30.9063 7.23249 30.7782 7.34042 30.6703C7.44834 30.5623 7.57647 30.4767 7.71748 30.4183C7.85849 30.3599 8.00962 30.3298 8.16225 30.3298C8.31488 30.3298 8.46601 30.3599 8.60703 30.4183C8.74804 30.4767 8.87616 30.5623 8.98409 30.6703C9.09201 30.7782 9.17762 30.9063 9.23603 31.0473C9.29444 31.1884 9.3245 31.3395 9.3245 31.4921Z" fill="#1A4D6A"/>
<path d="M36.6049 37.5772C37.0237 37.3977 37.2014 36.9841 37.6407 36.8507C38.8696 36.4747 39.6695 37.9207 38.7705 38.8506C37.3519 40.3137 35.3179 40.406 33.7232 39.1531C33.0002 38.5839 32.7063 37.6302 33.5574 37.0217C33.9916 36.7106 34.6308 36.7567 35.0171 37.1533C35.4666 37.6114 35.9674 37.8541 36.6049 37.5772Z" fill="#1A4D6A"/>
<path d="M49.1094 37.2473C49.6854 37.8575 50.5178 37.8284 51.0955 37.2114C52.2389 35.991 53.9361 37.637 52.8012 38.8198C51.3365 40.3462 49.1111 40.4488 47.5643 38.9976C46.173 37.6917 47.9369 36.0029 49.1094 37.2473Z" fill="#1A4D6A"/>
<path d="M45.7645 46.7321C44.3493 48.2021 42.2965 48.2738 40.7121 47.0175C40.0011 46.4535 39.7071 45.5287 40.56 44.8997C40.8905 44.6547 41.267 44.6217 41.6898 44.8006C41.9752 44.9202 42.1273 45.1818 42.3769 45.3441C42.9289 45.7082 43.6588 45.6074 44.0929 45.0963C45.1406 43.8571 46.99 45.4621 45.7645 46.7321Z" fill="#1A4D6A"/>
<path d="M72.3322 46.662C72.3322 46.9703 72.2097 47.2659 71.9918 47.4839C71.7738 47.7019 71.4782 47.8243 71.1699 47.8243C70.8617 47.8243 70.5661 47.7019 70.3481 47.4839C70.1301 47.2659 70.0077 46.9703 70.0077 46.662C70.0077 46.3537 70.1301 46.0581 70.3481 45.8401C70.5661 45.6221 70.8617 45.4997 71.1699 45.4997C71.4782 45.4997 71.7738 45.6221 71.9918 45.8401C72.2097 46.0581 72.3322 46.3537 72.3322 46.662Z" fill="#1A4D6A"/>
<path d="M13.6386 54.3127C12.9379 53.9367 12.1733 53.7424 11.3449 53.7299C9.28533 53.7008 9.299 50.9933 11.309 50.966C13.96 50.9284 15.9512 49.0311 16.5306 46.556C16.6656 45.9817 16.5169 45.2997 16.8417 44.8006C17.6006 43.6314 19.3337 44.1186 19.3696 45.5424C19.4431 48.5798 21.7522 50.9027 24.8099 50.9745C25.685 50.995 26.2884 51.6924 26.1756 52.559C26.0987 53.1521 25.55 53.6786 24.9518 53.6957C21.7624 53.788 19.4943 55.9844 19.3593 59.1893C19.2841 60.9738 16.7237 60.9858 16.6434 59.2218C16.5409 56.9701 15.5393 55.3337 13.6386 54.3127ZM20.2378 52.2907C19.3502 51.6833 18.6209 50.9517 18.0501 50.0959C18.0448 50.0877 18.0374 50.0809 18.0288 50.0762C18.0201 50.0715 18.0104 50.069 18.0004 50.069C17.9904 50.069 17.9805 50.0715 17.9716 50.0762C17.9627 50.0809 17.955 50.0877 17.9492 50.0959C17.3784 50.9472 16.6491 51.6793 15.7615 52.2924C15.7526 52.2985 15.7454 52.3067 15.7405 52.3162C15.7355 52.3257 15.7329 52.3363 15.7329 52.3471C15.7329 52.3578 15.7355 52.3684 15.7405 52.3779C15.7454 52.3874 15.7526 52.3956 15.7615 52.4018C16.6263 52.9875 17.3573 53.7196 17.9543 54.5982C17.9594 54.6056 17.9661 54.6116 17.974 54.6158C17.9819 54.62 17.9907 54.6222 17.9996 54.6222C18.0086 54.6222 18.0174 54.62 18.0253 54.6158C18.0332 54.6116 18.0399 54.6056 18.0449 54.5982C18.6409 53.7162 19.3718 52.9846 20.2378 52.4035C20.247 52.3972 20.2545 52.3888 20.2597 52.3789C20.2649 52.3691 20.2676 52.3582 20.2676 52.3471C20.2676 52.3359 20.2649 52.325 20.2597 52.3152C20.2545 52.3053 20.247 52.2969 20.2378 52.2907Z" fill="#1A4D6A"/>
</svg>