<svg width="56" height="56" viewBox="0 0 56 56" fill="none" xmlns="http://www.w3.org/2000/svg">
  <path
    d="M27.888 9.38231V26.7011C27.888 27.1087 27.5572 27.4386 27.1485 27.4386H13.3008C12.892 27.4386 12.5612 27.1087 12.5612 26.7011C12.5612 26.2936 12.892 25.9637 13.3008 25.9637H26.409V9.38231C26.409 8.97472 26.7397 8.64491 27.1485 8.64491C27.5572 8.64491 27.888 8.97473 27.888 9.38231ZM51.0042 43.5645C51.0042 47.2619 47.8909 49.8782 43.5175 50.0182V52.7393C43.5175 53.192 43.1344 53.577 42.6788 53.577C42.2233 53.577 41.8402 53.192 41.8402 52.7393V49.9828C38.7964 49.7381 36.3117 48.6231 33.9689 46.5996C33.7234 46.3903 33.5844 46.1808 33.5844 45.8667C33.5844 45.414 34.0044 44.9951 34.4585 44.9951C34.7735 44.9951 34.9835 45.1352 35.0885 45.2399C37.0468 47.0539 39.181 48.1349 41.9083 48.4137V38.472C36.6637 37.3217 34.494 35.403 34.494 31.9151C34.494 28.3918 37.5718 25.7061 41.8402 25.6014V24.2756C41.8402 23.8228 42.2233 23.4394 42.6788 23.4394C43.1344 23.4394 43.5175 23.8228 43.5175 24.2756V25.6722C46.0377 25.8802 47.8568 26.7179 49.7441 28.113C50.0591 28.3563 50.2336 28.5673 50.2336 28.9153C50.2336 29.4035 49.8151 29.787 49.3255 29.787C49.1155 29.787 48.9395 29.753 48.6955 29.5436C46.9813 28.1824 45.3026 27.4847 43.4494 27.2768V37.0429C48.765 38.1579 51.0042 40.1474 51.0042 43.5645ZM41.9083 27.1707C38.5169 27.2414 36.2777 29.2649 36.2777 31.7749C36.2777 34.1479 37.3973 35.6124 41.9083 36.6934V27.1707ZM49.2205 43.7047C49.2205 41.2978 47.9959 39.8333 43.4494 38.8215V48.4476C46.9473 48.3782 49.2205 46.3563 49.2205 43.7047ZM27.1485 2.4231C22.7511 2.4231 18.6217 3.59185 15.0571 5.6341C15.0289 5.64563 15.0008 5.66002 14.974 5.67515C14.9459 5.69171 14.9191 5.709 14.8946 5.72772C11.2664 7.84415 8.23396 10.8686 6.11294 14.4872C6.09488 14.511 6.07827 14.5362 6.0631 14.5621C6.04866 14.5881 6.03566 14.614 6.02411 14.6406C3.97457 18.1958 2.80176 22.3142 2.80176 26.7012C2.80176 31.0888 3.97529 35.2079 6.02483 38.7639C6.03566 38.7898 6.04866 38.8157 6.0631 38.8402C6.07827 38.8661 6.09488 38.8906 6.11221 38.9136C8.23541 42.5373 11.2729 45.5661 14.9076 47.6818C14.9285 47.6976 14.9509 47.712 14.974 47.725C14.9964 47.738 15.0195 47.7495 15.0426 47.761C18.6102 49.8076 22.7454 50.9799 27.1485 50.9799C28.4686 50.9799 29.7931 50.8734 31.0858 50.6631C31.4887 50.5983 31.7632 50.2195 31.6967 49.8177C31.6303 49.413 31.2475 49.1408 30.8489 49.2084C29.8754 49.3654 28.8817 49.4619 27.888 49.4936V47.7898C27.888 47.3822 27.5572 47.0524 27.1485 47.0524C26.7397 47.0524 26.409 47.3822 26.409 47.7898V49.4936C22.7858 49.3784 19.3728 48.4178 16.3613 46.8047L17.2149 45.3328C17.4193 44.9799 17.298 44.5291 16.9441 44.326C16.5895 44.1186 16.1375 44.2425 15.9338 44.5954L15.0816 46.0658C12.1063 44.2151 9.58516 41.7005 7.72917 38.7322L9.20313 37.8824C9.557 37.6794 9.67832 37.2286 9.47394 36.8757C9.26885 36.5228 8.8146 36.4004 8.46362 36.6064L6.98749 37.4561C5.37054 34.4532 4.40788 31.0514 4.29234 27.4386H5.99956C6.40831 27.4386 6.73907 27.1087 6.73907 26.7012C6.73907 26.2936 6.40831 25.9638 5.99956 25.9638H4.29234C4.40789 22.3502 5.37054 18.9484 6.98822 15.9455L8.46362 16.7952C8.8146 16.9983 9.26885 16.8766 9.47394 16.5252C9.67832 16.1723 9.557 15.7215 9.20313 15.5177L7.72917 14.6701C9.58588 11.7018 12.1063 9.18788 15.0824 7.33718L15.9338 8.80622C16.1375 9.15908 16.5895 9.27789 16.9441 9.07626C17.298 8.87247 17.4193 8.42095 17.2149 8.06882L16.3621 6.59762C19.3735 4.98455 22.7858 4.02464 26.409 3.90942V5.61177C26.409 6.01936 26.7397 6.34918 27.1485 6.34918C27.5572 6.34918 27.888 6.01936 27.888 5.61177V3.90942C31.5104 4.02248 34.9321 4.96511 37.9522 6.56737L37.0827 8.06882C36.8776 8.42095 36.9989 8.87247 37.3528 9.07626C37.7067 9.27934 38.1588 9.16052 38.3624 8.80622L39.2348 7.30189C42.2159 9.14107 44.7436 11.6521 46.601 14.6514L45.0945 15.5177C44.7407 15.7215 44.6193 16.1723 44.8244 16.5252C45.0266 16.8766 45.4773 16.9983 45.834 16.7952L47.3376 15.9304C48.496 18.108 49.3178 20.5081 49.728 23.0718C49.793 23.4736 50.1628 23.7436 50.5758 23.6831C50.9788 23.619 51.2533 23.241 51.1897 22.8384C49.2933 11.0091 39.1828 2.4231 27.1485 2.4231Z"
    fill="currentColor" />
</svg>