<svg width="32" height="32" viewBox="0 0 32 32" fill="none" xmlns="http://www.w3.org/2000/svg">
<mask id="path-1-inside-1" fill="white">
<path fill-rule="evenodd" clip-rule="evenodd" d="M23.2567 18.0138C25.4308 14.6562 25.6899 10.2283 23.5526 6.52628C20.515 1.26506 13.7875 -0.537566 8.52628 2.5C3.26506 5.53757 1.46243 12.2651 4.5 17.5263C6.63734 21.2283 10.6016 23.2179 14.5964 23.0138L17.6962 28.3827L26.3564 23.3827L23.2567 18.0138Z"/>
</mask>
<path d="M23.2567 18.0138L21.9137 17.1442L21.3815 17.966L21.8711 18.8138L23.2567 18.0138ZM14.5964 23.0138L15.9821 22.2138L15.4926 21.366L14.5148 21.4159L14.5964 23.0138ZM17.6962 28.3827L16.3105 29.1827L17.1105 30.5683L18.4962 29.7683L17.6962 28.3827ZM26.3564 23.3827L27.1564 24.7683L28.542 23.9683L27.742 22.5827L26.3564 23.3827ZM22.1669 7.32628C23.9922 10.4878 23.774 14.2712 21.9137 17.1442L24.5997 18.8835C27.0877 15.0412 27.3876 9.96872 24.9382 5.72628L22.1669 7.32628ZM9.32628 3.88564C13.8222 1.2899 19.5712 2.83033 22.1669 7.32628L24.9382 5.72628C21.4588 -0.300208 13.7528 -2.36503 7.72628 1.11436L9.32628 3.88564ZM5.88564 16.7263C3.2899 12.2303 4.83033 6.48138 9.32628 3.88564L7.72628 1.11436C1.69979 4.59375 -0.365035 12.2998 3.11436 18.3263L5.88564 16.7263ZM14.5148 21.4159C11.0966 21.5905 7.71095 19.8878 5.88564 16.7263L3.11436 18.3263C5.56374 22.5687 10.1066 24.8453 14.6781 24.6117L14.5148 21.4159ZM19.0818 27.5827L15.9821 22.2138L13.2108 23.8138L16.3105 29.1827L19.0818 27.5827ZM25.5564 21.997L16.8962 26.997L18.4962 29.7683L27.1564 24.7683L25.5564 21.997ZM21.8711 18.8138L24.9708 24.1827L27.742 22.5827L24.6423 17.2138L21.8711 18.8138Z" fill="currentColor" mask="url(#path-1-inside-1)"/>
<path d="M15.7891 23.4793L23.0637 19.2793L25.6637 23.7827C26.8235 25.7915 26.1352 28.3602 24.1264 29.52C22.1176 30.6798 19.5489 29.9915 18.3891 27.9827L15.7891 23.4793Z" stroke="currentColor" stroke-width="1.6"/>
<path d="M16.7636 17.3739L14.1747 8.28382L10.9538 9.18118L11.7523 12.088" stroke="currentColor" stroke-width="1.6" stroke-linecap="round" stroke-linejoin="round"/>
</svg>
