<svg width="32" height="32" viewBox="0 0 32 32" fill="none" xmlns="http://www.w3.org/2000/svg">
<mask id="path-1-outside-1" maskUnits="userSpaceOnUse" x="5" y="1.34998" width="22" height="29" fill="black">
<rect fill="white" x="5" y="1.34998" width="22" height="29"/>
<path fill-rule="evenodd" clip-rule="evenodd" d="M16 27.65C16 27.65 25 19.7027 25 13.2108C25 7.76484 20.9706 3.34998 16 3.34998C11.0294 3.34998 7 7.76484 7 13.2108C7 19.7027 16 27.65 16 27.65ZM16 15.95C17.9882 15.95 19.6 14.3382 19.6 12.35C19.6 10.3618 17.9882 8.74998 16 8.74998C14.0118 8.74998 12.4 10.3618 12.4 12.35C12.4 14.3382 14.0118 15.95 16 15.95Z"/>
</mask>
<path fill-rule="evenodd" clip-rule="evenodd" d="M16 27.65C16 27.65 25 19.7027 25 13.2108C25 7.76484 20.9706 3.34998 16 3.34998C11.0294 3.34998 7 7.76484 7 13.2108C7 19.7027 16 27.65 16 27.65ZM16 15.95C17.9882 15.95 19.6 14.3382 19.6 12.35C19.6 10.3618 17.9882 8.74998 16 8.74998C14.0118 8.74998 12.4 10.3618 12.4 12.35C12.4 14.3382 14.0118 15.95 16 15.95Z" fill="currentColor"/>
<path d="M16 27.65L14.9409 28.8493L16 29.7845L17.0591 28.8493L16 27.65ZM23.4 13.2108C23.4 14.4832 22.9521 15.9388 22.1678 17.48C21.3908 19.0069 20.3368 20.5144 19.2531 21.8623C18.1731 23.2054 17.0889 24.3587 16.273 25.1772C15.8661 25.5855 15.5282 25.9082 15.2942 26.1268C15.1773 26.2361 15.0865 26.3193 15.0261 26.374C14.9959 26.4014 14.9734 26.4217 14.959 26.4345C14.9518 26.441 14.9467 26.4456 14.9436 26.4483C14.9421 26.4496 14.9411 26.4505 14.9407 26.4509C14.9405 26.4511 14.9404 26.4512 14.9404 26.4511C14.9404 26.4511 14.9406 26.451 14.9406 26.451C14.9407 26.4508 14.9409 26.4506 16 27.65C17.0591 28.8493 17.0593 28.8491 17.0596 28.8488C17.0598 28.8487 17.0601 28.8484 17.0604 28.8481C17.061 28.8476 17.0617 28.8469 17.0626 28.8462C17.0643 28.8446 17.0666 28.8426 17.0694 28.8401C17.075 28.8351 17.0828 28.8282 17.0926 28.8194C17.1123 28.8018 17.1403 28.7766 17.176 28.7442C17.2475 28.6794 17.35 28.5855 17.4792 28.4648C17.7374 28.2235 18.1027 27.8745 18.5395 27.4363C19.4111 26.5618 20.5769 25.3226 21.7469 23.8675C22.9132 22.417 24.1092 20.7205 25.0197 18.9314C25.9229 17.1567 26.6 15.1844 26.6 13.2108H23.4ZM16 4.94998C19.9525 4.94998 23.4 8.50779 23.4 13.2108H26.6C26.6 7.02188 21.9886 1.74998 16 1.74998V4.94998ZM8.6 13.2108C8.6 8.50779 12.0475 4.94998 16 4.94998V1.74998C10.0114 1.74998 5.4 7.02188 5.4 13.2108H8.6ZM16 27.65C17.0591 26.4506 17.0593 26.4508 17.0594 26.451C17.0594 26.451 17.0596 26.4511 17.0596 26.4511C17.0596 26.4512 17.0595 26.4511 17.0593 26.4509C17.0589 26.4505 17.0579 26.4496 17.0564 26.4483C17.0533 26.4456 17.0482 26.441 17.041 26.4345C17.0266 26.4217 17.0041 26.4014 16.9739 26.374C16.9135 26.3193 16.8227 26.2361 16.7058 26.1268C16.4718 25.9082 16.1339 25.5855 15.727 25.1772C14.9111 24.3587 13.8269 23.2054 12.7469 21.8623C11.6632 20.5144 10.6092 19.0069 9.83222 17.48C9.04787 15.9388 8.6 14.4832 8.6 13.2108H5.4C5.4 15.1844 6.07713 17.1567 6.98028 18.9314C7.89076 20.7205 9.08681 22.417 10.2531 23.8675C11.4231 25.3226 12.5889 26.5618 13.4605 27.4363C13.8973 27.8745 14.2626 28.2235 14.5208 28.4648C14.65 28.5855 14.7525 28.6794 14.824 28.7442C14.8597 28.7766 14.8877 28.8018 14.9074 28.8194C14.9172 28.8282 14.925 28.8351 14.9306 28.8401C14.9334 28.8426 14.9357 28.8446 14.9374 28.8462C14.9383 28.8469 14.939 28.8476 14.9396 28.8481C14.9399 28.8484 14.9402 28.8487 14.9404 28.8488C14.9407 28.8491 14.9409 28.8493 16 27.65ZM18 12.35C18 13.4545 17.1046 14.35 16 14.35V17.55C18.8719 17.55 21.2 15.2219 21.2 12.35H18ZM16 10.35C17.1046 10.35 18 11.2454 18 12.35H21.2C21.2 9.47809 18.8719 7.14998 16 7.14998V10.35ZM14 12.35C14 11.2454 14.8954 10.35 16 10.35V7.14998C13.1281 7.14998 10.8 9.4781 10.8 12.35H14ZM16 14.35C14.8954 14.35 14 13.4545 14 12.35H10.8C10.8 15.2219 13.1281 17.55 16 17.55V14.35Z" fill="white" mask="url(#path-1-outside-1)"/>
</svg>
