<svg width="31" height="33" viewBox="0 0 31 33" fill="none" xmlns="http://www.w3.org/2000/svg">
<path d="M27.985 6.46436H27.8661C27.7524 7.58143 26.9109 8.4688 25.8516 8.58861V8.71399C26.9109 8.8338 27.7524 9.72117 27.8661 10.8382H27.985C28.0986 9.72117 28.9401 8.83381 29.9995 8.71399V8.58861C28.9401 8.4688 28.0986 7.58143 27.985 6.46436Z" stroke="#222222"/>
<path d="M21.5054 1H21.3228C21.1482 2.70282 19.8557 4.05548 18.2285 4.23812V4.42924C19.8557 4.61188 21.1482 5.96454 21.3228 7.66736H21.5054C21.6799 5.96454 22.9725 4.61188 24.5996 4.42924V4.23812C22.9725 4.05548 21.6799 2.70282 21.5054 1Z" stroke="#222222"/>
<path d="M3.75087 20.2502H3.61763C3.49032 21.4922 2.54738 22.4787 1.36035 22.6119V22.7513C2.54738 22.8845 3.49032 23.871 3.61763 25.1129H3.75087C3.87818 23.871 4.82112 22.8845 6.00815 22.7513V22.6119C4.82112 22.4787 3.87818 21.4922 3.75087 20.2502Z" stroke="#222222"/>
<path d="M0.129289 2.86819C-0.109735 3.13555 -0.00637299 3.51654 0.348933 3.65691C0.452295 3.69701 1.12415 3.72375 1.97042 3.72375C3.51439 3.72375 4.05703 3.79059 4.89039 4.08469C5.14233 4.17158 7.95894 5.43487 11.1502 6.88532C14.348 8.34245 17.0031 9.53221 17.0548 9.5389C17.507 9.60574 17.8106 9.14454 17.5457 8.7836C17.4747 8.68333 14.0508 7.09252 9.39954 4.99373C9.01194 4.81994 7.95894 4.34537 7.06744 3.93764C4.56738 2.80135 4.225 2.72114 1.8606 2.72114C0.303712 2.72114 0.258491 2.72782 0.129289 2.86819Z" fill="#222222"/>
<path d="M18.7414 9.63916C18.4571 10.0202 18.6057 10.3009 19.2517 10.5749C19.7944 10.8089 19.8331 10.8423 19.8331 11.1431C19.8331 11.5374 20.1368 12.6604 20.3887 13.2151C20.7246 13.9571 20.8409 14.1242 22.6885 16.5772L24.3875 18.8231L25.4405 22.7533L26.4935 26.6836L26.3449 26.7838C25.5633 27.3119 25.1369 28.2677 25.2661 29.2369C25.2919 29.4441 25.3113 29.6312 25.2984 29.6379C25.2596 29.678 24.6911 28.8692 24.4327 28.4147C24.155 27.9201 23.6898 26.7905 23.4637 26.0486C23.3862 25.8079 23.0503 24.5781 22.7079 23.3081C22.3655 22.0381 22.0296 20.8016 21.9585 20.5543C21.8422 20.1398 21.6807 19.9059 19.8267 17.4462C18.5993 15.8152 17.753 14.7592 17.6496 14.7124C17.3266 14.5653 16.9907 14.7993 16.9907 15.1669C16.9907 15.2672 17.669 16.223 18.9804 17.9608L20.9766 20.601L21.9133 24.0968L22.85 27.5859L22.6368 27.7196C22.3267 27.9268 21.9714 28.3613 21.7841 28.7757C21.5967 29.2034 21.5257 29.8919 21.629 30.293L21.7001 30.5603L21.4094 30.2328C20.9249 29.6847 20.4275 28.7155 19.9882 27.479C19.8719 27.1448 19.4843 25.7745 19.1225 24.4377C18.7608 23.1009 18.4119 21.9111 18.3409 21.8042C18.2763 21.6905 17.5592 20.728 16.7517 19.6653C15.1302 17.5331 15.0204 17.4261 14.5488 17.5531C14.4131 17.5932 14.2322 17.7002 14.1547 17.787C13.8446 18.1213 13.864 18.1948 15.1754 23.0407L16.3964 27.5525L16.2542 27.6527C15.395 28.281 14.9622 29.3104 15.1689 30.2395C15.2012 30.3999 15.2142 30.5269 15.1883 30.5269C15.1689 30.5202 15.0268 30.3598 14.8718 30.1593C14.2064 29.297 13.6185 27.9268 13.0823 25.9817C12.9144 25.3735 12.7399 24.812 12.6947 24.7385C12.5203 24.4644 12.1133 24.4979 11.913 24.812C11.8097 24.9791 11.8161 25.0192 12.0745 25.9884C12.7787 28.6019 13.5281 30.2127 14.51 31.222C14.7232 31.4493 15.0591 31.7167 15.2529 31.8236C15.4467 31.9372 15.7633 32.1979 15.9571 32.4051C16.3511 32.8262 16.7452 33 17.3137 33C17.9985 33 18.4507 32.7326 18.5605 32.2581C18.5928 32.1311 18.0954 30.186 16.8938 25.7077C15.9571 22.2052 15.1948 19.3244 15.2077 19.3177C15.2465 19.2776 17.5075 22.2921 17.5656 22.4592C17.5979 22.5528 17.8886 23.5955 18.2117 24.7853C18.9287 27.4522 19.1419 28.1139 19.6716 29.2302C20.3112 30.587 21.0153 31.4627 21.7906 31.8771C21.9327 31.9506 22.2105 32.1845 22.4107 32.3984C22.695 32.7059 22.8435 32.8128 23.1213 32.8931C23.8449 33.1136 24.6653 32.9532 24.8914 32.5455C25.0852 32.2046 25.0529 31.9506 24.633 30.5002C24.6072 30.3932 24.6524 30.4133 24.8656 30.587C25.0141 30.7074 25.279 30.8878 25.4534 30.9881C25.6279 31.0884 25.8604 31.2889 25.9638 31.4426C26.0865 31.6164 26.2868 31.7835 26.5258 31.9038C26.8424 32.0642 26.9716 32.091 27.4173 32.091C27.7468 32.0843 28.031 32.0442 28.1796 31.9773C28.4509 31.857 28.6835 31.5228 28.6835 31.2488C28.6835 31.1485 28.4961 30.3665 28.2636 29.5109C28.031 28.662 27.8437 27.9402 27.8437 27.9134C27.8437 27.8934 28.0246 27.88 28.2507 27.9001C28.5801 27.9201 28.6899 27.9067 28.8644 27.7864C29.2843 27.5191 29.2649 27.7864 29.2649 21.3229C29.2649 14.9931 29.2649 15.0065 28.9225 14.3982C28.5284 13.7031 28.4832 13.6763 23.735 11.5174C21.3254 10.4145 19.2453 9.50548 19.1161 9.48543C18.9223 9.46538 18.8577 9.49211 18.7414 9.63916ZM24.2777 12.8609C27.23 14.1977 27.6499 14.4116 27.8824 14.6522C28.0569 14.8394 28.1731 15.0332 28.2184 15.2404C28.27 15.4543 28.2959 16.5973 28.2959 18.9434V22.3389L27.9729 22.4592C27.5788 22.6063 27.1718 22.9204 26.894 23.3014C26.7584 23.4819 26.6679 23.5554 26.6486 23.4952C26.6356 23.4485 26.3126 22.2721 25.9444 20.8818L25.2661 18.3619L23.5412 16.0692C21.6355 13.5493 21.4159 13.2218 21.1639 12.5735C20.9507 12.0321 20.7892 11.3436 20.8732 11.3436C20.9055 11.3436 22.4366 12.0254 24.2777 12.8609ZM28.2959 25.1796C28.2959 26.5231 28.2765 26.9175 28.2184 26.9175C28.0504 26.9108 27.5982 26.6568 27.4948 26.5098C27.3333 26.2691 27.3462 24.5179 27.5142 24.1369C27.6305 23.8629 28.0569 23.4418 28.2119 23.4418C28.2765 23.4418 28.2959 23.8161 28.2959 25.1796ZM27.217 29.3572C27.4561 30.2595 27.6369 31.0282 27.6176 31.0616C27.5336 31.202 26.9393 31.0616 26.7584 30.8611C26.6098 30.694 26.2157 29.2302 26.2157 28.8425C26.2157 28.6821 26.2545 28.4682 26.2932 28.3546C26.3772 28.134 26.6615 27.7196 26.7325 27.7196C26.7584 27.7196 26.978 28.4548 27.217 29.3572ZM17.1199 30.293C17.3395 31.1017 17.5269 31.8169 17.5463 31.8771C17.5979 32.0642 17.0747 32.0375 16.7904 31.8437C16.5902 31.7033 16.5449 31.6097 16.3318 30.8611C16.2026 30.3999 16.0927 29.9253 16.0927 29.7983C16.0863 29.4574 16.209 29.0898 16.4287 28.8158C16.6741 28.515 16.616 28.388 17.1199 30.293ZM23.5477 30.1994C23.7803 31.0616 23.987 31.8169 24.0064 31.8904C24.0451 32.0041 24.0128 32.0108 23.6769 31.984C23.1472 31.9372 23.0438 31.8036 22.7725 30.7876C22.5335 29.9053 22.5076 29.6981 22.611 29.3238C22.6691 29.1032 23.0503 28.5484 23.102 28.6086C23.1149 28.6219 23.3151 29.3371 23.5477 30.1994Z" fill="#222222"/>
<path d="M0.129424 10.3209C0.000221501 10.4947 -0.0126987 10.5549 0.0260619 11.0896C0.0842029 11.905 0.271546 12.6069 0.646232 13.3822C1.19534 14.5386 1.97701 15.4276 2.96541 16.0291C3.17859 16.1628 4.92282 16.9849 6.83502 17.8539L10.317 19.438L10.8274 21.3563C11.3636 23.3816 11.4475 23.5754 11.7899 23.5754C11.9902 23.5754 12.2744 23.3014 12.2744 23.1142C12.2744 22.8469 11.1633 18.8632 11.0599 18.7495C11.0018 18.6827 9.78728 18.1012 8.36606 17.4595C6.94484 16.8112 5.31689 16.0692 4.7484 15.8085C3.55328 15.2605 3.02355 14.9262 2.49382 14.3782C1.60879 13.4624 1.09198 12.2927 0.988618 10.9893C0.943397 10.3543 0.814195 10.1405 0.48473 10.1405C0.323227 10.1405 0.232785 10.1872 0.129424 10.3209Z" fill="#222222"/>
</svg>
