<svg width="10" height="18" viewBox="0 0 10 18" fill="none" xmlns="http://www.w3.org/2000/svg">
<path d="M7.84073 0.75H2.38619C1.44528 0.75 0.681641 1.59 0.681641 2.625V15.375C0.681641 16.41 1.44528 17.25 2.38619 17.25H7.84073C8.78164 17.25 9.54528 16.41 9.54528 15.375V2.625C9.54528 1.59 8.78164 0.75 7.84073 0.75ZM5.11346 16.5C4.54755 16.5 4.09073 15.9975 4.09073 15.375C4.09073 14.7525 4.54755 14.25 5.11346 14.25C5.67937 14.25 6.13619 14.7525 6.13619 15.375C6.13619 15.9975 5.67937 16.5 5.11346 16.5ZM8.18164 13.5H2.04528V3H8.18164V13.5Z" fill="#222222"/>
</svg>
