<svg width="57" height="56" viewBox="0 0 57 56" fill="none" xmlns="http://www.w3.org/2000/svg">
<path d="M9.60007 0.39357C7.83607 1.17757 6.32407 3.27757 6.26807 5.04157C6.26807 5.96557 6.54807 6.41357 8.92807 9.12957C13.7441 14.5896 18.2801 18.6216 21.5001 20.3296C22.2001 20.6936 23.2921 21.3936 23.9361 21.8696C25.0561 22.7096 25.1681 22.7376 26.0081 22.3736C26.5121 22.1776 27.3241 21.6736 27.8001 21.2256L28.6961 20.4696L33.1761 23.8856C36.0321 26.0696 38.3281 28.0856 39.5321 29.4856C40.5681 30.6616 41.6601 31.7816 41.9681 31.9496C43.2841 32.6496 45.5801 31.0816 45.5801 29.5136C45.5801 28.2536 45.0481 27.7216 42.2481 26.3216C40.4841 25.4536 37.8801 23.7176 35.0241 21.5336L30.5721 18.1176L31.1041 17.0536C31.3841 16.4656 31.6921 15.5136 31.7761 14.9256C31.9161 13.8896 31.8601 13.8056 28.8641 11.0896C25.1121 7.64557 21.6681 5.37757 15.9841 2.54957C10.7481 -0.0544281 10.6641 -0.0824318 9.60007 0.39357ZM13.9681 2.35357C19.8761 5.12557 24.2161 7.84157 27.0161 10.4736L28.5001 11.8456L27.1841 12.6856C25.7281 13.6656 23.3481 16.7176 22.8721 18.2016C22.7041 18.7336 22.5361 19.3496 22.4521 19.5456C22.2001 20.3856 18.5601 17.8096 14.5561 13.8896C10.4401 9.88557 6.94007 5.79757 6.94007 5.04157C6.94007 3.58557 9.23607 0.84157 10.4681 0.84157C10.6361 0.84157 12.2041 1.51357 13.9681 2.35357ZM29.5641 12.8536C29.8441 13.0216 29.7041 13.2456 28.9481 13.6936C28.4161 14.0296 27.4361 14.8976 26.7921 15.6256C25.6721 16.8856 24.0201 19.9096 24.0201 20.6936C24.0201 21.0016 23.9361 21.0016 23.5721 20.6936C22.4241 19.7416 24.7761 15.3456 27.4641 13.4136C28.6401 12.5456 28.9761 12.4616 29.5641 12.8536ZM30.8521 15.0656C30.8521 15.6816 30.6281 16.5216 30.3481 16.9416L29.8721 17.6696L28.7521 16.7736C27.6601 15.9056 27.6601 15.8776 28.1361 15.3176C28.8081 14.5896 30.2361 13.6936 30.6001 13.8336C30.7681 13.8616 30.8801 14.4216 30.8521 15.0656ZM32.5601 20.6096C35.5001 22.8496 38.1321 24.8656 38.4401 25.0896C38.9721 25.4816 38.9721 25.4816 38.4401 26.0136C37.8801 26.5736 37.8241 26.5456 32.5601 22.4856C29.6481 20.2456 27.0161 18.2576 26.7361 18.0616C26.3161 17.7536 26.2601 17.5856 26.5121 17.1096C26.7081 16.7736 26.9321 16.5216 27.0441 16.5216C27.1561 16.5216 29.6481 18.3696 32.5601 20.6096ZM27.9401 20.1336C27.9401 20.3856 25.6721 21.8416 25.2241 21.8416C24.7201 21.8416 24.7761 20.3856 25.3361 19.2096L25.7841 18.2296L26.8761 19.0696C27.4641 19.5456 27.9401 20.0216 27.9401 20.1336ZM44.6841 29.2336C44.7961 30.1856 43.8161 31.3616 42.9201 31.3616C42.1641 31.3616 41.8281 31.0816 40.0081 28.9256L38.5241 27.1896L39.0561 26.5176L39.5601 25.8176L42.0801 27.1056C44.2641 28.2536 44.6001 28.5336 44.6841 29.2336Z" fill="#1A4D6A"/>
<path d="M49.6681 24.4149C49.3601 25.2549 48.9121 25.7869 48.2121 26.1789L47.2041 26.7669L48.2121 27.2989C48.9121 27.6629 49.3601 28.2229 49.7241 29.1189L50.2561 30.3789L50.8161 29.0629C51.2081 28.2229 51.7121 27.6069 52.2721 27.2989C52.7481 27.0749 53.1401 26.7949 53.1401 26.7389C53.1401 26.6829 52.7481 26.4029 52.2721 26.1789C51.7401 25.8709 51.2081 25.2549 50.8721 24.4709C50.5641 23.7989 50.2841 23.2389 50.2281 23.2389C50.1721 23.2389 49.9201 23.7709 49.6681 24.4149ZM50.9001 27.4669C50.2841 28.1389 50.1721 28.1669 49.9481 27.7469C49.8081 27.4949 49.5001 27.1869 49.3041 27.0749C48.9681 26.8789 48.9961 26.7389 49.4721 26.2909C49.8081 25.9829 50.0601 25.5909 50.0601 25.4229C50.0601 25.2549 50.3961 25.4789 50.8441 25.9269L51.6001 26.7389L50.9001 27.4669Z" fill="#1A4D6A"/>
<path d="M30.3201 30.296C29.3401 30.828 28.4721 31.752 27.9121 32.844C27.6041 33.432 27.0721 34.02 26.7361 34.132C25.2521 34.692 24.1881 36.008 22.8441 38.836C22.1161 40.404 21.5001 41.832 21.5001 42C21.5001 42.14 21.3881 42.28 21.2201 42.28C20.8561 42.28 20.8561 42 21.3601 40.6C22.2001 38.248 21.7801 36.148 20.3521 35.56C19.1481 35.056 17.8041 35.644 16.2641 37.38C15.5081 38.192 14.4721 39.06 13.9401 39.284C11.8681 40.152 10.6641 41.944 6.18411 50.568C4.89611 53.032 3.86011 55.216 3.86011 55.384C3.86011 56.336 4.58811 55.384 5.98811 52.556C8.20011 48.16 10.9721 43.176 11.9241 41.86C12.3721 41.244 13.1281 40.516 13.6041 40.236L14.4721 39.732L13.2401 42.336C11.7281 45.556 11.5041 46.676 12.0921 47.824C12.7081 49.028 13.6041 49.56 14.9201 49.56C16.5161 49.56 17.3281 48.776 19.1201 45.5C19.9601 43.96 20.6601 42.952 20.6601 43.26C20.6601 43.54 19.6521 46.34 18.4201 49.448C17.1881 52.528 16.1801 55.244 16.1801 55.412C16.1801 56.616 17.1041 54.74 19.5121 48.72C22.9001 40.208 24.3561 37.072 25.4761 35.896C25.9801 35.42 26.4561 35 26.5681 35C26.6801 35 26.3441 36.204 25.8121 37.66C24.3281 41.832 24.6361 43.764 26.9321 44.52C29.3401 45.304 30.4601 44.072 32.8401 37.94C33.0361 37.436 33.0921 37.492 33.3441 38.304C33.7081 39.48 33.2601 41.104 30.4041 48.972C28.1641 55.188 27.9961 55.832 28.5001 55.664C28.8641 55.552 29.2841 54.46 32.0281 46.76C33.4561 42.756 34.5761 40.712 35.1081 41.244C35.2201 41.328 34.9681 42.196 34.5761 43.176C33.4841 45.976 33.1761 47.712 33.6521 48.86C34.3521 50.484 36.3401 51.128 38.0201 50.26C38.8881 49.812 39.9801 47.936 40.9601 45.22C41.7721 42.952 42.0241 43.036 41.8561 45.5C41.7721 47.124 41.3801 48.804 40.4561 51.66C39.7281 53.816 39.2801 55.692 39.3921 55.804C39.7281 56.14 39.7561 56.084 41.2401 51.52C42.7241 46.928 43.0601 44.604 42.4441 43.12C42.1361 42.392 42.1081 41.888 42.3041 41.16C42.6961 39.62 42.4161 37.296 41.7161 36.596C40.3721 35.28 37.9081 36.288 36.6481 38.696C36.2281 39.424 35.6121 40.068 35.0521 40.348L34.1001 40.796V39.34C34.1001 38.528 33.9601 37.492 33.7921 37.016C33.5681 36.4 33.5961 35.728 33.8201 34.608C34.4921 31.276 32.6441 29.008 30.3201 30.296ZM32.7001 31.22C33.4841 32.172 33.3721 33.964 32.2801 37.128C30.5161 42.336 29.4801 43.932 27.9401 43.96C27.0161 43.96 26.0081 43.26 25.6721 42.392C25.0841 40.824 27.6041 33.964 29.5081 32.004C30.7401 30.716 32.0281 30.408 32.7001 31.22ZM20.4921 36.568C21.6401 37.688 21.3041 39.312 19.1201 43.82C17.1321 47.852 16.3201 48.832 14.9201 48.832C13.6601 48.832 12.5401 47.74 12.5401 46.536C12.5401 45.5 14.1641 41.888 15.7321 39.368C17.5241 36.512 19.3721 35.42 20.4921 36.568ZM41.2681 37.268C42.3601 38.472 41.6321 42.14 39.2801 47.236C38.5241 48.888 38.1601 49.364 37.4321 49.672C36.2841 50.148 35.1081 49.812 34.4641 48.804C33.8761 47.908 34.2121 46.144 35.6681 42.504C36.9561 39.256 37.7961 37.94 38.9441 37.24C40.0921 36.54 40.5961 36.54 41.2681 37.268Z" fill="#1A4D6A"/>
<path d="M40.4562 39.1717C40.3722 39.6197 40.2042 40.3477 40.0922 40.7677C39.9522 41.3557 40.0082 41.4957 40.2042 41.2997C40.5962 40.9357 41.1002 38.6677 40.8202 38.4997C40.7082 38.4157 40.5402 38.7237 40.4562 39.1717Z" fill="#1A4D6A"/>
<path d="M47.5402 30.9137C47.3722 31.4737 46.8682 32.1177 46.3642 32.4257L45.5242 32.9577L46.3362 33.4617C46.8402 33.7697 47.3442 34.4137 47.5962 35.1137L48.0442 36.2617L48.5202 35.0577C48.8282 34.3017 49.3042 33.7137 49.8362 33.4337L50.6762 32.9857L49.8082 32.4537C49.3322 32.1737 48.7722 31.5017 48.5482 30.9417C48.3242 30.4097 48.0722 29.9617 47.9882 29.9617C47.9322 29.9617 47.7082 30.3817 47.5402 30.9137ZM48.5762 33.4617C48.1562 33.8537 48.0722 33.8537 47.5962 33.4337C47.0922 33.0137 47.0922 32.9297 47.5122 32.4817C47.9322 32.0337 47.9882 32.0337 48.4922 32.5097C48.9682 32.9577 48.9962 33.0417 48.5762 33.4617Z" fill="#1A4D6A"/>
</svg>