<svg width="25" height="23" viewBox="0 0 25 23" fill="none" xmlns="http://www.w3.org/2000/svg">
  <path
    d="M11.046 0.34375C10.9483 0.346192 10.8574 0.365725 10.7725 0.398515L0.857587 4.35997C0.541567 4.44891 0.305251 4.76616 0.310653 5.09438V17.5957C0.304375 17.9457 0.576271 18.2803 0.920005 18.3458L10.6318 22.7213C10.8848 22.8854 11.2491 22.8919 11.4991 22.7136L17.5234 20.0023L19.0158 21.6041C19.3121 21.9215 19.8271 21.9223 20.1097 21.6041L23.5866 17.8849C24.5387 16.858 24.565 15.1881 23.5866 14.1502C23.0916 13.625 22.4535 13.3563 21.8129 13.3455V5.0946C21.8198 4.75975 21.5746 4.43605 21.2502 4.35234L11.3505 0.398743C11.2483 0.35863 11.1435 0.342237 11.0458 0.343979L11.046 0.34375ZM11.0615 1.89856L19.0311 5.08631L16.0622 6.28166L8.09259 3.09391L11.0617 1.89856H11.0615ZM6.06094 3.89882L14.0305 7.08657L11.0615 8.28192L3.09187 5.08631L6.06094 3.8986V3.89882ZM1.81053 6.20375L10.3114 9.60256V20.9319L1.81053 17.1112V6.20375ZM20.3125 6.20375V13.8452C20.1941 13.9354 20.0734 14.0353 19.9688 14.1499L19.5624 14.5875L19.156 14.1499C18.0854 13.1064 16.527 13.0686 15.5385 14.1499C14.5659 15.1932 14.5659 16.8413 15.5385 17.8846L16.4449 18.8534L11.8119 20.9318V9.60243L15.3121 8.20389V11.0948C15.3066 11.4911 15.6658 11.8528 16.0623 11.8528C16.4585 11.8528 16.818 11.4913 16.8124 11.0948V7.60217L20.3127 6.20363L20.3125 6.20375ZM21.7737 14.8297C22.0236 14.8297 22.2796 14.9451 22.4926 15.1734C22.9183 15.63 22.9183 16.4045 22.4926 16.8612L19.5628 20.0022L16.6328 16.8612C16.2071 16.4045 16.2071 15.63 16.6328 15.1734C16.8457 14.945 17.1025 14.853 17.3517 14.853C17.6009 14.853 17.8484 14.9436 18.0628 15.1734L19.0082 16.197C19.2881 16.4998 19.83 16.4998 20.1099 16.197L21.0633 15.1734C21.276 14.9451 21.5242 14.8297 21.7743 14.8297H21.7737Z"
    fill="currentColor" />
</svg>
