<svg width="14" height="20" viewBox="0 0 14 20" fill="none" xmlns="http://www.w3.org/2000/svg">
<mask id="path-1-inside-1_21435_231418" fill="white">
<path fill-rule="evenodd" clip-rule="evenodd" d="M4 0H2C0.89543 0 0 0.89543 0 2V18C0 19.1046 0.89543 20 2 20H4C5.10457 20 6 19.1046 6 18V2C6 0.89543 5.10457 0 4 0ZM12 0H10C8.89543 0 8 0.89543 8 2V18C8 19.1046 8.89543 20 10 20H12C13.1046 20 14 19.1046 14 18V2C14 0.89543 13.1046 0 12 0Z"/>
</mask>
<path fill-rule="evenodd" clip-rule="evenodd" d="M4 0H2C0.89543 0 0 0.89543 0 2V18C0 19.1046 0.89543 20 2 20H4C5.10457 20 6 19.1046 6 18V2C6 0.89543 5.10457 0 4 0ZM12 0H10C8.89543 0 8 0.89543 8 2V18C8 19.1046 8.89543 20 10 20H12C13.1046 20 14 19.1046 14 18V2C14 0.89543 13.1046 0 12 0Z" fill="black"/>
<path d="M2 2H4V-2H2V2ZM2 2V-2C-0.209139 -2 -2 -0.209139 -2 2H2ZM2 18V2H-2V18H2ZM2 18H-2C-2 20.2091 -0.209139 22 2 22V18ZM4 18H2V22H4V18ZM4 18V22C6.20914 22 8 20.2091 8 18H4ZM4 2V18H8V2H4ZM4 2H8C8 -0.209139 6.20914 -2 4 -2V2ZM10 2H12V-2H10V2ZM10 2V-2C7.79086 -2 6 -0.209139 6 2H10ZM10 18V2H6V18H10ZM10 18H6C6 20.2091 7.79086 22 10 22V18ZM12 18H10V22H12V18ZM12 18V22C14.2091 22 16 20.2091 16 18H12ZM12 2V18H16V2H12ZM12 2H16C16 -0.209139 14.2091 -2 12 -2V2Z" fill="black" mask="url(#path-1-inside-1_21435_231418)"/>
</svg>
