<svg width="24" height="24" viewBox="0 0 24 24" fill="none" xmlns="http://www.w3.org/2000/svg">
<path d="M3.1996 4.38074L1.25846 11.6252C1.11552 12.1587 1.4321 12.707 1.96557 12.8499L2.61899 13.025M3.1996 4.38074L3.84665 1.96593C3.98959 1.43246 4.53793 1.11588 5.07139 1.25882L21.4921 5.65874C22.0256 5.80168 22.3422 6.35002 22.1992 6.88349L21.5522 9.2983M3.1996 4.38074L15.9998 7.81053M21.5522 9.2983L20.711 12.4376M21.5522 9.2983L19.9998 8.88233" stroke="currentColor" stroke-width="1.6" stroke-linejoin="round"/>
<rect x="2" y="11.6587" width="18" height="12" rx="1" transform="rotate(-15 2 11.6587)" stroke="currentColor" stroke-width="1.6" stroke-linejoin="round"/>
<circle cx="7.51095" cy="14.8407" r="1.5" transform="rotate(-15 7.51095 14.8407)" stroke="currentColor" stroke-width="1.6" stroke-linejoin="round"/>
<circle cx="10.4094" cy="14.0642" r="1.5" transform="rotate(-15 10.4094 14.0642)" stroke="currentColor" stroke-width="1.6" stroke-linejoin="round"/>
</svg>
