<svg width="30" height="32" viewBox="0 0 30 32" fill="none" xmlns="http://www.w3.org/2000/svg">
<path d="M13.2022 0.161942C13.1132 0.243211 13.0432 0.36824 13.0432 0.437006C13.0432 0.505771 13.1704 0.868354 13.3231 1.23719C14.7102 4.5692 14.6847 8.06375 13.2404 10.8581C13.0686 11.202 12.7059 11.8146 12.4387 12.2272C10.7844 14.784 10.6381 16.547 11.9679 17.966C12.6614 18.7162 13.8067 19.3538 15.6201 20.0102C17.1408 20.5666 18.0188 21.0855 18.916 21.9857C19.5395 22.5983 20.0231 23.261 20.7548 24.48C21.9319 26.443 22.0273 26.5743 22.6254 27.1619C23.2299 27.7558 23.8916 28.2559 24.7506 28.7623C26.6976 29.9125 28.5682 30.0063 29.4844 29.0061C29.8917 28.5622 29.9998 28.3059 29.9998 27.7933C29.9935 27.0619 29.7962 26.768 28.3137 25.324C27.6202 24.6551 26.9457 23.9486 26.8057 23.7611C26.0358 22.7234 25.5014 21.3543 24.9478 18.9788C24.6679 17.7972 24.5915 17.6347 24.2734 17.6347C24.0507 17.6347 23.7962 17.866 23.7962 18.0723C23.7962 18.3036 24.1716 19.9227 24.4324 20.7917C24.8715 22.292 25.4441 23.5298 26.0867 24.38C26.284 24.6426 26.9394 25.3115 27.5311 25.8678C28.9436 27.1869 29.2427 27.6495 28.9945 28.1121C28.3519 29.3249 26.004 28.7935 23.7262 26.9056C22.9626 26.2742 22.8354 26.1054 21.5183 23.9049C20.7293 22.5983 20.2521 21.9607 19.5013 21.2293C18.5469 20.2853 17.5798 19.7289 15.7791 19.0663C14.1248 18.4599 13.2531 17.9785 12.6868 17.3659C11.6497 16.2406 11.8342 14.8716 13.3231 12.6023C15.2638 9.64537 15.7791 6.38837 14.8565 2.81255C14.672 2.11239 14.3157 1.07465 14.0612 0.530777C13.8131 -0.0130977 13.5076 -0.144378 13.2022 0.161942Z" fill="#222222"/>
<path d="M20.6975 0.168315C20.5385 0.3246 20.5385 0.330852 20.5766 1.05602C20.8757 6.18844 21.2638 9.02034 21.951 11.0958C22.5364 12.8837 22.8418 13.9715 23.2235 15.6344C23.4017 16.4095 23.6053 16.6221 24.0062 16.4408C24.2861 16.3158 24.3179 16.1345 24.1779 15.4906C23.9107 14.3153 23.4081 12.4899 23.039 11.3771C22.829 10.7457 22.6 10.0018 22.53 9.72676C22.1037 8.03262 21.7728 5.15071 21.5311 1.04352C21.4929 0.374612 21.4738 0.28084 21.3402 0.14956C21.1493 -0.0379827 20.9011 -0.0317313 20.6975 0.168315Z" fill="#222222"/>
<path d="M6.45193 2.16226C5.59932 2.34356 4.79126 2.78741 4.12953 3.43756C3.32783 4.22524 2.86971 5.16295 2.74246 6.2632C2.45614 8.72627 4.14862 10.9455 6.66826 11.4206C8.17623 11.702 9.77327 11.2206 10.874 10.1391C11.4149 9.61397 11.7457 9.11386 12.0066 8.44496C12.3629 7.51349 12.4138 6.62579 12.1784 5.63181C12.0193 4.98791 11.6375 4.75661 11.294 5.10044C11.1031 5.28173 11.1031 5.28798 11.2431 5.78184C11.3131 6.02565 11.3512 6.39448 11.3512 6.81958C11.3449 7.36346 11.3194 7.551 11.1794 7.93234C10.6322 9.46394 9.34061 10.4392 7.73084 10.5517C6.61736 10.6205 5.63114 10.2391 4.80398 9.42018C4.02137 8.63875 3.69051 7.86357 3.68414 6.78833C3.67778 6.08816 3.7605 5.74434 4.09136 5.06918C4.5622 4.11896 5.51025 3.36879 6.58555 3.09998C7.66721 2.83117 8.93339 3.09373 9.84326 3.76263C10.0596 3.92517 10.295 4.0752 10.3586 4.09396C10.6831 4.19398 11.0331 3.78139 10.8931 3.47507C10.7086 3.08123 9.55694 2.41232 8.68525 2.19352C8.09987 2.04349 7.06275 2.03098 6.45193 2.16226Z" fill="#222222"/>
<path d="M9.32257 5.13181C9.25258 5.15681 8.71175 5.66318 8.11365 6.25081L7.03835 7.31981L6.38935 6.69467C5.86124 6.18205 5.7149 6.06952 5.55583 6.06952C5.27587 6.06952 5.07227 6.25707 5.07227 6.50087C5.07227 6.67591 5.18679 6.81344 5.95668 7.57612C6.69476 8.30754 6.87292 8.44507 7.03199 8.44507C7.19105 8.44507 7.42011 8.25127 8.60358 7.08226C9.60889 6.10078 9.99065 5.68193 9.99065 5.57566C9.99065 5.41937 9.67252 5.06929 9.53254 5.07555C9.488 5.07555 9.39256 5.10055 9.32257 5.13181Z" fill="#222222"/>
<path d="M0.916257 11.6583C0.3627 11.9146 2.44681e-05 12.4522 2.44681e-05 13.0399C2.44681e-05 13.6525 -0.0381519 13.6087 2.90143 16.5094L5.65649 19.2288L5.44015 20.4166C5.31926 21.0667 5.21746 21.7606 5.21746 21.9482C5.21746 22.6296 5.12838 22.5358 10.0277 27.3306C12.5091 29.7624 14.6343 31.7942 14.7488 31.8567C15.0479 32.0005 15.5378 32.0442 15.875 31.9504C16.2313 31.8504 16.7149 31.4441 16.8676 31.1065C17.0458 30.7314 17.0267 30.1688 16.8294 29.7937L16.6767 29.4874L17.6184 28.5434C18.4901 27.6745 18.5665 27.5807 18.6428 27.2744C18.7255 26.918 18.6937 26.5992 18.5346 26.2929C18.4074 26.0553 16.1932 23.8423 15.9577 23.7236C15.6205 23.5485 15.2706 23.7736 15.2706 24.1612C15.2706 24.3174 15.4614 24.5362 16.5113 25.574C17.4148 26.4679 17.752 26.843 17.752 26.9493C17.752 27.0556 17.5039 27.3431 16.8803 27.962L16.0023 28.8247L12.7064 25.5865L9.41686 22.3545L10.2949 21.4918C10.9248 20.8792 11.2175 20.6354 11.3257 20.6354C11.4338 20.6354 11.8156 20.9667 12.7255 21.8544C13.7817 22.8859 14.0044 23.0734 14.1635 23.0734C14.5579 23.0734 14.787 22.7296 14.6088 22.3983C14.4816 22.1607 12.2292 19.9852 11.981 19.8602C11.6565 19.6976 11.2557 19.6664 10.9057 19.7852C10.6449 19.8664 10.4413 20.0352 9.67137 20.7916L8.75514 21.6981L8.60879 21.5606C8.52608 21.4855 8.46245 21.3793 8.46245 21.3293C8.46245 21.273 8.56425 20.6541 8.69151 19.9477L8.92693 18.6599L8.81876 18.2911C8.70423 17.916 8.68514 17.8972 5.61195 14.859C3.16866 12.4522 2.44331 11.7771 2.19516 11.6583C1.77522 11.4645 1.34256 11.4645 0.916257 11.6583ZM4.82297 15.3967C6.48364 17.022 7.86435 18.4223 7.89617 18.5036C7.94071 18.6099 7.88344 19.0412 7.69892 20.0727C7.55894 20.8542 7.44441 21.5606 7.44441 21.6418C7.44441 21.7544 8.4879 22.8109 11.7393 26.0116C15.9196 30.1188 16.0341 30.2376 16.0341 30.4689C16.0341 30.6501 15.9896 30.7564 15.8496 30.894C15.6396 31.094 15.4233 31.1253 15.156 30.9877C15.0606 30.9377 12.9991 28.9435 10.5812 26.5617C6.21004 22.267 6.17187 22.2232 6.17187 21.9732C6.17187 21.8356 6.27367 21.1667 6.39456 20.4916C6.51546 19.8164 6.61726 19.1725 6.61726 19.06C6.61726 18.8787 6.34366 18.5911 3.78585 16.0718C1.04987 13.3774 0.954433 13.2774 0.954433 13.0461C0.954433 12.7148 1.22803 12.446 1.56525 12.446C1.80068 12.446 1.90884 12.5397 4.82297 15.3967Z" fill="#222222"/>
<path d="M12.8214 15.1029C12.6305 15.2904 12.6178 15.503 12.796 15.7218C13.0568 16.0469 13.6167 15.8468 13.6167 15.4217C13.6167 15.2092 13.3559 14.9466 13.1395 14.9466C13.0505 14.9466 12.9041 15.0154 12.8214 15.1029Z" fill="#222222"/>
<path d="M13.4435 16.322C13.2781 16.3907 13.1699 16.572 13.1699 16.7846C13.1699 17.1784 13.7362 17.3472 13.9907 17.0346C14.0671 16.9409 14.1243 16.8283 14.1243 16.7846C14.1243 16.622 13.978 16.397 13.8253 16.3282C13.6471 16.247 13.6344 16.247 13.4435 16.322Z" fill="#222222"/>
<path d="M14.6648 17.1473C14.3848 17.3036 14.3212 17.5036 14.4485 17.785C14.5503 17.9975 14.8111 18.0788 15.0656 17.9725C15.4156 17.8287 15.422 17.3411 15.0784 17.1661C14.862 17.0535 14.8302 17.0535 14.6648 17.1473Z" fill="#222222"/>
<path d="M16.0906 17.7661C15.7088 17.9036 15.7152 18.4975 16.0906 18.6226C16.6441 18.8101 16.9941 18.0537 16.4787 17.7911C16.3769 17.7411 16.2878 17.6973 16.2751 17.7036C16.2624 17.7036 16.1797 17.7349 16.0906 17.7661Z" fill="#222222"/>
<path d="M17.4523 18.1975C17.2869 18.2662 17.1787 18.4475 17.1787 18.6601C17.1787 19.0539 17.745 19.2227 17.9995 18.9101C18.0759 18.8164 18.1331 18.7038 18.1331 18.6601C18.1331 18.4975 17.9868 18.2725 17.8341 18.2037C17.6559 18.1224 17.6432 18.1224 17.4523 18.1975Z" fill="#222222"/>
</svg>
