<svg width="26" height="26" viewBox="0 0 26 26" fill="none" xmlns="http://www.w3.org/2000/svg">
<path d="M21.1654 2.83301H9.83203L14.159 9.3309V12.9281L16.9568 15.1108L16.871 9.3309L21.1654 2.83301Z" stroke="#222222" stroke-width="1.6"/>
<path d="M10.7564 11.4442C10.7564 12.9661 9.52272 14.1998 8.00087 14.1998C6.47902 14.1998 5.24531 12.9661 5.24531 11.4442C5.24531 9.92238 6.47902 8.68867 8.00087 8.68867C9.52272 8.68867 10.7564 9.92238 10.7564 11.4442Z" stroke="#222222" stroke-width="1.6"/>
<path d="M13.3346 22.1105C13.3346 19.6559 10.9468 17.666 8.0013 17.666C5.05578 17.666 2.66797 19.6559 2.66797 22.1105" stroke="#222222" stroke-width="1.6"/>
<g clip-path="url(#clip0_15814_139066)">
<rect x="16" y="16" width="10" height="10" rx="5" fill="#4EA8DC"/>
<path d="M19 20.5909L20.7647 22.5L24 19" stroke="white"/>
</g>
<defs>
<clipPath id="clip0_15814_139066">
<rect x="16" y="16" width="10" height="10" rx="5" fill="white"/>
</clipPath>
</defs>
</svg>
