<svg width="32" height="32" viewBox="0 0 32 32" fill="none" xmlns="http://www.w3.org/2000/svg">
<path d="M15.9971 2.00006C13.2319 1.99844 10.5282 2.81641 8.22757 4.35063C5.92697 5.88485 4.13268 8.06649 3.07136 10.62C2.01005 13.1734 1.72932 15.9842 2.26464 18.6971C2.79997 21.41 4.12733 23.9035 6.07904 25.8624C6.08735 25.8725 6.09121 25.884 6.1004 25.8932C6.10958 25.9023 6.12109 25.9062 6.13115 25.9145C8.75865 28.5352 12.3196 30.0048 16.0306 30C19.7417 29.9952 23.2988 28.5164 25.9195 25.8889C28.5402 23.2614 30.0098 19.7004 30.005 15.9894C30.0001 12.2784 28.5213 8.72125 25.8938 6.10056V6.0997C25.8118 6.0177 25.7006 5.97163 25.5846 5.97163C25.4686 5.97163 25.3574 6.0177 25.2754 6.0997L6.42161 24.9535C4.17659 22.5546 2.91363 19.4006 2.88256 16.1152C2.85149 12.8299 4.05456 9.65253 6.25381 7.21167C8.45305 4.77081 11.4883 3.24424 14.7591 2.93392C18.0299 2.62361 21.298 3.55216 23.9171 5.53589C23.9628 5.57061 24.015 5.59597 24.0706 5.61053C24.1261 5.6251 24.184 5.62857 24.241 5.62076C24.2979 5.61294 24.3527 5.59399 24.4023 5.56499C24.4519 5.536 24.4953 5.49751 24.53 5.45174C24.5647 5.40597 24.5901 5.35381 24.6047 5.29823C24.6192 5.24266 24.6227 5.18476 24.6149 5.12784C24.6071 5.07093 24.5881 5.01611 24.5591 4.96651C24.5301 4.91692 24.4916 4.87352 24.4459 4.8388C22.0186 2.9889 19.049 1.99113 15.9971 2.00006ZM12.9363 5.49915C12.8277 5.49888 12.7229 5.53898 12.6423 5.61166C12.5616 5.68434 12.5109 5.78441 12.4999 5.89241C12.489 6.00042 12.5185 6.10864 12.5829 6.19606C12.6473 6.28347 12.7419 6.34382 12.8483 6.36538C13.3718 6.46918 13.8663 6.68602 14.2973 7.00075C14.7283 7.31547 15.0854 7.7205 15.3436 8.18754C14.3787 8.36906 13.8102 8.96631 13.8102 9.87302C13.7846 10.613 14.0397 11.3353 14.5244 11.8951C14.2284 12.0547 13.9734 12.2806 13.7794 12.5553C13.5854 12.8299 13.4576 13.1458 13.4061 13.478C12.0813 13.9019 6.48829 15.7702 5.15558 17.4769C4.97495 17.7358 4.86659 18.0382 4.84167 18.3529C4.81674 18.6676 4.87615 18.9833 5.01377 19.2674C5.21453 19.6794 5.77234 20.3703 7.24939 20.3703C10.2197 20.3703 12.429 17.2729 13.4984 15.389C13.5357 15.4974 13.5811 15.6027 13.6342 15.7043C13.6601 15.7568 13.6963 15.8036 13.7406 15.8419C13.7849 15.8801 13.8364 15.9091 13.8921 15.9271C13.9478 15.9451 14.0066 15.9518 14.0649 15.9466C14.1233 15.9415 14.18 15.9247 14.2317 15.8972C14.2834 15.8698 14.3291 15.8322 14.366 15.7868C14.4029 15.7413 14.4303 15.6889 14.4466 15.6327C14.4629 15.5765 14.4678 15.5175 14.4609 15.4594C14.454 15.4012 14.4355 15.3451 14.4065 15.2942C14.304 15.1071 14.2494 14.8976 14.2476 14.6843V13.8095C14.2476 13.4615 14.3858 13.1277 14.6319 12.8817C14.878 12.6356 15.2117 12.4973 15.5597 12.4973H16.4345C16.6478 12.4992 16.8574 12.5538 17.0445 12.6562C17.1441 12.7 17.2564 12.7051 17.3596 12.6705C17.4627 12.6359 17.5493 12.5641 17.6023 12.4691C17.6554 12.3741 17.6711 12.2627 17.6465 12.1567C17.6218 12.0508 17.5586 11.9578 17.469 11.8959C17.9543 11.3361 18.2097 10.6134 18.1841 9.87302C18.1841 8.96631 17.6156 8.36906 16.6489 8.18754C16.9074 7.72034 17.2648 7.31523 17.6961 7.00049C18.1274 6.68576 18.6222 6.46901 19.146 6.36538C19.2597 6.34227 19.3596 6.27493 19.4237 6.17816C19.4878 6.0814 19.5108 5.96314 19.4877 5.8494C19.4646 5.73567 19.3972 5.63577 19.3005 5.57169C19.2037 5.5076 19.0854 5.48458 18.9717 5.50769C18.3595 5.63035 17.7792 5.87822 17.2674 6.23574C16.7555 6.59326 16.323 7.05272 15.9971 7.58528C15.6713 7.05265 15.2389 6.59314 14.727 6.23561C14.2151 5.87808 13.6348 5.63025 13.0226 5.50769C12.9941 5.502 12.9652 5.49913 12.9363 5.49915ZM10.3026 6.81729C10.218 6.82005 10.1361 6.84727 10.0667 6.89566C9.99725 6.94404 9.94337 7.01152 9.91155 7.08991C9.87972 7.1683 9.87131 7.25424 9.88734 7.33731C9.90337 7.42038 9.94315 7.49702 10.0019 7.55794L10.7485 8.30458V9.87302C10.7485 9.98901 10.7946 10.1002 10.8766 10.1823L12.6262 11.9318C12.7086 12.0119 12.8192 12.0562 12.9341 12.0554C13.049 12.0546 13.1589 12.0086 13.2402 11.9273C13.3214 11.8461 13.3674 11.7361 13.3683 11.6212C13.3691 11.5063 13.3247 11.3957 13.2447 11.3133L11.6233 9.69191V8.12347C11.6232 8.00748 11.5771 7.89624 11.4951 7.81422L10.6203 6.93945C10.5782 6.89888 10.5284 6.86716 10.4738 6.84618C10.4192 6.8252 10.361 6.81538 10.3026 6.81729ZM21.6507 6.81729C21.5468 6.82379 21.4487 6.8671 21.3739 6.93945L20.4991 7.81422C20.4171 7.89624 20.371 8.00748 20.371 8.12347V8.99824C20.371 9.11425 20.4171 9.2255 20.4991 9.30752C20.5811 9.38955 20.6924 9.43563 20.8084 9.43563C20.9244 9.43563 21.0356 9.38955 21.1177 9.30752C21.1997 9.2255 21.2458 9.11425 21.2458 8.99824V8.30458L21.9924 7.55794C22.0537 7.49454 22.0945 7.41406 22.1092 7.32709C22.124 7.24011 22.1122 7.1507 22.0752 7.07059C22.0382 6.99048 21.9779 6.92342 21.9022 6.87822C21.8264 6.83301 21.7387 6.81177 21.6507 6.81729ZM25.5761 7.03513C27.3241 8.90248 28.488 11.2401 28.9247 13.7604C29.3614 16.2807 29.0517 18.8736 28.0338 21.2202C27.0159 23.5668 25.3343 25.5646 23.1957 26.9678C21.0571 28.371 18.555 29.1184 15.9971 29.118C12.6688 29.1197 9.46526 27.8515 7.0401 25.5719L25.5761 7.03513ZM15.9971 8.99824C17.3093 8.99824 17.3093 9.65651 17.3093 9.87302C17.3093 10.1652 17.2459 11.6226 15.9971 11.6226C14.7484 11.6226 14.685 10.1652 14.685 9.87302C14.685 9.65432 14.685 8.99824 15.9971 8.99824ZM20.0541 13.9966C19.9495 13.9924 19.847 14.0257 19.7649 14.0906C19.6829 14.1555 19.6268 14.2476 19.6069 14.3503C19.5869 14.453 19.6045 14.5594 19.6562 14.6503C19.708 14.7412 19.7907 14.8105 19.8892 14.8457C23.219 16.0302 25.5015 17.1866 26.1501 18.0176C26.229 18.1474 26.2743 18.2948 26.2819 18.4465C26.2895 18.5982 26.2592 18.7494 26.1937 18.8864C25.9995 19.284 25.498 19.4955 24.7449 19.4955C22.3112 19.4955 20.3578 16.8113 19.4091 15.2114C19.3498 15.1114 19.2533 15.0391 19.1408 15.0104C19.0282 14.9816 18.9089 14.9988 18.809 15.058C18.709 15.1173 18.6368 15.2138 18.608 15.3263C18.5792 15.4389 18.5964 15.5582 18.6556 15.6581C19.9302 17.8079 22.0208 20.3703 24.7449 20.3703C26.2219 20.3703 26.7797 19.6794 26.9805 19.2674C27.1182 18.9833 27.1776 18.6676 27.1527 18.3529C27.1278 18.0382 27.0194 17.7358 26.8387 17.4769C25.8655 16.2303 22.6836 14.9088 20.1822 14.0214C20.141 14.0067 20.0978 13.9984 20.0541 13.9966ZM12.9585 14.5442C12.0771 16.1909 9.96731 19.4955 7.24939 19.4955C6.49621 19.4955 5.99519 19.2841 5.80055 18.883C5.7353 18.7458 5.70513 18.5945 5.71274 18.4427C5.72034 18.2909 5.76548 18.1434 5.84412 18.0134C6.77925 16.8158 10.6797 15.3135 12.9585 14.5442ZM17.774 16.2331C17.7493 16.2344 17.7247 16.2378 17.7005 16.2433C17.6444 16.2561 17.5913 16.2799 17.5444 16.3132C17.4974 16.3466 17.4575 16.3889 17.427 16.4377C17.3964 16.4865 17.3758 16.5409 17.3663 16.5977C17.3568 16.6545 17.3586 16.7126 17.3716 16.7687C17.6288 17.9518 17.7545 19.1596 17.7467 20.3703C17.7529 22.1972 17.1357 23.9715 15.9971 25.4002C14.9153 24.0419 14.3048 22.3684 14.2578 20.6326C14.2538 20.5169 14.204 20.4075 14.1195 20.3284C14.035 20.2493 13.9225 20.2069 13.8068 20.2106C13.6911 20.2142 13.5816 20.2635 13.5021 20.3477C13.4227 20.4319 13.3799 20.5442 13.3831 20.6599C13.4203 22.7849 14.2442 24.8206 15.6956 26.3733C15.7768 26.4502 15.8844 26.493 15.9963 26.493C16.1081 26.493 16.2157 26.4502 16.297 26.3733C17.8208 24.7493 18.6543 22.597 18.6214 20.3703C18.6295 19.0935 18.4963 17.8197 18.2242 16.5722C18.2012 16.4717 18.1434 16.3825 18.061 16.3204C17.9786 16.2584 17.877 16.2274 17.774 16.2331ZM19.9259 19.0581C19.8474 19.0595 19.7707 19.082 19.7039 19.1233C19.6371 19.1645 19.5826 19.223 19.5462 19.2925C19.5097 19.3621 19.4927 19.4401 19.4968 19.5185C19.501 19.597 19.5261 19.6728 19.5697 19.7381L20.371 20.9392V23.8694C20.371 23.9854 20.4171 24.0966 20.4991 24.1786L22.2487 25.9282C22.3311 26.0082 22.4417 26.0526 22.5566 26.0518C22.6715 26.0509 22.7814 26.0049 22.8627 25.9237C22.9439 25.8424 22.9899 25.7325 22.9908 25.6176C22.9916 25.5027 22.9472 25.3921 22.8672 25.3097L21.2458 23.6883V20.8077C21.2456 20.7214 21.2201 20.637 21.1723 20.5651L20.2975 19.2529C20.2569 19.1919 20.2015 19.1421 20.1366 19.1081C20.0717 19.074 19.9992 19.0569 19.9259 19.0581ZM11.6233 22.1198C11.5073 22.1198 11.396 22.1659 11.314 22.2479C11.232 22.33 11.1859 22.4412 11.1859 22.5572V23.6883L9.56447 25.3097C9.52287 25.3501 9.48973 25.3983 9.46695 25.4516C9.44418 25.505 9.43223 25.5623 9.43181 25.6203C9.43139 25.6782 9.44249 25.7357 9.46448 25.7894C9.48647 25.843 9.51891 25.8917 9.5599 25.9327C9.6009 25.9737 9.64964 26.0062 9.70328 26.0282C9.75693 26.0502 9.81441 26.0613 9.87239 26.0608C9.93036 26.0604 9.98767 26.0485 10.041 26.0257C10.0943 26.0029 10.1426 25.9698 10.183 25.9282L11.9325 24.1786C12.0145 24.0966 12.0606 23.9854 12.0606 23.8694V22.5572C12.0606 22.4412 12.0146 22.33 11.9325 22.2479C11.8505 22.1659 11.7393 22.1198 11.6233 22.1198Z" fill="#323A43"/>
</svg>
