<svg width="88" height="88" viewBox="0 0 88 88" fill="none" xmlns="http://www.w3.org/2000/svg">
<path d="M52.5171 75.6117L50.3656 75.6099C50.2934 75.6099 50.2573 75.6488 50.2573 75.7266C50.2515 76.8385 50.2533 78.0034 50.2626 79.2214C50.2696 80.0868 49.7841 80.6705 48.9545 80.6668C47.7915 80.6631 46.6674 80.6612 45.5823 80.6612C42.8248 80.6631 40.7466 78.4395 40.7169 75.5135C40.7169 75.4407 40.6831 75.3956 40.6156 75.3783C37.5245 74.5704 35.3171 71.8038 35.0639 68.422C35.0103 67.7067 35.093 66.7419 35.3119 65.5276C36.4133 59.4027 37.4588 53.5119 38.4484 47.8553C38.6603 46.6471 39.1306 45.5204 39.8594 44.4753C39.8967 44.4222 39.9048 44.3641 39.8839 44.3011C39.6091 43.4809 39.4939 42.563 39.5381 41.5475C39.5386 41.5324 39.5362 41.5173 39.531 41.5032C39.5258 41.4891 39.5179 41.4764 39.5079 41.4657C39.4979 41.4551 39.4859 41.4468 39.4728 41.4415C39.4596 41.4361 39.4456 41.4337 39.4316 41.4345C38.017 41.5123 36.7631 41.2146 35.6699 40.5414C33.796 39.3851 32.5421 37.1985 32.633 34.8915C32.6597 34.2244 32.8227 33.3294 33.1219 32.2064C34.1069 28.5189 35.0779 24.7604 36.0349 20.9308C36.3469 19.6831 36.6455 18.7874 36.9308 18.2439C37.8616 16.4668 39.6848 15.1493 41.6093 14.951C42.2473 14.8843 43.0087 14.8541 43.8936 14.8602C49.2654 14.8911 54.742 14.8942 60.3234 14.8695C63.6101 14.8547 66.0166 16.6873 66.8776 20.0728C67.9277 24.2038 69.0099 28.3793 70.1241 32.5993C70.4047 33.6604 70.538 34.4875 70.524 35.0805C70.4524 38.1065 68.4807 40.6062 65.7145 41.2659C65.0311 41.4277 64.2836 41.4833 63.4721 41.4327C63.4584 41.4319 63.4447 41.4341 63.4318 41.4393C63.419 41.4446 63.4073 41.4526 63.3976 41.4629C63.3879 41.4732 63.3803 41.4856 63.3754 41.4992C63.3705 41.5128 63.3684 41.5274 63.3691 41.542C63.4122 42.4796 63.294 43.4074 63.0146 44.3252C63.007 44.3498 63.0051 44.3761 63.0091 44.4019C63.013 44.4276 63.0227 44.4522 63.0373 44.4735C63.8639 45.6372 64.3599 46.9454 64.5252 48.3982C64.5266 48.4107 64.5305 48.4228 64.5366 48.4337C64.5427 48.4445 64.5508 48.4539 64.5605 48.4612C64.5702 48.4686 64.5813 48.4737 64.5929 48.4762C64.6046 48.4788 64.6166 48.4787 64.6282 48.476C65.6074 48.2685 66.572 48.2141 67.522 48.313C69.2526 48.4945 70.9711 48.9078 72.5149 48.0887C74.5826 46.9936 73.519 43.5284 72.7454 41.8867C72.2546 40.8434 72.1411 39.802 72.6458 38.7402C73.1139 37.7581 74.0971 37.0577 75.1257 37.0317C76.4541 36.9996 77.4187 37.6253 78.0194 38.9088C78.9508 40.8978 79.4939 42.8484 79.6488 44.7607C80.012 49.258 77.7348 53.1141 73.6203 54.4076C72.0951 54.8869 70.5147 55.032 68.8789 54.843C67.9271 54.7337 66.682 54.4131 65.7494 54.6763C65.6889 54.6923 65.6644 54.7331 65.6761 54.7985C66.3572 58.6664 67.0318 62.4744 67.7001 66.2225C67.9306 67.5066 67.9184 68.876 67.5447 70.0897C66.7029 72.8322 64.9443 74.6012 62.2689 75.3968C62.2118 75.4141 62.1827 75.4542 62.1816 75.5173C62.1309 78.3394 60.1785 80.6112 57.4838 80.652C56.3894 80.6693 55.1908 80.6711 53.8881 80.6575C53.0498 80.6501 52.6272 80.0275 52.6324 79.1862C52.6406 77.9249 52.6446 76.7779 52.6446 75.7452C52.6435 75.6562 52.601 75.6117 52.5171 75.6117ZM60.994 30.031C61.0028 28.404 63.3743 28.3873 63.3743 30.1125C63.3755 33.1008 63.3749 35.9909 63.3726 38.7828C63.3726 38.8594 63.4087 38.9008 63.4809 38.907C64.8372 39.0206 65.9339 38.7161 66.771 37.9934C67.9219 37.0002 68.3882 35.4974 67.9865 33.952C66.8525 29.5838 65.6871 25.0754 64.4903 20.4267C63.9768 18.4273 62.3824 17.3933 60.3636 17.3989C54.462 17.4174 48.7892 17.4162 43.3452 17.3952C42.3765 17.3915 41.6664 17.4638 41.2146 17.612C39.7843 18.0808 38.9635 19.1852 38.5689 20.7362C37.4069 25.2996 36.2864 29.6313 35.2071 33.7315C34.3933 36.826 36.5186 39.1034 39.449 38.9107C39.4717 38.9093 39.4931 38.8987 39.5087 38.8811C39.5242 38.8635 39.5329 38.8403 39.5329 38.8162C39.5294 36.0403 39.5276 33.1342 39.5276 30.0977C39.5276 28.3985 41.887 28.4003 41.8975 30.0217C41.9231 33.5462 41.9207 37.0984 41.8905 40.6785C41.8788 42.004 41.951 42.9175 42.107 43.4191C42.6065 45.0386 43.9669 46.2876 45.5998 46.471C46.3111 46.5513 46.9404 46.4754 47.4876 46.2431C49.2444 45.4957 50.1729 44.0813 50.2731 41.9997C50.3482 40.4413 52.5503 40.4042 52.6289 42.0701C52.7162 43.8848 53.4957 45.2097 54.9673 46.0448C56.0291 46.6471 57.4768 46.6415 58.5613 46.0912C60.2833 45.2202 61.0063 43.6155 60.9958 41.6272C60.9737 37.6963 60.9731 33.8309 60.994 30.031ZM75.3178 48.7114C74.1093 50.7089 71.6399 51.2926 69.4605 51.0795C67.9341 50.9294 66.6313 50.6329 65.0386 50.9683C65.0095 50.9745 64.9973 50.993 65.002 51.0239L65.2028 52.145C65.2133 52.2043 65.2459 52.2272 65.3006 52.2136C66.1214 52.0184 67.1419 52.0239 68.362 52.2302C71.5683 52.7713 75.1624 52.0079 76.6782 48.7206C77.9461 45.9707 77.0816 42.5241 75.8434 39.9539C75.6758 39.6043 75.4156 39.4894 75.0628 39.6093C74.8859 39.6686 74.77 39.8391 74.7153 40.1207C74.6927 40.2395 74.7093 40.3637 74.7624 40.4728C75.929 42.8743 76.7795 46.2932 75.3178 48.7114ZM49.1274 48.35C49.8522 50.9146 53.1162 50.9665 53.7658 48.337C53.7821 48.2691 53.7611 48.2191 53.7029 48.1869C52.8356 47.694 52.1009 47.0109 51.499 46.1375C51.4935 46.1293 51.4861 46.1226 51.4776 46.1179C51.4691 46.1133 51.4596 46.1109 51.4499 46.1109C51.4403 46.1109 51.4307 46.1133 51.4219 46.1179C51.4131 46.1226 51.4055 46.1293 51.3995 46.1375C50.8069 47.001 50.0711 47.6835 49.1921 48.1851C49.128 48.2222 49.1065 48.2771 49.1274 48.35ZM54.2897 61.79C55.0634 62.1551 55.0302 62.7869 55.0284 63.6875C55.0273 68.3608 55.0284 73.1386 55.0319 78.0207C55.0319 78.0973 55.068 78.1343 55.1402 78.1319C55.706 78.1133 56.2998 78.1133 56.9215 78.1319C57.6282 78.1529 58.1527 78.0596 58.495 77.8521C59.466 77.2609 59.8083 76.3974 59.8048 75.2541C59.7931 70.8563 59.792 66.7419 59.8013 62.9111C59.8048 61.69 61.2752 61.2878 61.9388 62.1995C62.0995 62.4207 62.1798 62.7647 62.1798 63.2317C62.181 66.4337 62.1798 69.5696 62.1763 72.6395C62.1763 72.7457 62.2223 72.7778 62.3143 72.7358C63.9629 71.981 64.9828 70.7167 65.3739 68.9427C65.5713 68.0458 65.4473 67.1805 65.2884 66.291C64.258 60.4935 63.1863 54.4526 62.0733 48.1684C62 47.7521 61.8643 47.3389 61.6664 46.9287C61.6268 46.8472 61.5767 46.8392 61.5162 46.9046C60.0586 48.4637 58.2749 49.1629 56.1653 49.0023C56.1013 48.9973 56.06 49.0276 56.0413 49.0931C55.5686 50.7064 54.6407 51.822 53.2576 52.4396C50.6066 53.6219 47.6605 52.0375 46.8659 49.1005C46.8461 49.0276 46.8001 48.9936 46.7279 48.9986C44.6299 49.1703 42.8463 48.4692 41.377 46.8954C41.3351 46.8497 41.2985 46.8546 41.267 46.9102C41.0516 47.2956 40.9032 47.7169 40.8217 48.174C39.7646 54.1691 38.6818 60.2712 37.5734 66.48C37.4477 67.178 37.404 67.7951 37.4425 68.3312C37.5822 70.3251 38.8867 72.0428 40.6209 72.7396C40.6872 72.7667 40.7204 72.7426 40.7204 72.6673C40.7192 69.5159 40.7198 66.2787 40.7221 62.9556C40.7239 61.5658 42.5646 61.2119 42.9959 62.4664C43.0798 62.7085 43.1211 63.0266 43.1199 63.4207C43.1094 67.7148 43.103 71.5845 43.1007 75.0299C43.0995 75.7205 43.1624 76.2282 43.2893 76.5531C43.7835 77.8224 44.8279 78.1837 46.1115 78.1337C46.6796 78.1115 47.2338 78.1115 47.774 78.1337C47.787 78.1345 47.8001 78.1323 47.8123 78.1275C47.8246 78.1226 47.8358 78.1151 47.8453 78.1054C47.8548 78.0956 47.8623 78.084 47.8675 78.071C47.8726 78.058 47.8753 78.0441 47.8753 78.0299C47.8741 72.8711 47.8747 67.8463 47.877 62.9556C47.8788 61.2971 50.2591 61.2063 50.2573 63.1131C50.2538 66.4078 50.2533 69.7031 50.2556 72.999C50.2556 73.0484 50.2789 73.0731 50.3255 73.0731H52.5468C52.6085 73.0731 52.6394 73.0404 52.6394 72.9749C52.6406 69.926 52.6417 66.8778 52.6429 63.8302C52.6429 63.1619 52.6458 62.8079 52.6516 62.7684C52.7791 61.979 53.5632 61.4491 54.2897 61.79Z" fill="#1A4D6A"/>
<path d="M25.1183 57.8931C25.7872 57.8857 26.6027 57.7967 27.1878 58.121C28.3066 58.7399 28.7007 59.7467 28.3701 61.1415C27.3723 65.3614 26.3809 69.5647 25.396 73.7513C25.3888 73.7807 25.3904 73.8116 25.4004 73.8398C25.4104 73.868 25.4284 73.8922 25.4519 73.9088C26.7896 74.8761 27.6051 76.4067 27.6017 78.1411C27.5999 78.8712 27.0271 79.3993 26.36 79.4012C21.3467 79.4037 16.217 79.4037 10.9709 79.4012C10.0978 79.3993 9.64021 78.6637 9.72928 77.7854C9.89809 76.1139 10.6025 74.831 11.8424 73.9366C11.9157 73.8835 11.9419 73.8112 11.921 73.7198C10.9954 69.7395 10.0151 65.5893 8.98008 61.2693C8.67796 60.0074 8.87705 58.9234 9.94583 58.2266C10.599 57.8004 11.4285 57.8709 12.1637 57.8931C12.1918 57.8934 12.2189 57.8831 12.2401 57.864C12.2614 57.8449 12.2752 57.8184 12.279 57.7893L12.9863 52.5378C12.9944 52.4835 12.9758 52.4427 12.9304 52.4156C9.36952 50.2142 7.34024 46.2413 7.33674 41.8737C7.33209 36.0292 7.33209 30.4275 7.33674 25.0686C7.33849 24.0846 8.32868 23.336 9.14948 23.9364C9.3311 24.0698 9.49526 24.2458 9.64196 24.4645C11.3988 27.0908 13.2075 29.7796 15.0679 32.5307C15.0799 32.5484 15.0956 32.5629 15.1138 32.5729C15.132 32.5828 15.1522 32.5881 15.1727 32.5882H22.1285C22.1572 32.5881 22.1854 32.5808 22.2109 32.567C22.2364 32.5531 22.2584 32.5331 22.2752 32.5085C24.0367 29.9044 25.8693 27.181 27.7728 24.3385C28.5325 23.2044 29.9977 23.7715 29.9942 25.1297C29.9779 30.4726 29.9796 35.8711 29.9994 41.3252C30.0041 42.5618 29.9267 43.5908 29.7672 44.4123C29.1024 47.8268 27.3106 50.5038 24.3918 52.4433C24.3534 52.4693 24.3377 52.5057 24.3447 52.5527L25.0554 57.8357C25.0576 57.8517 25.0651 57.8664 25.0767 57.8769C25.0882 57.8875 25.103 57.8933 25.1183 57.8931ZM23.9046 34.4523C23.6164 34.8822 23.2549 35.1305 22.745 35.1305C20.2046 35.1243 17.4826 35.125 14.579 35.1324C14.1424 35.1324 13.7477 34.9267 13.4945 34.5505C12.2394 32.6839 11.0041 30.8488 9.78865 29.0452C9.78393 29.038 9.77717 29.0327 9.76938 29.0299C9.76158 29.0272 9.75315 29.0271 9.74534 29.0298C9.73752 29.0325 9.73072 29.0378 9.72595 29.0449C9.72117 29.052 9.71866 29.0605 9.7188 29.0693C9.72928 32.5777 9.72695 36.0996 9.71181 39.6352C9.70366 41.5896 9.73451 42.8193 9.80437 43.3246C10.0989 45.4593 10.9354 47.2623 12.3139 48.7336C15.8049 52.46 21.4736 52.5156 24.9699 48.7818C26.7267 46.9053 27.6057 44.6137 27.6069 41.907C27.6081 37.6698 27.6086 33.4276 27.6086 29.1804C27.6086 29.0198 27.5644 29.005 27.4759 29.136C26.3361 30.8309 25.1457 32.603 23.9046 34.4523ZM22.49 75.545C21.1086 74.9928 21.5278 72.9953 22.9947 73.0768C23.0622 73.0805 23.1042 73.0472 23.1205 72.9767L26.0648 60.4818C26.0664 60.4752 26.0666 60.4684 26.0653 60.4618C26.0641 60.4552 26.0614 60.449 26.0575 60.4436C26.0537 60.4382 26.0487 60.4339 26.043 60.4309C26.0373 60.4279 26.031 60.4263 26.0247 60.4262C25.4053 60.42 24.7766 60.4212 24.1386 60.4299C23.4331 60.4392 22.9301 59.9815 22.8323 59.2421C22.5762 57.3088 22.327 55.4502 22.0849 53.6663C22.0744 53.5873 22.0325 53.5576 21.9591 53.5774C19.7238 54.2 17.5932 54.2982 15.377 53.5681C15.299 53.5422 15.2542 53.5718 15.2426 53.6571C14.9992 55.4706 14.7501 57.3285 14.4951 59.231C14.4008 59.9425 13.952 60.4132 13.2377 60.4206C12.6102 60.428 11.9885 60.4274 11.3726 60.4188C11.3578 60.4186 11.3431 60.422 11.3298 60.4287C11.3164 60.4355 11.3047 60.4453 11.2955 60.4575C11.2864 60.4697 11.2801 60.4839 11.2771 60.4991C11.2741 60.5142 11.2745 60.5299 11.2783 60.5448L14.207 72.9749C14.2137 73.0037 14.2297 73.0291 14.2523 73.047C14.2749 73.0649 14.3026 73.0741 14.331 73.0731C16.0756 73.0027 16.0826 75.5525 14.5318 75.5932C13.6708 75.6173 12.9548 76.012 12.4728 76.7866C12.4678 76.7943 12.4649 76.8033 12.4645 76.8127C12.4641 76.822 12.4661 76.8314 12.4704 76.8397C12.4747 76.8481 12.4811 76.8551 12.4889 76.8601C12.4967 76.8651 12.5056 76.8679 12.5147 76.8681H24.8179C24.8271 76.868 24.836 76.8654 24.8438 76.8604C24.8516 76.8554 24.858 76.8482 24.8623 76.8397C24.8666 76.8311 24.8686 76.8215 24.8682 76.8118C24.8678 76.8022 24.8649 76.7928 24.8598 76.7847C24.3487 75.9916 23.6339 75.5932 22.7153 75.5895C22.6385 75.5895 22.5634 75.5747 22.49 75.545Z" fill="#1A4D6A"/>
<path d="M46.6738 27.5313C46.6738 27.8654 46.5487 28.1859 46.326 28.4222C46.1033 28.6586 45.8012 28.7913 45.4863 28.7913C45.1713 28.7913 44.8692 28.6586 44.6465 28.4222C44.4238 28.1859 44.2987 27.8654 44.2987 27.5313C44.2987 27.1971 44.4238 26.8766 44.6465 26.6403C44.8692 26.4039 45.1713 26.2712 45.4863 26.2712C45.8012 26.2712 46.1033 26.4039 46.326 26.6403C46.5487 26.8766 46.6738 27.1971 46.6738 27.5313Z" fill="#1A4D6A"/>
<path d="M58.5963 27.5313C58.5963 27.8654 58.4712 28.1859 58.2484 28.4222C58.0257 28.6586 57.7237 28.7913 57.4087 28.7913C57.2528 28.7913 57.0984 28.7587 56.9543 28.6954C56.8102 28.6321 56.6793 28.5393 56.569 28.4222C56.4588 28.3052 56.3713 28.1663 56.3116 28.0135C56.2519 27.8606 56.2212 27.6967 56.2212 27.5313C56.2212 27.3658 56.2519 27.2019 56.3116 27.049C56.3713 26.8962 56.4588 26.7573 56.569 26.6403C56.6793 26.5232 56.8102 26.4304 56.9543 26.3671C57.0984 26.3038 57.2528 26.2712 57.4087 26.2712C57.7237 26.2712 58.0257 26.4039 58.2484 26.6403C58.4712 26.8766 58.5963 27.1971 58.5963 27.5313Z" fill="#1A4D6A"/>
<path d="M49.1065 37.658C48.9432 37.6576 48.7816 37.623 48.6309 37.5562C48.4802 37.4894 48.3434 37.3919 48.2283 37.269C48.1131 37.1461 48.0219 37.0004 47.9599 36.8402C47.8978 36.6799 47.8661 36.5082 47.8666 36.335L47.87 33.9001C47.8719 32.8818 48.2483 31.906 48.9164 31.1874C49.5846 30.4687 50.4897 30.0661 51.4327 30.068H51.4885C51.9555 30.069 52.4177 30.1693 52.8487 30.3631C53.2797 30.557 53.6712 30.8406 54.0007 31.1978C54.3302 31.555 54.5914 31.9788 54.7692 32.445C54.947 32.9112 55.0381 33.4107 55.0372 33.9149L55.0337 36.3498C55.0332 36.5231 55.0006 36.6945 54.9377 36.8544C54.8748 37.0143 54.7828 37.1595 54.667 37.2816C54.5512 37.4038 54.4139 37.5006 54.2629 37.5664C54.1118 37.6323 53.9501 37.6659 53.7868 37.6655L49.1065 37.658ZM50.3255 35.1268H52.5713C52.5898 35.1268 52.6076 35.119 52.6207 35.1051C52.6338 35.0912 52.6411 35.0723 52.6411 35.0527V33.8853C52.6411 33.5432 52.5171 33.2152 52.2964 32.9733C52.0756 32.7315 51.7763 32.5956 51.4641 32.5956H51.4327C51.1205 32.5956 50.8211 32.7315 50.6003 32.9733C50.3796 33.2152 50.2556 33.5432 50.2556 33.8853V35.0527C50.2556 35.0723 50.263 35.0912 50.2761 35.1051C50.2892 35.119 50.3069 35.1268 50.3255 35.1268Z" fill="#1A4D6A"/>
<path d="M14.4864 41.4456C14.4864 41.7798 14.3613 42.1003 14.1386 42.3366C13.9159 42.5729 13.6138 42.7057 13.2989 42.7057C12.9839 42.7057 12.6819 42.5729 12.4591 42.3366C12.2364 42.1003 12.1113 41.7798 12.1113 41.4456C12.1113 41.2802 12.142 41.1163 12.2017 40.9634C12.2614 40.8105 12.3489 40.6716 12.4591 40.5546C12.5694 40.4376 12.7003 40.3448 12.8444 40.2815C12.9885 40.2182 13.1429 40.1856 13.2989 40.1856C13.4548 40.1856 13.6092 40.2182 13.7533 40.2815C13.8974 40.3448 14.0283 40.4376 14.1386 40.5546C14.2488 40.6716 14.3363 40.8105 14.396 40.9634C14.4557 41.1163 14.4864 41.2802 14.4864 41.4456Z" fill="#1A4D6A"/>
<path d="M25.2161 41.4456C25.2161 41.7798 25.091 42.1003 24.8683 42.3366C24.6456 42.5729 24.3435 42.7057 24.0286 42.7057C23.7136 42.7057 23.4116 42.5729 23.1889 42.3366C22.9662 42.1003 22.841 41.7798 22.841 41.4456C22.841 41.2802 22.8718 41.1163 22.9314 40.9634C22.9911 40.8105 23.0786 40.6716 23.1889 40.5546C23.2991 40.4376 23.43 40.3448 23.5741 40.2815C23.7182 40.2182 23.8726 40.1856 24.0286 40.1856C24.1845 40.1856 24.3389 40.2182 24.483 40.2815C24.6271 40.3448 24.758 40.4376 24.8683 40.5546C24.9786 40.6716 25.066 40.8105 25.1257 40.9634C25.1854 41.1163 25.2161 41.2802 25.2161 41.4456Z" fill="#1A4D6A"/>
<path d="M20.3996 44.0677L18.3773 47.4569C18.3724 47.4649 18.3657 47.4715 18.3577 47.476C18.3498 47.4806 18.3409 47.483 18.3319 47.483C18.3229 47.483 18.314 47.4806 18.3061 47.476C18.2981 47.4715 18.2914 47.4649 18.2865 47.4569L16.2642 44.0695C16.2588 44.0608 16.2558 44.0508 16.2554 44.0404C16.255 44.0301 16.2572 44.0198 16.2619 44.0107C16.2665 44.0015 16.2734 43.9939 16.2818 43.9886C16.2902 43.9833 16.2998 43.9805 16.3096 43.9806L20.3542 43.9787C20.364 43.9787 20.3736 43.9815 20.382 43.9868C20.3904 43.9921 20.3973 43.9997 20.4019 44.0088C20.4066 44.0179 20.4088 44.0282 20.4084 44.0386C20.408 44.0489 20.405 44.059 20.3996 44.0677Z" fill="#1A4D6A"/>
<path d="M69.3876 17.0265C68.7578 16.6679 68.0707 16.4827 67.3262 16.4708C65.4753 16.4431 65.4876 13.8618 67.294 13.8357C69.6764 13.7999 71.4659 11.9911 71.9866 9.63145C72.1079 9.08391 71.9743 8.43371 72.2661 7.95788C72.9481 6.84325 74.5057 7.30768 74.5379 8.66511C74.604 11.5609 76.6791 13.7755 79.4271 13.8439C80.2136 13.8635 80.7558 14.5283 80.6544 15.3545C80.5853 15.92 80.0922 16.4219 79.5546 16.4382C76.6884 16.5262 74.65 18.6202 74.5287 21.6756C74.4611 23.3769 72.1601 23.3883 72.088 21.7066C71.9958 19.5599 71.0957 17.9999 69.3876 17.0265ZM75.3182 15.0987C74.5205 14.5196 73.8651 13.8222 73.3521 13.0063C73.3473 12.9984 73.3408 12.9919 73.333 12.9874C73.3252 12.983 73.3164 12.9806 73.3075 12.9806C73.2985 12.9806 73.2896 12.983 73.2816 12.9874C73.2736 12.9919 73.2667 12.9984 73.2615 13.0063C72.7484 13.8178 72.0931 14.5158 71.2953 15.1003C71.2874 15.1062 71.281 15.1139 71.2765 15.123C71.272 15.1321 71.2697 15.1422 71.2697 15.1524C71.2697 15.1627 71.272 15.1728 71.2765 15.1819C71.281 15.1909 71.2874 15.1987 71.2953 15.2046C72.0726 15.763 72.7295 16.461 73.2661 17.2986C73.2706 17.3056 73.2767 17.3114 73.2838 17.3154C73.2908 17.3194 73.2988 17.3215 73.3068 17.3215C73.3148 17.3215 73.3227 17.3194 73.3298 17.3154C73.3369 17.3114 73.343 17.3056 73.3475 17.2986C73.8831 16.4577 74.54 15.7603 75.3182 15.2062C75.3265 15.2002 75.3332 15.1922 75.3379 15.1828C75.3425 15.1735 75.3449 15.163 75.3449 15.1524C75.3449 15.1419 75.3425 15.1314 75.3379 15.122C75.3332 15.1127 75.3265 15.1047 75.3182 15.0987Z" fill="#1A4D6A"/>
<path d="M18.1784 17.7334C17.8618 17.7348 17.5162 17.7774 17.2135 17.6938C16.2002 17.418 16.2057 15.8752 17.2093 15.5892C17.5231 15.4997 17.8715 15.5496 18.195 15.5378C18.2448 15.5369 18.2697 15.51 18.2697 15.4572C18.2697 15.0597 18.2047 14.5699 18.383 14.2135C18.6858 13.6063 19.4074 13.4332 19.9244 13.8439C20.4193 14.2369 20.3488 14.85 20.3336 15.444C20.3327 15.5085 20.3622 15.5408 20.4221 15.5408C20.7622 15.5452 21.1493 15.4924 21.4686 15.617C22.3451 15.9602 22.3907 17.3051 21.4893 17.6615C21.1617 17.7906 20.7663 17.7334 20.4179 17.7363C20.3682 17.7363 20.3424 17.7627 20.3405 17.8155C20.3309 18.188 20.3917 18.6221 20.2562 18.9639C19.8014 20.1137 18.2199 19.7661 18.2627 18.4725C18.2701 18.2506 18.2706 18.0335 18.2641 17.8214C18.2634 17.7978 18.2541 17.7754 18.2381 17.7589C18.2221 17.7425 18.2007 17.7333 18.1784 17.7334Z" fill="#1A4D6A"/>
<path d="M73.7145 68.8592C73.3979 68.8607 73.0523 68.9032 72.7495 68.8196C71.7362 68.5439 71.7417 67.001 72.7454 66.715C73.0592 66.6256 73.4076 66.6754 73.7311 66.6637C73.7808 66.6627 73.8057 66.6358 73.8057 66.583C73.8057 66.1856 73.7407 65.6957 73.9191 65.3394C74.2218 64.7322 74.9434 64.5591 75.4605 64.9698C75.9554 65.3628 75.8849 65.9759 75.8697 66.5699C75.8687 66.6344 75.8982 66.6667 75.9582 66.6667C76.2982 66.6711 76.6853 66.6183 77.0046 66.7429C77.8811 67.0861 77.9267 68.431 77.0254 68.7874C76.6977 68.9164 76.3024 68.8592 75.954 68.8622C75.9042 68.8622 75.8784 68.8886 75.8766 68.9414C75.8669 69.3139 75.9277 69.748 75.7923 70.0897C75.3374 71.2396 73.7559 70.892 73.7988 69.5984C73.8062 69.3765 73.8066 69.1594 73.8002 68.9472C73.7995 68.9236 73.7901 68.9012 73.7741 68.8848C73.7581 68.8684 73.7367 68.8592 73.7145 68.8592Z" fill="#1A4D6A"/>
</svg>
