<svg width="29" height="39" viewBox="0 0 29 39" fill="none" xmlns="http://www.w3.org/2000/svg">
<path d="M28 23.9238C28 22.6667 26.9272 21.6432 25.6012 21.6421L24.5415 21.641V11.0906C25.7914 10.0575 26.5417 8.54068 26.6045 6.92038C26.6673 5.30008 26.0362 3.73006 24.87 2.60356C24.741 2.47932 24.5579 2.42956 24.3839 2.47133C24.2099 2.51337 24.0695 2.64135 24.0114 2.81056L22.9685 5.87529L20.7158 5.10904L21.8721 1.71091C21.9235 1.55952 21.903 1.39323 21.816 1.25914C21.7293 1.12531 21.5859 1.03831 21.4268 1.02368C21.2589 1.00798 21.0833 1 20.9053 1C19.3318 1.00133 17.8291 1.65504 16.755 2.80522C15.6809 3.95541 15.1315 5.49935 15.238 7.06932C15.3441 8.63962 16.0963 10.0955 17.3154 11.0905V21.6341H16.9322L17.0639 16.5692C17.0639 16.5617 17.0599 16.5538 17.0597 16.546V16.5458C17.0405 15.6707 16.709 14.831 16.1253 14.1786C15.5415 13.5263 14.7439 13.1038 13.876 12.9878L12.8772 12.8327C12.7336 12.8101 12.587 12.8486 12.4728 12.9391C12.3587 13.0293 12.2877 13.1631 12.2765 13.3081L11.8614 18.7469C11.8114 19.4017 11.5858 20.0307 11.2085 20.5678C10.9744 20.9142 10.6791 21.2149 10.3369 21.4554C9.74918 21.8542 8.82279 22.526 8.15231 23.3777V22.2019C8.14033 21.9013 7.89982 21.66 7.59917 21.6469H1.49042C1.20254 21.6469 1.0006 21.9138 1.0006 22.2019V37.7497C0.993951 37.8835 1.04264 38.0139 1.1355 38.1104C1.22809 38.207 1.35659 38.2608 1.49042 38.2594H7.59917C7.88705 38.2594 8.15231 38.0378 8.15231 37.7497V36.8483C10.9087 36.8509 14.9195 36.8539 18.337 36.8539C20.4255 36.8539 22.2895 36.8528 23.5751 36.8499C24.8991 36.8467 25.9569 35.8234 25.9569 34.5679V34.5288C25.9569 34.2151 25.9678 33.5446 25.669 33.0115C26.4161 32.6236 26.9296 31.8701 26.9296 31.0046C26.9248 30.432 26.6989 29.8834 26.2988 29.4739C26.6644 29.285 26.9714 28.9998 27.1869 28.6491C27.4024 28.2985 27.5181 27.8957 27.5213 27.4841V27.4426C27.5229 26.8464 27.2827 26.2751 26.8559 25.859C27.5362 25.4557 28 24.7384 28 23.9232L28 23.9238ZM16.2508 6.69784C16.2522 5.50725 16.7095 4.3621 17.5285 3.4977C18.3476 2.63351 19.4664 2.11552 20.6554 2.05007L19.5603 5.26723C19.5157 5.39813 19.525 5.54153 19.5862 5.66552C19.6474 5.78977 19.7554 5.88449 19.8863 5.92892L23.1263 7.03096C23.399 7.12355 23.6952 6.97775 23.7877 6.70504L24.7057 4.00749C25.2649 4.79288 25.5637 5.73397 25.5603 6.69788C25.565 7.9356 25.0768 9.12434 24.2034 10.0013C23.3299 10.8785 22.1433 11.3712 20.9055 11.3712C19.6678 11.3712 18.4809 10.8785 17.6075 10.0013C16.734 9.12434 16.2458 7.93555 16.2508 6.69784ZM18.3585 11.7748C19.1522 12.1869 20.0342 12.4 20.9286 12.3955C21.8577 12.3955 22.6793 12.1707 23.4987 11.7745V21.6404L18.3585 21.6356L18.3585 11.7748ZM7.10929 37.2177H2.04353V22.6909H7.10929V37.2177ZM25.5933 25.1491H25.2131C25.1876 25.1491 25.1617 25.1549 25.1359 25.1549V25.1515C25.1242 25.1515 25.1125 25.1491 25.1008 25.1491H22.6928C22.4046 25.1491 22.1713 25.3827 22.1713 25.6705C22.1713 25.9584 22.4046 26.192 22.6928 26.192H25.1953C25.9198 26.2665 26.4788 26.7789 26.4788 27.4436V27.4848C26.4788 28.1678 25.8873 28.7246 25.1352 28.7246H22.9864C22.6983 28.7246 22.465 28.9582 22.465 29.2461C22.465 29.5342 22.6983 29.7676 22.9864 29.7676H24.5286C25.281 29.7676 25.8926 30.3114 25.8926 30.9989C25.8926 31.6818 25.2807 32.226 24.5286 32.226H23.1115C22.8236 32.226 22.59 32.4596 22.59 32.7474C22.59 33.0356 22.8236 33.2689 23.1115 33.2689H24.2409C24.661 33.2689 24.9143 33.3772 24.9143 34.5295V34.5686C24.9143 35.25 24.3308 35.8053 23.5808 35.8074C20.192 35.8154 12.6224 35.8101 8.1523 35.8058V25.2752C8.52479 24.3142 9.56561 23.2409 10.9228 22.3185V22.3187C11.3719 22.008 11.7604 21.6182 12.0698 21.1683C12.5537 20.4771 12.8424 19.6683 12.9052 18.827L13.2751 13.9503L13.7212 14.02C13.726 14.0208 13.7303 14.0214 13.7351 14.0222C14.3539 14.1036 14.9235 14.4034 15.341 14.8674C15.7584 15.3314 15.9966 15.9293 16.0128 16.5532L15.8577 22.1415C15.8537 22.282 15.9069 22.4182 16.0048 22.5193C16.103 22.6201 16.2376 22.6771 16.3784 22.6773L25.5938 22.6856C26.3454 22.6861 26.9568 23.2347 26.9568 23.9177C26.9566 24.6007 26.3449 25.1493 25.5928 25.1493L25.5933 25.1491Z" fill="currentColor" stroke="currentColor" stroke-width="0.5"/>
</svg>
