<svg xmlns="http://www.w3.org/2000/svg" width="32" height="32" viewBox="0 0 32 32" fill="none">
  <g clip-path="url(#clip0_24327_231972)">
    <path d="M16 32C24.8366 32 32 24.8366 32 16C32 7.16344 24.8366 0 16 0C7.16344 0 0 7.16344 0 16C0 24.8366 7.16344 32 16 32Z" fill="#47B0D3"/>
    <path d="M2.13331 16C2.13331 7.522 8.72756 0.58525 17.0666 0.0361875C16.714 0.013 16.3586 0 16 0C7.16344 0 0 7.16344 0 16C0 24.8366 7.16344 32 16 32C16.3586 32 16.714 31.987 17.0667 31.9638C8.72762 31.4147 2.13331 24.478 2.13331 16Z" fill="#3298BA"/>
    <path d="M23.766 6.81589C23.6106 6.71026 23.4112 6.69426 23.241 6.77345L6.04809 14.7771C5.74603 14.9178 5.55515 15.2253 5.56272 15.5584C5.57003 15.885 5.76772 16.1784 6.06678 16.3093L21.9176 23.2129C22.4468 23.4534 23.07 23.0748 23.104 22.4971L23.9987 7.28826C24.0096 7.10089 23.9213 6.92139 23.766 6.81589Z" fill="#E5E5E5"/>
    <path d="M10.7266 18.3392L11.7979 25.5003L23.6976 6.77734L10.7266 18.3392Z" fill="#CCCCCC"/>
    <path d="M23.2412 6.77321L6.04811 14.7768C5.75205 14.9146 5.55899 15.2219 5.56255 15.5484C5.56617 15.8755 5.7673 16.178 6.06674 16.3091L10.7265 18.3385L23.6975 6.77677C23.5547 6.70789 23.3872 6.70521 23.2412 6.77321Z" fill="white"/>
    <path d="M13.2132 19.4222L11.7979 25.5003L23.6976 6.77734L13.2132 19.4222Z" fill="#E5E5E5"/>
    <path d="M23.7667 6.81622C23.7447 6.80128 23.7217 6.78859 23.6982 6.77734L13.2139 19.4222L21.9182 23.2132C22.4475 23.4538 23.0707 23.0751 23.1047 22.4974L23.9993 7.28859C24.0103 7.10122 23.922 6.92172 23.7667 6.81622Z" fill="white"/>
  </g>
  <defs>
    <clipPath id="clip0_24327_231972">
      <rect width="32" height="32" fill="white"/>
    </clipPath>
  </defs>
</svg>