<svg xmlns="http://www.w3.org/2000/svg" width="32" height="32" viewBox="0 0 32 32" fill="none">
  <g clip-path="url(#clip0_24327_232002)">
    <path d="M26.9474 27.2H5.05263L0 32V4.8C0 2.16 2.27368 0 5.05263 0H26.9474C29.7263 0 32 2.16 32 4.8V22.4C32 25.04 29.7263 27.2 26.9474 27.2Z" fill="#009688"/>
    <path d="M14 13.667C14 14.1974 14.2107 14.7061 14.5858 15.0812C14.9609 15.4563 15.4696 15.667 16 15.667C16.5304 15.667 17.0391 15.4563 17.4142 15.0812C17.7893 14.7061 18 14.1974 18 13.667C18 13.1366 17.7893 12.6279 17.4142 12.2528C17.0391 11.8777 16.5304 11.667 16 11.667C15.4696 11.667 14.9609 11.8777 14.5858 12.2528C14.2107 12.6279 14 13.1366 14 13.667Z" fill="white"/>
    <path d="M20.667 13.667C20.667 14.1974 20.8777 14.7061 21.2528 15.0812C21.6279 15.4563 22.1366 15.667 22.667 15.667C23.1974 15.667 23.7061 15.4563 24.0812 15.0812C24.4563 14.7061 24.667 14.1974 24.667 13.667C24.667 13.1366 24.4563 12.6279 24.0812 12.2528C23.7061 11.8777 23.1974 11.667 22.667 11.667C22.1366 11.667 21.6279 11.8777 21.2528 12.2528C20.8777 12.6279 20.667 13.1366 20.667 13.667Z" fill="white"/>
    <path d="M7.33301 13.667C7.33301 14.1974 7.54372 14.7061 7.91879 15.0812C8.29387 15.4563 8.80257 15.667 9.33301 15.667C9.86344 15.667 10.3721 15.4563 10.7472 15.0812C11.1223 14.7061 11.333 14.1974 11.333 13.667C11.333 13.1366 11.1223 12.6279 10.7472 12.2528C10.3721 11.8777 9.86344 11.667 9.33301 11.667C8.80257 11.667 8.29387 11.8777 7.91879 12.2528C7.54372 12.6279 7.33301 13.1366 7.33301 13.667Z" fill="white"/>
  </g>
  <defs>
    <clipPath id="clip0_24327_232002">
      <rect width="32" height="32" fill="white"/>
    </clipPath>
  </defs>
</svg>