<svg width="7" height="6" viewBox="0 0 7 6" fill="none" xmlns="http://www.w3.org/2000/svg">
<g clip-path="url(#clip0_17158_100064)">
<path fill-rule="evenodd" clip-rule="evenodd" d="M3.4859 0.3125H3.5141C3.97355 0.312495 4.33745 0.312493 4.62225 0.350785C4.91535 0.39019 5.1526 0.47322 5.3397 0.66031C5.52678 0.847403 5.6098 1.08464 5.64923 1.37775C5.6749 1.56876 5.68335 1.79536 5.68612 2.0625H5.75C5.99162 2.0625 6.1875 2.25838 6.1875 2.5V2.75C6.1875 2.8877 6.12267 3.01737 6.0125 3.1L5.68687 3.3442C5.68505 3.65232 5.67783 3.90938 5.64923 4.12225C5.6098 4.41535 5.52678 4.6526 5.3397 4.8397C5.29223 4.88715 5.24153 4.92792 5.1875 4.963V5.25C5.1875 5.49162 4.99162 5.6875 4.75 5.6875H4.375C4.13338 5.6875 3.9375 5.49162 3.9375 5.25V5.18612C3.80633 5.1875 3.6654 5.1875 3.5141 5.1875H3.4859C3.3346 5.1875 3.19367 5.1875 3.0625 5.18612V5.25C3.0625 5.49162 2.86662 5.6875 2.625 5.6875H2.25C2.00838 5.6875 1.8125 5.49162 1.8125 5.25V4.963C1.75848 4.92792 1.70778 4.88715 1.66031 4.8397C1.47322 4.6526 1.39019 4.41535 1.35078 4.12225C1.32217 3.90938 1.31494 3.65232 1.31312 3.3442L0.9875 3.1C0.877335 3.01737 0.8125 2.8877 0.8125 2.75V2.5C0.8125 2.25838 1.00838 2.0625 1.25 2.0625H1.31387C1.31665 1.79536 1.3251 1.56876 1.35078 1.37775C1.39019 1.08464 1.47322 0.847403 1.66031 0.66031C1.8474 0.47322 2.08464 0.39019 2.37775 0.350785C2.66255 0.312493 3.02645 0.312495 3.4859 0.3125ZM1.3125 2.4375H1.25C1.21548 2.4375 1.1875 2.46548 1.1875 2.5V2.75C1.1875 2.76967 1.19676 2.7882 1.2125 2.8L1.3125 2.875V2.4859C1.3125 2.46965 1.3125 2.45351 1.3125 2.4375ZM1.68893 3.4375C1.69166 3.6959 1.69955 3.90205 1.72244 4.0723C1.75626 4.3238 1.81967 4.46872 1.92548 4.57452C2.03128 4.68032 2.17619 4.74375 2.42771 4.77755C2.68463 4.8121 3.0233 4.8125 3.5 4.8125C3.9767 4.8125 4.31537 4.8121 4.5723 4.77755C4.8238 4.74375 4.96872 4.68032 5.07452 4.57452C5.18032 4.46872 5.24375 4.3238 5.27755 4.0723C5.30045 3.90205 5.30835 3.6959 5.31108 3.4375H1.68893ZM5.3125 3.0625H1.68751C1.6875 3.04193 1.6875 3.0211 1.6875 3V2.5C1.6875 2.02933 1.68789 1.69322 1.72115 1.4375H5.27885C5.3121 1.69322 5.3125 2.02933 5.3125 2.5V3C5.3125 3.0211 5.3125 3.04193 5.3125 3.0625ZM5.6875 2.875L5.7875 2.8C5.80325 2.7882 5.8125 2.76967 5.8125 2.75V2.5C5.8125 2.46548 5.78452 2.4375 5.75 2.4375H5.6875C5.6875 2.45351 5.6875 2.46965 5.6875 2.4859V2.875ZM5.17525 1.0625C5.14705 1.00918 5.1137 0.964648 5.07452 0.925475C4.96872 0.819673 4.8238 0.756255 4.5723 0.72244C4.31537 0.687898 3.9767 0.6875 3.5 0.6875C3.0233 0.6875 2.68463 0.687898 2.42771 0.72244C2.17619 0.756255 2.03128 0.819673 1.92548 0.925475C1.88631 0.964648 1.85294 1.00918 1.82474 1.0625H5.17525ZM2.1875 5.11513V5.25C2.1875 5.28452 2.21548 5.3125 2.25 5.3125H2.625C2.65952 5.3125 2.6875 5.28452 2.6875 5.25V5.17605C2.57517 5.17038 2.47211 5.1619 2.37775 5.14923C2.3115 5.1403 2.24811 5.12918 2.1875 5.11513ZM4.3125 5.17605V5.25C4.3125 5.28452 4.34048 5.3125 4.375 5.3125H4.75C4.78452 5.3125 4.8125 5.28452 4.8125 5.25V5.11513C4.7519 5.12918 4.6885 5.1403 4.62225 5.14923C4.5279 5.1619 4.42482 5.17038 4.3125 5.17605ZM2.0625 4C2.0625 3.89645 2.14645 3.8125 2.25 3.8125H2.625C2.72855 3.8125 2.8125 3.89645 2.8125 4C2.8125 4.10355 2.72855 4.1875 2.625 4.1875H2.25C2.14645 4.1875 2.0625 4.10355 2.0625 4ZM4.1875 4C4.1875 3.89645 4.27145 3.8125 4.375 3.8125H4.75C4.85355 3.8125 4.9375 3.89645 4.9375 4C4.9375 4.10355 4.85355 4.1875 4.75 4.1875H4.375C4.27145 4.1875 4.1875 4.10355 4.1875 4Z" fill="white"/>
</g>
<defs>
<clipPath id="clip0_17158_100064">
<rect width="6" height="6" fill="white" transform="translate(0.5)"/>
</clipPath>
</defs>
</svg>
