<svg width="24" height="24" viewBox="0 0 24 24" fill="none" xmlns="http://www.w3.org/2000/svg">
<path d="M8.7998 7.52002H10.0798V17.76H8.7998V7.52002Z" fill="currentColor"/>
<path d="M11.3594 7.52002H12.6394V17.76H11.3594V7.52002Z" fill="currentColor"/>
<path d="M13.9209 7.52002H15.2009V17.76H13.9209V7.52002Z" fill="currentColor"/>
<path d="M3.67969 3.68005H20.3197V4.96005H3.67969V3.68005Z" fill="currentColor"/>
<path d="M15.1998 3.68H13.9198V3.04C13.9198 2.656 13.6638 2.4 13.2798 2.4H10.7198C10.3358 2.4 10.0798 2.656 10.0798 3.04V3.68H8.7998V3.04C8.7998 1.952 9.6318 1.12 10.7198 1.12H13.2798C14.3678 1.12 15.1998 1.952 15.1998 3.04V3.68Z" fill="currentColor"/>
<path d="M15.84 21.6H8.15996C7.13596 21.6 6.23996 20.768 6.11196 19.744L4.95996 4.38398L6.23996 4.25598L7.39196 19.616C7.39196 20 7.77596 20.32 8.15996 20.32H15.84C16.224 20.32 16.544 20 16.608 19.616L17.76 4.25598L19.04 4.38398L17.888 19.744C17.76 20.768 16.864 21.6 15.84 21.6Z" fill="currentColor"/>
</svg>
