<svg width="32" height="32" viewBox="0 0 32 32" fill="none" xmlns="http://www.w3.org/2000/svg">
<path d="M27.9993 20.6665V17.6722C27.9993 17.0769 27.6047 16.5537 27.0323 16.3902L9.33268 11.3332M9.33268 11.3332H3.99935C3.26298 11.3332 2.66602 11.9301 2.66602 12.6665V23.3332M9.33268 11.3332L5.73268 2.6665M15.9993 25.3332H9.33268" stroke="white" stroke-width="1.6" stroke-linecap="round"/>
<path d="M6.66602 16H10.666" stroke="white" stroke-width="1.6" stroke-linecap="round"/>
<path d="M5.33398 30.6665C7.54312 30.6665 9.33398 28.8756 9.33398 26.6665C9.33398 24.4574 7.54312 22.6665 5.33398 22.6665C3.12485 22.6665 1.33398 24.4574 1.33398 26.6665C1.33398 28.8756 3.12485 30.6665 5.33398 30.6665Z" stroke="white" stroke-width="1.6"/>
<path d="M16 25.3332C16 21.6513 18.9848 18.6665 22.6667 18.6665C26.3485 18.6665 29.3333 21.6513 29.3333 25.3332V26.6665H16V25.3332Z" stroke="white" stroke-width="1.6"/>
<path d="M14.666 30.6665H30.666" stroke="white" stroke-width="1.6"/>
</svg>
