<svg width="10" height="10" viewBox="0 0 10 10" fill="none" xmlns="http://www.w3.org/2000/svg">
<g clip-path="url(#clip0_16470_99871)">
<path d="M10 4.87136C10 7.56155 7.8022 9.74239 5.09049 9.74239C4.22995 9.74239 3.42159 9.52229 2.71791 9.13686L0 10L0.885969 7.38579C0.439234 6.6521 0.181955 5.79059 0.181955 4.87103C0.182281 2.18085 2.37943 0 5.09114 0C7.80252 0.000652167 10 2.18117 10 4.87136ZM5.09016 0.776731C2.81443 0.776731 0.96325 2.61388 0.96325 4.87234C0.96325 5.76842 1.25542 6.59797 1.74944 7.27296L1.23423 8.79349L2.81964 8.28969C3.47181 8.71751 4.25213 8.96664 5.09016 8.96664C7.3659 8.96664 9.21773 7.12981 9.21773 4.87136C9.21838 2.61388 7.36622 0.776731 5.09016 0.776731ZM7.5697 5.99341C7.53905 5.94417 7.45883 5.91417 7.33883 5.85418C7.21916 5.79418 6.62667 5.50559 6.51678 5.46646C6.40591 5.42635 6.32569 5.40614 6.24548 5.52581C6.16624 5.64548 5.93537 5.91418 5.86461 5.99439C5.7945 6.07428 5.72439 6.08439 5.60407 6.02537C5.48375 5.96472 5.09571 5.8395 4.63593 5.43288C4.27821 5.11592 4.03659 4.7256 3.9668 4.60593C3.89604 4.48658 3.95963 4.42202 4.0193 4.36267C4.07311 4.30887 4.13963 4.22311 4.19995 4.153C4.26028 4.08354 4.28017 4.0343 4.32028 3.95441C4.35974 3.87452 4.33984 3.80507 4.31017 3.74474C4.28017 3.68474 4.03985 3.09779 3.93909 2.85877C3.83898 2.62008 3.73887 2.65954 3.66844 2.65954C3.59833 2.65954 3.51811 2.64975 3.4379 2.64975C3.35768 2.64975 3.22725 2.67878 3.11736 2.79845C3.00747 2.91812 2.69638 3.2067 2.69638 3.79431C2.69638 4.38256 3.12714 4.94962 3.18747 5.02918C3.24812 5.10842 4.02028 6.35374 5.24342 6.83177C6.46721 7.30949 6.46721 7.15003 6.68764 7.12981C6.90873 7.1096 7.39981 6.84123 7.49959 6.56275C7.60003 6.28298 7.60003 6.0433 7.5697 5.99341Z" fill="black"/>
</g>
<defs>
<clipPath id="clip0_16470_99871">
<rect width="10" height="10" fill="white"/>
</clipPath>
</defs>
</svg>
