<svg xmlns="http://www.w3.org/2000/svg" width="33" height="32" viewBox="0 0 33 32" fill="none">
  <g clip-path="url(#clip0_24327_231968)">
    <path d="M16.5413 8.22933C12.3 8.22933 8.852 11.6773 8.85067 15.9173C8.84933 17.648 9.35733 18.944 10.2093 20.3L9.43333 23.1373L12.3427 22.3733C13.6467 23.1467 14.8907 23.6107 16.536 23.612C20.7733 23.612 24.2253 20.1627 24.2267 15.924C24.228 11.6747 20.7933 8.23067 16.5413 8.22933ZM21.064 19.2213C20.872 19.7613 19.948 20.2533 19.504 20.32C19.1053 20.38 18.6013 20.404 18.048 20.228C17.712 20.1213 17.2813 19.9787 16.7307 19.7413C14.412 18.74 12.8987 16.4053 12.7827 16.252C12.6667 16.0973 11.8387 14.9987 11.8387 13.8613C11.8387 12.724 12.436 12.164 12.648 11.9333C12.86 11.7027 13.1093 11.644 13.264 11.644L13.7067 11.652C13.848 11.6587 14.0387 11.5987 14.2267 12.0493C14.4187 12.512 14.8813 13.6493 14.9387 13.7653C14.996 13.8813 15.0347 14.016 14.9573 14.1707C14.88 14.3253 14.8413 14.4213 14.7267 14.556L14.38 14.9613C14.264 15.076 14.144 15.2013 14.2787 15.4333C14.4133 15.6653 14.8773 16.4213 15.564 17.0347C16.4467 17.8227 17.192 18.0667 17.4227 18.1813C17.6533 18.296 17.788 18.2773 17.924 18.124C18.0587 17.9693 18.5013 17.4493 18.656 17.2173C18.8107 16.9867 18.964 17.024 19.176 17.1013C19.388 17.1787 20.524 17.7373 20.7547 17.8533C20.9853 17.9693 21.14 18.0267 21.1973 18.1227C21.2573 18.2187 21.2573 18.6813 21.064 19.2213ZM16.5 0C7.664 0 0.5 7.164 0.5 16C0.5 24.836 7.664 32 16.5 32C25.336 32 32.5 24.836 32.5 16C32.5 7.164 25.336 0 16.5 0ZM16.5387 25.1733C14.9907 25.1733 13.4653 24.784 12.1147 24.048L7.212 25.3333L8.524 20.54C7.71467 19.1373 7.288 17.5453 7.28933 15.916C7.29067 10.816 11.44 6.66667 16.5387 6.66667C19.0133 6.668 21.336 7.63067 23.0813 9.37867C24.828 11.1267 25.7893 13.4507 25.788 15.9227C25.7867 21.0227 21.6373 25.1733 16.5387 25.1733Z" fill="#25D366"/>
  </g>
  <defs>
    <clipPath id="clip0_24327_231968">
      <rect width="32" height="32" fill="white" transform="translate(0.5)"/>
    </clipPath>
  </defs>
</svg>
