<svg width="24" height="24" viewBox="0 0 24 24" fill="none" xmlns="http://www.w3.org/2000/svg">
<path fill-rule="evenodd" clip-rule="evenodd" d="M15.667 7.75008H14.7503V7.29175H13.8337V8.66675H21.167V7.29175H20.2503V7.75008H19.3337V7.29175H15.667V7.75008ZM21.167 9.58341H13.8337V14.1667H21.167V9.58341ZM19.3337 6.37508H15.667V5.91675H14.7503V6.37508H13.8337C13.3274 6.37508 12.917 6.78549 12.917 7.29175V14.1667C12.917 14.673 13.3274 15.0834 13.8337 15.0834H21.167C21.6733 15.0834 22.0837 14.673 22.0837 14.1667V7.29175C22.0837 6.78549 21.6733 6.37508 21.167 6.37508H20.2503V5.91675H19.3337V6.37508ZM15.2087 11.4167V10.5001H16.1253V11.4167H15.2087ZM17.042 11.4167H17.9587V10.5001H17.042V11.4167ZM18.8753 11.4167V10.5001H19.792V11.4167H18.8753ZM15.2087 12.3334V13.2501H16.1253V12.3334H15.2087ZM17.9587 13.2501H17.042V12.3334H17.9587V13.2501Z" fill="#222222"/>
<path d="M15.2428 20.1427V18.5282C15.2428 17.6718 14.8989 16.8504 14.2866 16.2449C13.6743 15.6393 12.8439 15.2991 11.9781 15.2991H6.26475C5.39889 15.2991 4.56848 15.6393 3.95622 16.2449C3.34396 16.8504 3 17.6718 3 18.5282V20.1427" stroke="#222222" stroke-width="1.5" stroke-linejoin="round"/>
<path d="M9.1212 13.1464C10.9243 13.1464 12.3859 11.7007 12.3859 9.91732C12.3859 8.13395 10.9243 6.68823 9.1212 6.68823C7.31812 6.68823 5.85645 8.13395 5.85645 9.91732C5.85645 11.7007 7.31812 13.1464 9.1212 13.1464Z" stroke="#222222" stroke-width="1.5" stroke-linejoin="round"/>
</svg>
