<svg width="56" height="56" viewBox="0 0 56 56" fill="none" xmlns="http://www.w3.org/2000/svg">
<path d="M36.8549 10.0007H41.7384C42.7735 9.98263 43.7794 10.3393 44.565 11.0029C45.3506 11.6665 45.8612 12.5909 46 13.6006V26.2004C45.8612 27.21 45.3506 28.1344 44.565 28.798C43.7794 29.4617 42.7735 29.8183 41.7384 29.8003H36.8549M24.0517 33.4002V40.6001C24.0517 42.0322 24.6298 43.4057 25.6589 44.4184C26.6879 45.4311 28.0835 46 29.5388 46L36.8549 29.8003V10.0007H16.2235C15.3413 9.99084 14.4853 10.2951 13.813 10.8574C13.1408 11.4197 12.6978 12.2022 12.5655 13.0606L10.0414 29.2603C9.96185 29.7763 9.99721 30.3031 10.1451 30.8042C10.2929 31.3054 10.5497 31.7689 10.8977 32.1627C11.2456 32.5565 11.6764 32.8712 12.1602 33.0848C12.644 33.2985 13.1692 33.4061 13.6995 33.4002H24.0517Z" stroke="currentColor" stroke-width="1.6" stroke-linejoin="round"/>
</svg>
