<svg width="24" height="24" viewBox="0 0 24 24" fill="none" xmlns="http://www.w3.org/2000/svg">
<path d="M7 4V1" stroke="currentColor" stroke-width="1.6" stroke-linecap="square"/>
<path d="M2 5C2 4.44772 2.44772 4 3 4H21C21.5523 4 22 4.44772 22 5V21C22 21.5523 21.5523 22 21 22H3C2.44772 22 2 21.5523 2 21V5Z" stroke="currentColor" stroke-width="1.6"/>
<path d="M10.5 8.5H7.5V11.5H10.5V8.5Z" stroke="currentColor" stroke-width="1.6" stroke-linejoin="round"/>
<path d="M16.5 8.5H13.5V11.5H16.5V8.5Z" stroke="currentColor" stroke-width="1.6" stroke-linejoin="round"/>
<path d="M10.5 14.5H7.5V17.5H10.5V14.5Z" stroke="currentColor" stroke-width="1.6" stroke-linejoin="round"/>
<path d="M16.5 14.5H13.5V17.5H16.5V14.5Z" stroke="currentColor" stroke-width="1.6" stroke-linejoin="round"/>
<path d="M17 4V1" stroke="currentColor" stroke-width="1.6" stroke-linecap="square"/>
</svg>
