<svg width="24" height="24" viewBox="0 0 24 24" fill="none" xmlns="http://www.w3.org/2000/svg">
<path d="M4.5 4.5V2.5M4.5 4.5H2.5M4.5 4.5V8.25V12M4.5 4.5H7.5M19.5 4.5H21.5M19.5 4.5V2.5M19.5 4.5V8.25V12M19.5 4.5H16.5M19.5 19.5V21.5M19.5 19.5H21.5M19.5 19.5H17.5M19.5 19.5V15.75V12M4.5 19.5V21.5M4.5 19.5H2.5M4.5 19.5V15.75V12M4.5 19.5H6.5M4.5 12H2.5M19.5 12H21.5" stroke="currentColor" stroke-width="1.6"/>
<path d="M10.6 6.4C10.6 5.6268 11.2268 5 12 5V5C12.7732 5 13.4 5.6268 13.4 6.4V9.25122C13.4 9.41367 13.4465 9.57272 13.5341 9.70954L14.8423 11.7535C14.9453 11.9145 15 12.1015 15 12.2926V16C15 16.5523 14.5523 17 14 17H10C9.44772 17 9 16.5523 9 16V12.2926C9 12.1015 9.05474 11.9145 9.15773 11.7535L10.4659 9.70954C10.5535 9.57272 10.6 9.41367 10.6 9.25122V6.4Z" stroke="currentColor" stroke-width="1.6"/>
<path d="M16 23V23.8C16.2352 23.8 16.4584 23.6965 16.6104 23.5171C16.7624 23.3377 16.8278 23.1004 16.7891 22.8685L16 23ZM8 23L7.21088 22.8685C7.17222 23.1004 7.23758 23.3377 7.38958 23.5171C7.54159 23.6965 7.76484 23.8 8 23.8V23ZM10.1943 20.8H13.8057V19.2H10.1943V20.8ZM14.9894 21.8027L15.2109 23.1315L16.7891 22.8685L16.5676 21.5397L14.9894 21.8027ZM16 22.2H8V23.8H16V22.2ZM8.78912 23.1315L9.01058 21.8027L7.43235 21.5397L7.21088 22.8685L8.78912 23.1315ZM13.8057 20.8C14.3924 20.8 14.893 21.2241 14.9894 21.8027L16.5676 21.5397C16.3426 20.1896 15.1745 19.2 13.8057 19.2V20.8ZM10.1943 19.2C8.8255 19.2 7.65737 20.1896 7.43235 21.5397L9.01058 21.8027C9.10702 21.2241 9.60765 20.8 10.1943 20.8V19.2Z" fill="currentColor"/>
<path d="M12 20L12 17" stroke="currentColor" stroke-width="1.6"/>
<path d="M12 5L12 1" stroke="currentColor" stroke-width="1.6" stroke-linecap="round"/>
</svg>
