<svg width="24" height="25" viewBox="0 0 24 25" fill="none" xmlns="http://www.w3.org/2000/svg">
<path d="M1 8.72727H14M1 8.72727L1.71175 22.1062C1.76824 23.168 2.64565 24 3.70893 24H13.1875L14 8.72727M1 8.72727C1 5.56419 3.91015 3 7.5 3C11.0899 3 14 5.56419 14 8.72727" stroke="currentColor" stroke-width="1.6"/>
<path d="M4.5 12.4444V9H10.5V12.4444M4.5 12.4444V14M4.5 12.4444H7.5M10.5 12.4444V14M10.5 12.4444H7.5M7.5 12.4444V14" stroke="currentColor" stroke-width="1.6"/>
<path d="M18 1L16.5 21M16.5 21H12.9199M16.5 21H20.5399C21.3684 21 22.0399 21.6716 22.0399 22.5V22.5C22.0399 23.3284 21.3684 24 20.5399 24H11" stroke="currentColor" stroke-width="1.6"/>
</svg>
