<svg width="24" height="24" viewBox="0 0 24 24" fill="none" xmlns="http://www.w3.org/2000/svg">
<path d="M19.275 6.9749L14.025 1.7249C13.959 1.65162 13.8779 1.59354 13.7872 1.5547C13.6966 1.51585 13.5986 1.49715 13.5 1.4999H6C5.60254 1.50109 5.2217 1.6595 4.94065 1.94055C4.6596 2.2216 4.50119 2.60244 4.5 2.9999V20.9999C4.50119 21.3974 4.6596 21.7782 4.94065 22.0592C5.2217 22.3403 5.60254 22.4987 6 22.4999H18C18.3975 22.4987 18.7783 22.3403 19.0593 22.0592C19.3404 21.7782 19.4988 21.3974 19.5 20.9999V7.4999C19.5027 7.40132 19.484 7.30331 19.4452 7.21267C19.4064 7.12202 19.3483 7.0409 19.275 6.9749ZM13.5 3.2999L17.7 7.4999H13.5V3.2999ZM18 20.9999H6V2.9999H12V7.4999C12.0012 7.89736 12.1596 8.2782 12.4407 8.55925C12.7217 8.84029 13.1025 8.99871 13.5 8.9999H18V20.9999Z" fill="currentColor"/>
</svg>
