<svg width="24" height="24" viewBox="0 0 24 24" fill="none" xmlns="http://www.w3.org/2000/svg">
<path d="M15.2 12C15.2 14.401 13.4663 16.2 11.5 16.2C9.53375 16.2 7.8 14.401 7.8 12C7.8 9.59903 9.53375 7.8 11.5 7.8C13.4663 7.8 15.2 9.59903 15.2 12Z" stroke="currentColor" stroke-width="1.6" stroke-linecap="round" stroke-linejoin="round"/>
<path d="M15.5 8C15.1 14.8 15.5 16.5 17.5 16.5C20.5 16.5 21 13.5 21 11C21 6.02944 16.9706 3 12 3C7.02944 3 3 7.02944 3 12C3 16.9706 7.02944 21 12 21C14.5 21 16 20 16 20" stroke="currentColor" stroke-width="1.6"/>
</svg>
