<svg width="32" height="32" viewBox="0 0 32 32" fill="none" xmlns="http://www.w3.org/2000/svg">
<path d="M14.2007 14H13.7993C13.4158 17.5755 10.5755 20.4158 7 20.7993V21.2007C10.5755 21.5842 13.4158 24.4245 13.7993 28H14.2007C14.5842 24.4245 17.4245 21.5842 21 21.2007V20.7993C17.4245 20.4158 14.5842 17.5755 14.2007 14Z" stroke="currentColor" stroke-width="2"/>
<path d="M26.1147 11H25.8853C25.6662 13.0432 24.0432 14.6662 22 14.8853V15.1147C24.0432 15.3338 25.6662 16.9568 25.8853 19H26.1147C26.3338 16.9568 27.9568 15.3338 30 15.1147V14.8853C27.9568 14.6662 26.3338 13.0432 26.1147 11Z" stroke="currentColor" stroke-width="2"/>
<path d="M7.11466 5H6.88534C6.66619 7.04317 5.04317 8.66619 3 8.88534V9.11466C5.04317 9.33381 6.66619 10.9568 6.88534 13H7.11466C7.33381 10.9568 8.95683 9.33381 11 9.11466V8.88534C8.95683 8.66619 7.33381 7.04317 7.11466 5Z" stroke="currentColor" stroke-width="2"/>
</svg>
