<svg width="56" height="56" viewBox="0 0 56 56" fill="none" xmlns="http://www.w3.org/2000/svg">
<path d="M4.66699 28C4.66699 40.8866 15.1137 51.3333 28.0003 51.3333C40.887 51.3333 51.3337 40.8866 51.3337 28C51.3337 15.1133 40.887 4.66663 28.0003 4.66663" stroke="currentColor" stroke-width="1.6"/>
<path d="M4.66699 28C4.66699 15.1133 15.1137 4.66663 28.0003 4.66663" stroke="currentColor" stroke-width="1.6" stroke-dasharray="2 2"/>
<path d="M37.45 31.5384H35.8V20.5765C35.7997 20.2579 35.5533 19.9998 35.2495 20C35.0703 20.0001 34.9023 20.0919 34.7995 20.2459L27.0993 31.7847C26.9252 32.0459 26.9859 32.4056 27.2349 32.5881C27.3272 32.6558 27.4371 32.6922 27.5498 32.6922H34.6999V34.4231C34.6999 34.7417 34.9462 35 35.2499 35C35.5537 35 35.8 34.7417 35.8 34.4231V32.6922H37.45C37.7537 32.6922 38 32.4339 38 32.1153C38 31.7967 37.7537 31.5384 37.45 31.5384ZM34.6999 31.5384H28.6058L34.6999 22.4066V31.5384Z" fill="currentColor"/>
<path d="M25.5 33.8462H19.5805L25.084 26.3692C25.0965 26.3521 25.1082 26.3342 25.119 26.3156C26.1544 24.5476 25.8095 22.1539 24.334 20.8675C22.5399 19.3802 20.0406 19.8526 18.7516 21.9225C18.2627 22.7075 17.9999 23.6496 18 24.6161C18 24.9347 18.2239 25.193 18.5 25.193C18.7761 25.193 19 24.9347 19 24.6161C18.9998 22.7044 20.3429 21.1546 21.9997 21.1544C22.6277 21.1543 23.2399 21.3816 23.75 21.8043C24.7836 22.7181 25.0242 24.4008 24.3 25.6493L18.119 34.0499C17.9403 34.2928 17.9662 34.6568 18.1768 34.863C18.2671 34.9514 18.3816 34.9999 18.5 35H25.5C25.7761 35 26 34.7417 26 34.4231C26 34.1045 25.7761 33.8462 25.5 33.8462Z" fill="currentColor"/>
<path d="M51 28H48" stroke="currentColor" stroke-width="1.2" stroke-linecap="round"/>
<path d="M28 48V51" stroke="currentColor" stroke-width="1.2" stroke-linecap="round"/>
</svg>
