<svg width="18" height="18" viewBox="0 0 18 18" fill="none" xmlns="http://www.w3.org/2000/svg">
<path d="M3.375 1.6875V16.3125H12.375V15.1875H4.5V2.8125H10.125V6.1875H13.5V7.3125H14.625V5.4L14.4563 5.23125L11.0813 1.85625L10.9125 1.6875H3.375ZM11.25 3.6L12.7125 5.0625H11.25V3.6ZM5.625 7.3125V8.4375H12.375V7.3125H5.625ZM15.1875 8.4375V9.5625C14.2312 9.73125 13.5 10.5188 13.5 11.5312C13.5 12.6562 14.3438 13.5 15.4688 13.5H16.0312C16.4812 13.5 16.875 13.8938 16.875 14.3438C16.875 14.7937 16.4812 15.1875 16.0312 15.1875H14.0625V16.3125H15.1875V17.4375H16.3125V16.3125C17.2688 16.1438 18 15.3562 18 14.3438C18 13.2188 17.1562 12.375 16.0312 12.375H15.4688C15.0188 12.375 14.625 11.9812 14.625 11.5312C14.625 11.0813 15.0188 10.6875 15.4688 10.6875H17.4375V9.5625H16.3125V8.4375H15.1875ZM5.625 10.125V11.25H9.5625V10.125H5.625ZM10.6875 10.125V11.25H12.375V10.125H10.6875ZM5.625 12.375V13.5H9.5625V12.375H5.625ZM10.6875 12.375V13.5H12.375V12.375H10.6875Z" fill="currentColor"/>
</svg>
