<svg width="24" height="24" viewBox="0 0 24 24" fill="none" xmlns="http://www.w3.org/2000/svg">
<path d="M15.2428 20.1428V18.5283C15.2428 17.6719 14.8989 16.8505 14.2866 16.245C13.6743 15.6394 12.8439 15.2992 11.9781 15.2992H6.26475C5.39889 15.2992 4.56848 15.6394 3.95622 16.245C3.34396 16.8505 3 17.6719 3 18.5283V20.1428" stroke="currentColor" stroke-width="1.5" stroke-linejoin="round"/>
<path d="M9.1212 13.1465C10.9243 13.1465 12.3859 11.7008 12.3859 9.91745C12.3859 8.13407 10.9243 6.68835 9.1212 6.68835C7.31812 6.68835 5.85645 8.13407 5.85645 9.91745C5.85645 11.7008 7.31812 13.1465 9.1212 13.1465Z" stroke="currentColor" stroke-width="1.5" stroke-linejoin="round"/>
<path d="M15.2852 8.12987L16.7027 9.57143L21.428 4.76624" stroke="currentColor" stroke-width="1.5" stroke-linejoin="round"/>
<path d="M20.9557 8.61044V11.9741C20.9557 12.229 20.8561 12.4734 20.6789 12.6536C20.5017 12.8339 20.2613 12.9351 20.0106 12.9351H14.3403M12.4502 5.24681C12.4502 4.99192 12.5498 4.74748 12.727 4.56725C12.9042 4.38702 13.1446 4.28577 13.3953 4.28577H18.5931" stroke="currentColor" stroke-width="1.5" stroke-linejoin="round"/>
</svg>
