<svg width="56" height="56" viewBox="0 0 56 56" fill="none" xmlns="http://www.w3.org/2000/svg">
<path d="M41.2871 22.8129H50.0371V14.0629" stroke="currentColor" stroke-width="1.6" stroke-linecap="round" stroke-linejoin="round"/>
<path d="M41.6115 41.6118C38.9194 44.304 35.4893 46.1374 31.7552 46.8801C28.0211 47.6229 24.1505 47.2417 20.6331 45.7847C17.1156 44.3277 14.1091 41.8604 11.9939 38.6947C9.8787 35.5291 8.74971 31.8073 8.74971 28C8.74971 24.1927 9.8787 20.4709 11.9939 17.3053C14.1091 14.1396 17.1156 11.6723 20.6331 10.2153C24.1505 8.75834 28.0211 8.37713 31.7552 9.11989C35.4893 9.86266 38.9194 11.696 41.6115 14.3882L49.0361 21.8128" stroke="currentColor" stroke-width="1.8" stroke-linecap="round" stroke-linejoin="round"/>
<path d="M28.1701 37C28.3902 37 28.6013 36.8671 28.7569 36.6305C28.9126 36.394 29 36.0732 29 35.7386V20.2614C29 19.9268 28.9126 19.606 28.7569 19.3695C28.6013 19.1329 28.3902 19 28.1701 19C27.8581 19.0274 27.5504 19.1252 27.2573 19.2901L25.5975 20.0722C25.4332 20.1276 25.2855 20.264 25.1774 20.4602C25.0694 20.6564 25.007 20.9013 25 21.157C25.0043 21.447 25.0832 21.7229 25.2197 21.9256C25.3562 22.1284 25.5394 22.2418 25.7303 22.2418C25.8519 22.2356 25.9722 22.2015 26.0871 22.1409L27.3402 21.6111V35.7386C27.3402 36.0732 27.4277 36.394 27.5833 36.6305C27.7389 36.8671 27.95 37 28.1701 37Z" fill="currentColor"/>
</svg>
