<svg width="24" height="24" viewBox="0 0 24 24" fill="none" xmlns="http://www.w3.org/2000/svg">
<path d="M10.1912 7.94687L4.39561 6.39395C3.86215 6.25101 3.31381 6.56759 3.17087 7.10106L1.61795 12.8966C1.47501 13.4301 1.79159 13.9784 2.32506 14.1214L5.89631 15.0783C6.087 15.1294 6.25831 15.2358 6.38864 15.3841L8.5689 17.8649L9.08654 15.9331L10.8983 9.17161C11.0412 8.63814 10.7246 8.08981 10.1912 7.94687Z" fill="currentColor"/>
<path d="M22.1912 7.94687L16.3956 6.39395C15.8621 6.25101 15.3138 6.56759 15.1709 7.10106L13.618 12.8966C13.475 13.4301 13.7916 13.9784 14.3251 14.1214L17.8963 15.0783C18.087 15.1294 18.2583 15.2358 18.3886 15.3841L20.5689 17.8649L21.0865 15.9331L22.8983 9.17161C23.0412 8.63814 22.7246 8.08981 22.1912 7.94687Z" fill="currentColor"/>
</svg>
