<svg width="56" height="56" viewBox="0 0 56 56" fill="none" xmlns="http://www.w3.org/2000/svg">
<path d="M45.5 8.75H10.5C9.5335 8.75 8.75 9.5335 8.75 10.5V45.5C8.75 46.4665 9.5335 47.25 10.5 47.25H45.5C46.4665 47.25 47.25 46.4665 47.25 45.5V10.5C47.25 9.5335 46.4665 8.75 45.5 8.75Z" stroke="black" stroke-width="1.5" stroke-linecap="round" stroke-linejoin="round"/>
<path d="M38.5 5.25V12.25" stroke="black" stroke-width="1.5" stroke-linecap="round" stroke-linejoin="round"/>
<path d="M17.5 5.25V12.25" stroke="black" stroke-width="1.5" stroke-linecap="round" stroke-linejoin="round"/>
<path d="M8.75 19.25H47.25" stroke="black" stroke-width="1.5" stroke-linecap="round" stroke-linejoin="round"/>
<path d="M27.404 25.0212L17.8721 34.5532" stroke="black" stroke-width="1.5" stroke-linecap="round" stroke-linejoin="round"/>
<path d="M27.404 34.5532L17.8721 25.0212" stroke="black" stroke-width="1.5" stroke-linecap="round" stroke-linejoin="round"/>
<ellipse cx="42.7017" cy="43.5106" rx="9.26714" ry="9.26714" fill="white" stroke="currentColor" stroke-width="1.5"/>
<path d="M42.7021 37.5531V43.5105H46.6738" stroke="currentColor" stroke-width="1.3"/>
<path d="M34 24H44" stroke="currentColor" stroke-linecap="round"/>
<path d="M34 27H44" stroke="currentColor" stroke-linecap="round"/>
<path d="M34 30H38" stroke="currentColor" stroke-linecap="round"/>
</svg>
