<svg width="18" height="18" viewBox="0 0 18 18" fill="none" xmlns="http://www.w3.org/2000/svg">
<path d="M12.9201 2.25C12.8311 2.25219 12.7426 2.26407 12.6562 2.28543L3.51562 4.69293C3.15432 4.78859 2.83459 5.00058 2.60582 5.29614C2.37706 5.5917 2.25201 5.95438 2.25 6.32812V14.0625C2.25 14.9878 3.01219 15.75 3.9375 15.75H14.0625C14.9878 15.75 15.75 14.9878 15.75 14.0625V6.75C15.75 5.82468 14.9878 5.0625 14.0625 5.0625H6.53906L12.9375 3.375V4.5H14.0625V3.375C14.0625 2.74218 13.5242 2.241 12.9201 2.25ZM3.9375 6.1875H14.0625C14.3809 6.1875 14.625 6.43162 14.625 6.75V14.0625C14.625 14.3809 14.3809 14.625 14.0625 14.625H3.9375C3.61913 14.625 3.375 14.3809 3.375 14.0625V6.75C3.375 6.43162 3.61913 6.1875 3.9375 6.1875ZM12.6562 9.5625C12.4325 9.5625 12.2179 9.65139 12.0596 9.80963C11.9014 9.96786 11.8125 10.1825 11.8125 10.4062C11.8125 10.63 11.9014 10.8446 12.0596 11.0029C12.2179 11.1611 12.4325 11.25 12.6562 11.25C12.88 11.25 13.0946 11.1611 13.2529 11.0029C13.4111 10.8446 13.5 10.63 13.5 10.4062C13.5 10.1825 13.4111 9.96786 13.2529 9.80963C13.0946 9.65139 12.88 9.5625 12.6562 9.5625Z" fill="currentColor"/>
</svg>
